M48
; DRILL file {KiCad 6.0.2+dfsg-1} date Sun 21 Aug 2022 05:25:05 PM CEST
; FORMAT={-:-/ absolute / metric / decimal}
; #@! TF.CreationDate,2022-08-21T17:25:05+02:00
; #@! TF.GenerationSoftware,Kicad,Pcbnew,6.0.2+dfsg-1
; #@! TF.FileFunction,Plated,1,2,PTH
FMAT,2
METRIC
; #@! TA.AperFunction,Plated,PTH,ComponentDrill
T1C0.700
; #@! TA.AperFunction,Plated,PTH,ComponentDrill
T2C0.800
; #@! TA.AperFunction,Plated,PTH,ComponentDrill
T3C1.000
; #@! TA.AperFunction,Plated,PTH,ComponentDrill
T4C1.520
; #@! TA.AperFunction,Plated,PTH,ComponentDrill
T5C3.200
%
G90
G05
T1
X152.896Y-85.129
X152.896Y-103.671
X155.436Y-85.129
X155.436Y-103.671
X163.564Y-85.129
X163.564Y-103.671
X166.104Y-85.129
X166.104Y-103.671
T2
X158.6Y-98.9
X160.6Y-98.9
T3
X106.3Y-84.6
X106.3Y-87.14
X106.3Y-89.68
X106.3Y-92.22
X106.3Y-94.76
X106.3Y-97.3
X106.3Y-99.84
X106.3Y-102.38
X106.3Y-104.92
X109.655Y-84.61
X109.655Y-87.15
X109.655Y-89.69
X109.655Y-92.23
X109.655Y-94.77
X109.655Y-97.31
X109.655Y-99.85
X109.655Y-102.39
X132.515Y-84.61
X132.515Y-87.15
X132.515Y-89.69
X132.515Y-92.23
X132.515Y-94.77
X132.515Y-97.31
X132.515Y-99.85
X132.515Y-102.39
X135.675Y-101.075
X135.86Y-105.0
X135.96Y-109.0
X136.075Y-84.983
X136.075Y-87.522
X136.075Y-90.062
X136.075Y-92.602
X136.075Y-95.142
X136.075Y-97.682
X138.215Y-101.075
X138.4Y-105.0
X138.5Y-109.0
X140.755Y-101.075
X143.845Y-101.1
X146.385Y-101.1
X148.875Y-84.953
X148.875Y-87.492
X148.875Y-90.032
X148.875Y-92.572
X148.875Y-95.112
X148.875Y-97.652
X148.925Y-101.1
T4
X143.12Y-107.0
X148.2Y-107.0
T5
X120.0Y-88.1
X120.0Y-108.1
X160.0Y-108.1
T0
M30
