G04 #@! TF.GenerationSoftware,KiCad,Pcbnew,6.0.2+dfsg-1*
G04 #@! TF.CreationDate,2022-08-21T17:24:23+02:00*
G04 #@! TF.ProjectId,EspFanPwm,45737046-616e-4507-976d-2e6b69636164,rev?*
G04 #@! TF.SameCoordinates,Original*
G04 #@! TF.FileFunction,Copper,L1,Top*
G04 #@! TF.FilePolarity,Positive*
%FSLAX46Y46*%
G04 Gerber Fmt 4.6, Leading zero omitted, Abs format (unit mm)*
G04 Created by KiCad (PCBNEW 6.0.2+dfsg-1) date 2022-08-21 17:24:23*
%MOMM*%
%LPD*%
G01*
G04 APERTURE LIST*
G04 Aperture macros list*
%AMRoundRect*
0 Rectangle with rounded corners*
0 $1 Rounding radius*
0 $2 $3 $4 $5 $6 $7 $8 $9 X,Y pos of 4 corners*
0 Add a 4 corners polygon primitive as box body*
4,1,4,$2,$3,$4,$5,$6,$7,$8,$9,$2,$3,0*
0 Add four circle primitives for the rounded corners*
1,1,$1+$1,$2,$3*
1,1,$1+$1,$4,$5*
1,1,$1+$1,$6,$7*
1,1,$1+$1,$8,$9*
0 Add four rect primitives between the rounded corners*
20,1,$1+$1,$2,$3,$4,$5,0*
20,1,$1+$1,$4,$5,$6,$7,0*
20,1,$1+$1,$6,$7,$8,$9,0*
20,1,$1+$1,$8,$9,$2,$3,0*%
G04 Aperture macros list end*
G04 #@! TA.AperFunction,SMDPad,CuDef*
%ADD10RoundRect,0.250000X-0.400000X-0.625000X0.400000X-0.625000X0.400000X0.625000X-0.400000X0.625000X0*%
G04 #@! TD*
G04 #@! TA.AperFunction,SMDPad,CuDef*
%ADD11RoundRect,0.250000X0.400000X0.625000X-0.400000X0.625000X-0.400000X-0.625000X0.400000X-0.625000X0*%
G04 #@! TD*
G04 #@! TA.AperFunction,ComponentPad*
%ADD12R,1.700000X1.700000*%
G04 #@! TD*
G04 #@! TA.AperFunction,ComponentPad*
%ADD13O,1.700000X1.700000*%
G04 #@! TD*
G04 #@! TA.AperFunction,ComponentPad*
%ADD14C,5.600000*%
G04 #@! TD*
G04 #@! TA.AperFunction,ComponentPad*
%ADD15R,1.600000X1.600000*%
G04 #@! TD*
G04 #@! TA.AperFunction,ComponentPad*
%ADD16C,1.600000*%
G04 #@! TD*
G04 #@! TA.AperFunction,ComponentPad*
%ADD17R,3.000000X3.000000*%
G04 #@! TD*
G04 #@! TA.AperFunction,ComponentPad*
%ADD18C,3.000000*%
G04 #@! TD*
G04 #@! TA.AperFunction,ComponentPad*
%ADD19R,2.000000X2.000000*%
G04 #@! TD*
G04 #@! TA.AperFunction,ComponentPad*
%ADD20O,2.000000X1.600000*%
G04 #@! TD*
G04 #@! TA.AperFunction,ComponentPad*
%ADD21R,1.524000X1.524000*%
G04 #@! TD*
G04 #@! TA.AperFunction,ComponentPad*
%ADD22C,1.524000*%
G04 #@! TD*
G04 #@! TA.AperFunction,Conductor*
%ADD23C,0.250000*%
G04 #@! TD*
G04 #@! TA.AperFunction,Conductor*
%ADD24C,0.800000*%
G04 #@! TD*
G04 APERTURE END LIST*
D10*
X143150000Y-87500000D03*
X146250000Y-87500000D03*
D11*
X146250000Y-90000000D03*
X143150000Y-90000000D03*
D10*
X146250000Y-92600000D03*
X143150000Y-92600000D03*
D12*
X106300000Y-84600000D03*
D13*
X106300000Y-87140000D03*
X106300000Y-89680000D03*
X106300000Y-92220000D03*
X106300000Y-94760000D03*
X106300000Y-97300000D03*
X106300000Y-99840000D03*
X106300000Y-102380000D03*
X106300000Y-104920000D03*
D12*
X148875000Y-97652500D03*
D13*
X148875000Y-95112500D03*
X148875000Y-92572500D03*
X148875000Y-90032500D03*
X148875000Y-87492500D03*
X148875000Y-84952500D03*
X136075000Y-84982500D03*
X136075000Y-87522500D03*
X136075000Y-90062500D03*
X136075000Y-92602500D03*
X136075000Y-95142500D03*
D12*
X136075000Y-97682500D03*
X148925000Y-101100000D03*
D13*
X146385000Y-101100000D03*
X143845000Y-101100000D03*
D14*
X120000000Y-108100000D03*
D15*
X160600000Y-98900000D03*
D16*
X158600000Y-98900000D03*
D12*
X135675000Y-101075000D03*
D13*
X138215000Y-101075000D03*
X140755000Y-101075000D03*
D17*
X148200000Y-107000000D03*
D18*
X143120000Y-107000000D03*
D19*
X109655000Y-84610000D03*
D20*
X109655000Y-87150000D03*
X109655000Y-89690000D03*
X109655000Y-92230000D03*
X109655000Y-94770000D03*
X109655000Y-97310000D03*
X109655000Y-99850000D03*
X109655000Y-102390000D03*
X132515000Y-102390000D03*
X132515000Y-99850000D03*
X132515000Y-97310000D03*
X132515000Y-94770000D03*
X132515000Y-92230000D03*
X132515000Y-89690000D03*
X132515000Y-87150000D03*
X132515000Y-84610000D03*
D12*
X138400000Y-105000000D03*
D13*
X135860000Y-105000000D03*
D12*
X138500000Y-109000000D03*
D13*
X135960000Y-109000000D03*
D14*
X160000000Y-108100000D03*
D21*
X166104000Y-103671000D03*
D22*
X163564000Y-103671000D03*
D21*
X155436000Y-103671000D03*
D22*
X152896000Y-103671000D03*
D21*
X155436000Y-85129000D03*
D22*
X152896000Y-85129000D03*
D21*
X166104000Y-85129000D03*
D22*
X163564000Y-85129000D03*
D14*
X120000000Y-88100000D03*
D23*
X143150000Y-87500000D02*
X143150000Y-92600000D01*
X137442989Y-98857011D02*
X143150000Y-93150000D01*
X143150000Y-93150000D02*
X143150000Y-92600000D01*
X148875000Y-97652500D02*
X148202500Y-97652500D01*
X148202500Y-97652500D02*
X143150000Y-92600000D01*
X148875000Y-92572500D02*
X146277500Y-92572500D01*
X146277500Y-92572500D02*
X146250000Y-92600000D01*
X148875000Y-90032500D02*
X146282500Y-90032500D01*
X146282500Y-90032500D02*
X146250000Y-90000000D01*
X148875000Y-87492500D02*
X146257500Y-87492500D01*
X146257500Y-87492500D02*
X146250000Y-87500000D01*
X145700000Y-92600000D02*
X145727500Y-92572500D01*
X145700000Y-90000000D02*
X145732500Y-90032500D01*
X145700000Y-87500000D02*
X145707500Y-87492500D01*
X135675000Y-101075000D02*
X140755000Y-101075000D01*
X106300000Y-84600000D02*
X109645000Y-84600000D01*
X109645000Y-84600000D02*
X109655000Y-84610000D01*
X106300000Y-87140000D02*
X109645000Y-87140000D01*
X109645000Y-87140000D02*
X109655000Y-87150000D01*
X106300000Y-89680000D02*
X109645000Y-89680000D01*
X109645000Y-89680000D02*
X109655000Y-89690000D01*
X106300000Y-92220000D02*
X109645000Y-92220000D01*
X109645000Y-92220000D02*
X109655000Y-92230000D01*
X106300000Y-94760000D02*
X109645000Y-94760000D01*
X109645000Y-94760000D02*
X109655000Y-94770000D01*
X109645000Y-97300000D02*
X109655000Y-97310000D01*
X106300000Y-97300000D02*
X109645000Y-97300000D01*
X106300000Y-99840000D02*
X109645000Y-99840000D01*
X109645000Y-99840000D02*
X109655000Y-99850000D01*
X135987500Y-94770000D02*
X136025000Y-94807500D01*
D24*
X143120000Y-107300000D02*
X136457919Y-107300000D01*
X153600489Y-109399511D02*
X159329000Y-103671000D01*
X159329000Y-103671000D02*
X166104000Y-103671000D01*
X136060000Y-107697919D02*
X136060000Y-108900000D01*
X160600000Y-98900000D02*
X160600000Y-102400000D01*
X143120000Y-107300000D02*
X145219511Y-109399511D01*
X136457919Y-107300000D02*
X136060000Y-107697919D01*
X145219511Y-109399511D02*
X153600489Y-109399511D01*
X160600000Y-102400000D02*
X159329000Y-103671000D01*
D23*
X132515000Y-101885000D02*
X132515000Y-102390000D01*
X132515000Y-101885978D02*
X135543967Y-98857011D01*
X136050000Y-105200000D02*
X133240000Y-102390000D01*
X151040500Y-97652500D02*
X163564000Y-85129000D01*
X148875000Y-97652500D02*
X151040500Y-97652500D01*
X135543967Y-98857011D02*
X137442989Y-98857011D01*
X166104000Y-85129000D02*
X163564000Y-85129000D01*
X133240000Y-102390000D02*
X132515000Y-102390000D01*
X132515000Y-102390000D02*
X132515000Y-101885978D01*
X106300000Y-102380000D02*
X109645000Y-102380000D01*
X109645000Y-102380000D02*
X109655000Y-102390000D01*
X135987500Y-97310000D02*
X136025000Y-97347500D01*
X136075000Y-85861490D02*
X136075000Y-84982500D01*
X132515000Y-89690000D02*
X132515000Y-89421490D01*
X132515000Y-89421490D02*
X136075000Y-85861490D01*
X133839520Y-90905480D02*
X133839520Y-89757980D01*
X133839520Y-89757980D02*
X136075000Y-87522500D01*
X132515000Y-92230000D02*
X133839520Y-90905480D01*
X133839520Y-92297980D02*
X136075000Y-90062500D01*
X132515000Y-94770000D02*
X133839520Y-93445480D01*
X133839520Y-93445480D02*
X133839520Y-92297980D01*
X135987500Y-89690000D02*
X136025000Y-89727500D01*
X133839520Y-94837980D02*
X136075000Y-92602500D01*
X133839520Y-95985480D02*
X133839520Y-94837980D01*
X135987500Y-92230000D02*
X136025000Y-92267500D01*
X132515000Y-97310000D02*
X133839520Y-95985480D01*
G04 #@! TA.AperFunction,Conductor*
G36*
X131175281Y-83728002D02*
G01*
X131221774Y-83781658D01*
X131231878Y-83851932D01*
X131210373Y-83906270D01*
X131177477Y-83953251D01*
X131175154Y-83958233D01*
X131175151Y-83958238D01*
X131087151Y-84146957D01*
X131080716Y-84160757D01*
X131079294Y-84166065D01*
X131079293Y-84166067D01*
X131037435Y-84322283D01*
X131021457Y-84381913D01*
X131001502Y-84610000D01*
X131021457Y-84838087D01*
X131022881Y-84843400D01*
X131022881Y-84843402D01*
X131078885Y-85052408D01*
X131080716Y-85059243D01*
X131083039Y-85064224D01*
X131083039Y-85064225D01*
X131175151Y-85261762D01*
X131175154Y-85261767D01*
X131177477Y-85266749D01*
X131308802Y-85454300D01*
X131470700Y-85616198D01*
X131475208Y-85619355D01*
X131475211Y-85619357D01*
X131531509Y-85658777D01*
X131658251Y-85747523D01*
X131663233Y-85749846D01*
X131663238Y-85749849D01*
X131697457Y-85765805D01*
X131750742Y-85812722D01*
X131770203Y-85880999D01*
X131749661Y-85948959D01*
X131697457Y-85994195D01*
X131663238Y-86010151D01*
X131663233Y-86010154D01*
X131658251Y-86012477D01*
X131647466Y-86020029D01*
X131475211Y-86140643D01*
X131475208Y-86140645D01*
X131470700Y-86143802D01*
X131308802Y-86305700D01*
X131305645Y-86310208D01*
X131305643Y-86310211D01*
X131254634Y-86383059D01*
X131177477Y-86493251D01*
X131175154Y-86498233D01*
X131175151Y-86498238D01*
X131109555Y-86638911D01*
X131080716Y-86700757D01*
X131079294Y-86706065D01*
X131079293Y-86706067D01*
X131034297Y-86873992D01*
X131021457Y-86921913D01*
X131001502Y-87150000D01*
X131021457Y-87378087D01*
X131022881Y-87383400D01*
X131022881Y-87383402D01*
X131078885Y-87592408D01*
X131080716Y-87599243D01*
X131083039Y-87604224D01*
X131083039Y-87604225D01*
X131175151Y-87801762D01*
X131175154Y-87801767D01*
X131177477Y-87806749D01*
X131308802Y-87994300D01*
X131470700Y-88156198D01*
X131475208Y-88159355D01*
X131475211Y-88159357D01*
X131525511Y-88194577D01*
X131658251Y-88287523D01*
X131663233Y-88289846D01*
X131663238Y-88289849D01*
X131697457Y-88305805D01*
X131750742Y-88352722D01*
X131770203Y-88420999D01*
X131749661Y-88488959D01*
X131697457Y-88534195D01*
X131663238Y-88550151D01*
X131663233Y-88550154D01*
X131658251Y-88552477D01*
X131585407Y-88603483D01*
X131475211Y-88680643D01*
X131475208Y-88680645D01*
X131470700Y-88683802D01*
X131308802Y-88845700D01*
X131305645Y-88850208D01*
X131305643Y-88850211D01*
X131270324Y-88900652D01*
X131177477Y-89033251D01*
X131175154Y-89038233D01*
X131175151Y-89038238D01*
X131111247Y-89175283D01*
X131080716Y-89240757D01*
X131079294Y-89246065D01*
X131079293Y-89246067D01*
X131034297Y-89413992D01*
X131021457Y-89461913D01*
X131001502Y-89690000D01*
X131021457Y-89918087D01*
X131022881Y-89923400D01*
X131022881Y-89923402D01*
X131078885Y-90132408D01*
X131080716Y-90139243D01*
X131083039Y-90144224D01*
X131083039Y-90144225D01*
X131175151Y-90341762D01*
X131175154Y-90341767D01*
X131177477Y-90346749D01*
X131308802Y-90534300D01*
X131470700Y-90696198D01*
X131475208Y-90699355D01*
X131475211Y-90699357D01*
X131525511Y-90734577D01*
X131658251Y-90827523D01*
X131663233Y-90829846D01*
X131663238Y-90829849D01*
X131697457Y-90845805D01*
X131750742Y-90892722D01*
X131770203Y-90960999D01*
X131749661Y-91028959D01*
X131697457Y-91074195D01*
X131663238Y-91090151D01*
X131663233Y-91090154D01*
X131658251Y-91092477D01*
X131637980Y-91106671D01*
X131475211Y-91220643D01*
X131475208Y-91220645D01*
X131470700Y-91223802D01*
X131308802Y-91385700D01*
X131305645Y-91390208D01*
X131305643Y-91390211D01*
X131267772Y-91444297D01*
X131177477Y-91573251D01*
X131175154Y-91578233D01*
X131175151Y-91578238D01*
X131109555Y-91718911D01*
X131080716Y-91780757D01*
X131079294Y-91786065D01*
X131079293Y-91786067D01*
X131034297Y-91953992D01*
X131021457Y-92001913D01*
X131001502Y-92230000D01*
X131021457Y-92458087D01*
X131022881Y-92463400D01*
X131022881Y-92463402D01*
X131078885Y-92672408D01*
X131080716Y-92679243D01*
X131083039Y-92684224D01*
X131083039Y-92684225D01*
X131175151Y-92881762D01*
X131175154Y-92881767D01*
X131177477Y-92886749D01*
X131308802Y-93074300D01*
X131470700Y-93236198D01*
X131475208Y-93239355D01*
X131475211Y-93239357D01*
X131531330Y-93278652D01*
X131658251Y-93367523D01*
X131663233Y-93369846D01*
X131663238Y-93369849D01*
X131697457Y-93385805D01*
X131750742Y-93432722D01*
X131770203Y-93500999D01*
X131749661Y-93568959D01*
X131697457Y-93614195D01*
X131663238Y-93630151D01*
X131663233Y-93630154D01*
X131658251Y-93632477D01*
X131647466Y-93640029D01*
X131475211Y-93760643D01*
X131475208Y-93760645D01*
X131470700Y-93763802D01*
X131308802Y-93925700D01*
X131305645Y-93930208D01*
X131305643Y-93930211D01*
X131268330Y-93983500D01*
X131177477Y-94113251D01*
X131175154Y-94118233D01*
X131175151Y-94118238D01*
X131101000Y-94277257D01*
X131080716Y-94320757D01*
X131079294Y-94326065D01*
X131079293Y-94326067D01*
X131022881Y-94536598D01*
X131021457Y-94541913D01*
X131001502Y-94770000D01*
X131021457Y-94998087D01*
X131022881Y-95003400D01*
X131022881Y-95003402D01*
X131048868Y-95100384D01*
X131080716Y-95219243D01*
X131083039Y-95224224D01*
X131083039Y-95224225D01*
X131175151Y-95421762D01*
X131175154Y-95421767D01*
X131177477Y-95426749D01*
X131308802Y-95614300D01*
X131470700Y-95776198D01*
X131475208Y-95779355D01*
X131475211Y-95779357D01*
X131506368Y-95801173D01*
X131658251Y-95907523D01*
X131663233Y-95909846D01*
X131663238Y-95909849D01*
X131697457Y-95925805D01*
X131750742Y-95972722D01*
X131770203Y-96040999D01*
X131749661Y-96108959D01*
X131697457Y-96154195D01*
X131663238Y-96170151D01*
X131663233Y-96170154D01*
X131658251Y-96172477D01*
X131579692Y-96227485D01*
X131475211Y-96300643D01*
X131475208Y-96300645D01*
X131470700Y-96303802D01*
X131308802Y-96465700D01*
X131305645Y-96470208D01*
X131305643Y-96470211D01*
X131297985Y-96481148D01*
X131177477Y-96653251D01*
X131175154Y-96658233D01*
X131175151Y-96658238D01*
X131083039Y-96855775D01*
X131080716Y-96860757D01*
X131079294Y-96866065D01*
X131079293Y-96866067D01*
X131022881Y-97076598D01*
X131021457Y-97081913D01*
X131001502Y-97310000D01*
X131021457Y-97538087D01*
X131022881Y-97543400D01*
X131022881Y-97543402D01*
X131078312Y-97750270D01*
X131080716Y-97759243D01*
X131083039Y-97764224D01*
X131083039Y-97764225D01*
X131175151Y-97961762D01*
X131175154Y-97961767D01*
X131177477Y-97966749D01*
X131308802Y-98154300D01*
X131470700Y-98316198D01*
X131475208Y-98319355D01*
X131475211Y-98319357D01*
X131506368Y-98341173D01*
X131658251Y-98447523D01*
X131663233Y-98449846D01*
X131663238Y-98449849D01*
X131698049Y-98466081D01*
X131751334Y-98512998D01*
X131770795Y-98581275D01*
X131750253Y-98649235D01*
X131698049Y-98694471D01*
X131663489Y-98710586D01*
X131653993Y-98716069D01*
X131475533Y-98841028D01*
X131467125Y-98848084D01*
X131313084Y-99002125D01*
X131306028Y-99010533D01*
X131181069Y-99188993D01*
X131175586Y-99198489D01*
X131083510Y-99395947D01*
X131079764Y-99406239D01*
X131033606Y-99578503D01*
X131033942Y-99592599D01*
X131041884Y-99596000D01*
X132643000Y-99596000D01*
X132711121Y-99616002D01*
X132757614Y-99669658D01*
X132769000Y-99722000D01*
X132769000Y-99978000D01*
X132748998Y-100046121D01*
X132695342Y-100092614D01*
X132643000Y-100104000D01*
X131047033Y-100104000D01*
X131033502Y-100107973D01*
X131032273Y-100116522D01*
X131079764Y-100293761D01*
X131083510Y-100304053D01*
X131175586Y-100501511D01*
X131181069Y-100511007D01*
X131306028Y-100689467D01*
X131313084Y-100697875D01*
X131467125Y-100851916D01*
X131475533Y-100858972D01*
X131653993Y-100983931D01*
X131663489Y-100989414D01*
X131698049Y-101005529D01*
X131751334Y-101052446D01*
X131770795Y-101120723D01*
X131750253Y-101188683D01*
X131698049Y-101233919D01*
X131663238Y-101250151D01*
X131663233Y-101250154D01*
X131658251Y-101252477D01*
X131612415Y-101284572D01*
X131475211Y-101380643D01*
X131475208Y-101380645D01*
X131470700Y-101383802D01*
X131308802Y-101545700D01*
X131305645Y-101550208D01*
X131305643Y-101550211D01*
X131250902Y-101628389D01*
X131177477Y-101733251D01*
X131175154Y-101738232D01*
X131175151Y-101738238D01*
X131095529Y-101908990D01*
X131080716Y-101940757D01*
X131079294Y-101946065D01*
X131079293Y-101946067D01*
X131052775Y-102045032D01*
X131021457Y-102161913D01*
X131001502Y-102390000D01*
X131021457Y-102618087D01*
X131022881Y-102623400D01*
X131022881Y-102623402D01*
X131060153Y-102762500D01*
X131080716Y-102839243D01*
X131083039Y-102844224D01*
X131083039Y-102844225D01*
X131175151Y-103041762D01*
X131175154Y-103041767D01*
X131177477Y-103046749D01*
X131308802Y-103234300D01*
X131470700Y-103396198D01*
X131475208Y-103399355D01*
X131475211Y-103399357D01*
X131506368Y-103421173D01*
X131658251Y-103527523D01*
X131663233Y-103529846D01*
X131663238Y-103529849D01*
X131833705Y-103609338D01*
X131865757Y-103624284D01*
X131871065Y-103625706D01*
X131871067Y-103625707D01*
X132081598Y-103682119D01*
X132081600Y-103682119D01*
X132086913Y-103683543D01*
X132186480Y-103692254D01*
X132255149Y-103698262D01*
X132255156Y-103698262D01*
X132257873Y-103698500D01*
X132772127Y-103698500D01*
X132774844Y-103698262D01*
X132774851Y-103698262D01*
X132843520Y-103692254D01*
X132943087Y-103683543D01*
X132948400Y-103682119D01*
X132948402Y-103682119D01*
X133158933Y-103625707D01*
X133158935Y-103625706D01*
X133164243Y-103624284D01*
X133169225Y-103621961D01*
X133169230Y-103621959D01*
X133366720Y-103529869D01*
X133436911Y-103519208D01*
X133501724Y-103548188D01*
X133509064Y-103554969D01*
X134507606Y-104553511D01*
X134541632Y-104615823D01*
X134539928Y-104676278D01*
X134520989Y-104744570D01*
X134497251Y-104966695D01*
X134497548Y-104971848D01*
X134497548Y-104971851D01*
X134509046Y-105171265D01*
X134510110Y-105189715D01*
X134511247Y-105194761D01*
X134511248Y-105194767D01*
X134526388Y-105261946D01*
X134559222Y-105407639D01*
X134578588Y-105455331D01*
X134636515Y-105597989D01*
X134643266Y-105614616D01*
X134759987Y-105805088D01*
X134906250Y-105973938D01*
X135078126Y-106116632D01*
X135271000Y-106229338D01*
X135275825Y-106231180D01*
X135275826Y-106231181D01*
X135331286Y-106252359D01*
X135479692Y-106309030D01*
X135484760Y-106310061D01*
X135484763Y-106310062D01*
X135592379Y-106331957D01*
X135698597Y-106353567D01*
X135703771Y-106353757D01*
X135703773Y-106353757D01*
X135822724Y-106358119D01*
X135890066Y-106380604D01*
X135934561Y-106435927D01*
X135942083Y-106506524D01*
X135910243Y-106569981D01*
X135902416Y-106577671D01*
X135870140Y-106606732D01*
X135865139Y-106611003D01*
X135849178Y-106623928D01*
X135834663Y-106638443D01*
X135829878Y-106642984D01*
X135779053Y-106688747D01*
X135775174Y-106694086D01*
X135775173Y-106694087D01*
X135770779Y-106700135D01*
X135757938Y-106715168D01*
X135475168Y-106997938D01*
X135460135Y-107010779D01*
X135448747Y-107019053D01*
X135425720Y-107044627D01*
X135402984Y-107069878D01*
X135398443Y-107074663D01*
X135383928Y-107089178D01*
X135381852Y-107091742D01*
X135371006Y-107105135D01*
X135366722Y-107110150D01*
X135325381Y-107156064D01*
X135325377Y-107156069D01*
X135320960Y-107160975D01*
X135317660Y-107166691D01*
X135317657Y-107166695D01*
X135313927Y-107173156D01*
X135302727Y-107189452D01*
X135293871Y-107200389D01*
X135262815Y-107261340D01*
X135259669Y-107267134D01*
X135225473Y-107326363D01*
X135223432Y-107332645D01*
X135223431Y-107332647D01*
X135221125Y-107339745D01*
X135213560Y-107358011D01*
X135207171Y-107370549D01*
X135205463Y-107376922D01*
X135205463Y-107376923D01*
X135189469Y-107436614D01*
X135187600Y-107442922D01*
X135166458Y-107507991D01*
X135165768Y-107514556D01*
X135165766Y-107514565D01*
X135164985Y-107521994D01*
X135161383Y-107541428D01*
X135159453Y-107548633D01*
X135157743Y-107555016D01*
X135157398Y-107561607D01*
X135157397Y-107561611D01*
X135154164Y-107623303D01*
X135153647Y-107629877D01*
X135151844Y-107647035D01*
X135151500Y-107650309D01*
X135151500Y-107670845D01*
X135151327Y-107677439D01*
X135148109Y-107738849D01*
X135147748Y-107745729D01*
X135148780Y-107752244D01*
X135149949Y-107759624D01*
X135151500Y-107779336D01*
X135151500Y-107845195D01*
X135131498Y-107913316D01*
X135101153Y-107945955D01*
X135059106Y-107977525D01*
X135059100Y-107977531D01*
X135054965Y-107980635D01*
X135051391Y-107984375D01*
X134928656Y-108112810D01*
X134900629Y-108142138D01*
X134774743Y-108326680D01*
X134732654Y-108417353D01*
X134703749Y-108479625D01*
X134680688Y-108529305D01*
X134620989Y-108744570D01*
X134597251Y-108966695D01*
X134597548Y-108971848D01*
X134597548Y-108971851D01*
X134603011Y-109066590D01*
X134610110Y-109189715D01*
X134611247Y-109194761D01*
X134611248Y-109194767D01*
X134625606Y-109258475D01*
X134659222Y-109407639D01*
X134743266Y-109614616D01*
X134859987Y-109805088D01*
X135006250Y-109973938D01*
X135178126Y-110116632D01*
X135371000Y-110229338D01*
X135375825Y-110231180D01*
X135375826Y-110231181D01*
X135414513Y-110245954D01*
X135579692Y-110309030D01*
X135584760Y-110310061D01*
X135584763Y-110310062D01*
X135692017Y-110331883D01*
X135798597Y-110353567D01*
X135803772Y-110353757D01*
X135803774Y-110353757D01*
X136016673Y-110361564D01*
X136016677Y-110361564D01*
X136021837Y-110361753D01*
X136026957Y-110361097D01*
X136026959Y-110361097D01*
X136238288Y-110334025D01*
X136238289Y-110334025D01*
X136243416Y-110333368D01*
X136316579Y-110311418D01*
X136452429Y-110270661D01*
X136452434Y-110270659D01*
X136457384Y-110269174D01*
X136657994Y-110170896D01*
X136839860Y-110041173D01*
X136870376Y-110010764D01*
X136948479Y-109932933D01*
X137010851Y-109899017D01*
X137081658Y-109904205D01*
X137138419Y-109946851D01*
X137155401Y-109977954D01*
X137196676Y-110088054D01*
X137205214Y-110103649D01*
X137281715Y-110205724D01*
X137294276Y-110218285D01*
X137396351Y-110294786D01*
X137411946Y-110303324D01*
X137532394Y-110348478D01*
X137547649Y-110352105D01*
X137598514Y-110357631D01*
X137605328Y-110358000D01*
X138227885Y-110358000D01*
X138243124Y-110353525D01*
X138244329Y-110352135D01*
X138246000Y-110344452D01*
X138246000Y-110339884D01*
X138754000Y-110339884D01*
X138758475Y-110355123D01*
X138759865Y-110356328D01*
X138767548Y-110357999D01*
X139394669Y-110357999D01*
X139401490Y-110357629D01*
X139452352Y-110352105D01*
X139467604Y-110348479D01*
X139588054Y-110303324D01*
X139603649Y-110294786D01*
X139705724Y-110218285D01*
X139718285Y-110205724D01*
X139794786Y-110103649D01*
X139803324Y-110088054D01*
X139848478Y-109967606D01*
X139852105Y-109952351D01*
X139857631Y-109901486D01*
X139858000Y-109894672D01*
X139858000Y-109272115D01*
X139853525Y-109256876D01*
X139852135Y-109255671D01*
X139844452Y-109254000D01*
X138772115Y-109254000D01*
X138756876Y-109258475D01*
X138755671Y-109259865D01*
X138754000Y-109267548D01*
X138754000Y-110339884D01*
X138246000Y-110339884D01*
X138246000Y-108872000D01*
X138266002Y-108803879D01*
X138319658Y-108757386D01*
X138372000Y-108746000D01*
X139839884Y-108746000D01*
X139855123Y-108741525D01*
X139856328Y-108740135D01*
X139857999Y-108732452D01*
X139857999Y-108334500D01*
X139878001Y-108266379D01*
X139931657Y-108219886D01*
X139983999Y-108208500D01*
X141448455Y-108208500D01*
X141516576Y-108228502D01*
X141541563Y-108251137D01*
X141542274Y-108250490D01*
X141726582Y-108453043D01*
X141729877Y-108455798D01*
X141729878Y-108455799D01*
X141758374Y-108479625D01*
X141936675Y-108628707D01*
X141940316Y-108630991D01*
X142165024Y-108771951D01*
X142165028Y-108771953D01*
X142168664Y-108774234D01*
X142293460Y-108830582D01*
X142414345Y-108885164D01*
X142414349Y-108885166D01*
X142418257Y-108886930D01*
X142422377Y-108888150D01*
X142422376Y-108888150D01*
X142676723Y-108963491D01*
X142676727Y-108963492D01*
X142680836Y-108964709D01*
X142685070Y-108965357D01*
X142685075Y-108965358D01*
X142947298Y-109005483D01*
X142947300Y-109005483D01*
X142951540Y-109006132D01*
X143090912Y-109008322D01*
X143221071Y-109010367D01*
X143221077Y-109010367D01*
X143225362Y-109010434D01*
X143370016Y-108992929D01*
X143450176Y-108983229D01*
X143520206Y-108994902D01*
X143554408Y-109019221D01*
X144519530Y-109984343D01*
X144532371Y-109999376D01*
X144540645Y-110010764D01*
X144545554Y-110015184D01*
X144591470Y-110056527D01*
X144596255Y-110061068D01*
X144610770Y-110075583D01*
X144613334Y-110077659D01*
X144626727Y-110088505D01*
X144631742Y-110092789D01*
X144677656Y-110134130D01*
X144677661Y-110134134D01*
X144682567Y-110138551D01*
X144688283Y-110141851D01*
X144688287Y-110141854D01*
X144694748Y-110145584D01*
X144711044Y-110156784D01*
X144721981Y-110165640D01*
X144727859Y-110168635D01*
X144727862Y-110168637D01*
X144782937Y-110196699D01*
X144788734Y-110199847D01*
X144820670Y-110218285D01*
X144847955Y-110234038D01*
X144861337Y-110238386D01*
X144879596Y-110245949D01*
X144892141Y-110252341D01*
X144898511Y-110254048D01*
X144898514Y-110254049D01*
X144937585Y-110264518D01*
X144958223Y-110270048D01*
X144964536Y-110271918D01*
X145029583Y-110293053D01*
X145043586Y-110294525D01*
X145063015Y-110298126D01*
X145076608Y-110301768D01*
X145083205Y-110302114D01*
X145083207Y-110302114D01*
X145144895Y-110305347D01*
X145151469Y-110305864D01*
X145168627Y-110307667D01*
X145168629Y-110307667D01*
X145171901Y-110308011D01*
X145192437Y-110308011D01*
X145199031Y-110308184D01*
X145260729Y-110311418D01*
X145260734Y-110311418D01*
X145267321Y-110311763D01*
X145281219Y-110309562D01*
X145300928Y-110308011D01*
X153519072Y-110308011D01*
X153538781Y-110309562D01*
X153552679Y-110311763D01*
X153559266Y-110311418D01*
X153559271Y-110311418D01*
X153620969Y-110308184D01*
X153627563Y-110308011D01*
X153648099Y-110308011D01*
X153651371Y-110307667D01*
X153651373Y-110307667D01*
X153668531Y-110305864D01*
X153675105Y-110305347D01*
X153736797Y-110302114D01*
X153736801Y-110302113D01*
X153743392Y-110301768D01*
X153749773Y-110300058D01*
X153749775Y-110300058D01*
X153756980Y-110298128D01*
X153776414Y-110294526D01*
X153783843Y-110293745D01*
X153783852Y-110293743D01*
X153790417Y-110293053D01*
X153855486Y-110271911D01*
X153861788Y-110270044D01*
X153927859Y-110252340D01*
X153940397Y-110245951D01*
X153958663Y-110238386D01*
X153965761Y-110236080D01*
X153965763Y-110236079D01*
X153972045Y-110234038D01*
X154031274Y-110199842D01*
X154037068Y-110196696D01*
X154098019Y-110165640D01*
X154108956Y-110156784D01*
X154125252Y-110145584D01*
X154131713Y-110141854D01*
X154131717Y-110141851D01*
X154137433Y-110138551D01*
X154142339Y-110134134D01*
X154142344Y-110134130D01*
X154188258Y-110092789D01*
X154193273Y-110088505D01*
X154206666Y-110077659D01*
X154209230Y-110075583D01*
X154223745Y-110061068D01*
X154228530Y-110056527D01*
X154274446Y-110015184D01*
X154279355Y-110010764D01*
X154287629Y-109999376D01*
X154300470Y-109984343D01*
X156483261Y-107801552D01*
X156545573Y-107767526D01*
X156616388Y-107772591D01*
X156673224Y-107815138D01*
X156698035Y-107881658D01*
X156698147Y-107897900D01*
X156687357Y-108085037D01*
X156687333Y-108091832D01*
X156705117Y-108442893D01*
X156705827Y-108449649D01*
X156761420Y-108796723D01*
X156762859Y-108803378D01*
X156855608Y-109142410D01*
X156857757Y-109148871D01*
X156986581Y-109475912D01*
X156989412Y-109482095D01*
X157152803Y-109793310D01*
X157156286Y-109799152D01*
X157352330Y-110090896D01*
X157356433Y-110096340D01*
X157476425Y-110238836D01*
X157489164Y-110247279D01*
X157499608Y-110241181D01*
X159639659Y-108101131D01*
X160364408Y-108101131D01*
X160364539Y-108102966D01*
X160368790Y-108109580D01*
X162499009Y-110239798D01*
X162512605Y-110247223D01*
X162522218Y-110240522D01*
X162622518Y-110123912D01*
X162626676Y-110118514D01*
X162825762Y-109828840D01*
X162829310Y-109823029D01*
X162995942Y-109513559D01*
X162998849Y-109507381D01*
X163131090Y-109181713D01*
X163133304Y-109175283D01*
X163229598Y-108837237D01*
X163231105Y-108830607D01*
X163290332Y-108484118D01*
X163291112Y-108477378D01*
X163312668Y-108124925D01*
X163312784Y-108121323D01*
X163312853Y-108101819D01*
X163312761Y-108098194D01*
X163293666Y-107745615D01*
X163292931Y-107738849D01*
X163236130Y-107391985D01*
X163234663Y-107385313D01*
X163140736Y-107046627D01*
X163138562Y-107040163D01*
X163008598Y-106713578D01*
X163005742Y-106707398D01*
X162841269Y-106396763D01*
X162837769Y-106390937D01*
X162640697Y-106099862D01*
X162636590Y-106094453D01*
X162523565Y-105961179D01*
X162510740Y-105952743D01*
X162500416Y-105958795D01*
X160372020Y-108087190D01*
X160364408Y-108101131D01*
X159639659Y-108101131D01*
X160000000Y-107740790D01*
X162142800Y-105597989D01*
X162150412Y-105584048D01*
X162150344Y-105583089D01*
X162145834Y-105576271D01*
X162144418Y-105575065D01*
X161864813Y-105362064D01*
X161859187Y-105358240D01*
X161558214Y-105176681D01*
X161552202Y-105173484D01*
X161233370Y-105025487D01*
X161227070Y-105022967D01*
X160894129Y-104910273D01*
X160887551Y-104908437D01*
X160544417Y-104832367D01*
X160537678Y-104831251D01*
X160533042Y-104830739D01*
X160467528Y-104803382D01*
X160427204Y-104744949D01*
X160424873Y-104673990D01*
X160461274Y-104613036D01*
X160524852Y-104581438D01*
X160546869Y-104579500D01*
X162623552Y-104579500D01*
X162691673Y-104599502D01*
X162712647Y-104616405D01*
X162744219Y-104647977D01*
X162748727Y-104651134D01*
X162748730Y-104651136D01*
X162751618Y-104653158D01*
X162926323Y-104775488D01*
X162931305Y-104777811D01*
X162931310Y-104777814D01*
X163121810Y-104866645D01*
X163127804Y-104869440D01*
X163133112Y-104870862D01*
X163133114Y-104870863D01*
X163180705Y-104883615D01*
X163342537Y-104926978D01*
X163564000Y-104946353D01*
X163785463Y-104926978D01*
X163947295Y-104883615D01*
X163994886Y-104870863D01*
X163994888Y-104870862D01*
X164000196Y-104869440D01*
X164006190Y-104866645D01*
X164196690Y-104777814D01*
X164196695Y-104777811D01*
X164201677Y-104775488D01*
X164376382Y-104653158D01*
X164379270Y-104651136D01*
X164379273Y-104651134D01*
X164383781Y-104647977D01*
X164415353Y-104616405D01*
X164477665Y-104582379D01*
X164504448Y-104579500D01*
X164766492Y-104579500D01*
X164834613Y-104599502D01*
X164881106Y-104653158D01*
X164884473Y-104661268D01*
X164888142Y-104671054D01*
X164891385Y-104679705D01*
X164896765Y-104686884D01*
X164896767Y-104686887D01*
X164960480Y-104771898D01*
X164978739Y-104796261D01*
X165095295Y-104883615D01*
X165231684Y-104934745D01*
X165293866Y-104941500D01*
X166914134Y-104941500D01*
X166976316Y-104934745D01*
X167112705Y-104883615D01*
X167229261Y-104796261D01*
X167265176Y-104748340D01*
X167322033Y-104705827D01*
X167392851Y-104700801D01*
X167455145Y-104734861D01*
X167489135Y-104797192D01*
X167492000Y-104823907D01*
X167492000Y-110566000D01*
X167471998Y-110634121D01*
X167418342Y-110680614D01*
X167366000Y-110692000D01*
X162269361Y-110692000D01*
X162201240Y-110671998D01*
X162162248Y-110632354D01*
X162144511Y-110603722D01*
X160012810Y-108472020D01*
X159998869Y-108464408D01*
X159997034Y-108464539D01*
X159990420Y-108468790D01*
X157856773Y-110602438D01*
X157843696Y-110626386D01*
X157793493Y-110676588D01*
X157733109Y-110692000D01*
X122269361Y-110692000D01*
X122201240Y-110671998D01*
X122162248Y-110632354D01*
X122144511Y-110603722D01*
X120012810Y-108472020D01*
X119998869Y-108464408D01*
X119997034Y-108464539D01*
X119990420Y-108468790D01*
X117856773Y-110602438D01*
X117843696Y-110626386D01*
X117793493Y-110676588D01*
X117733109Y-110692000D01*
X105634000Y-110692000D01*
X105565879Y-110671998D01*
X105519386Y-110618342D01*
X105508000Y-110566000D01*
X105508000Y-108091832D01*
X116687333Y-108091832D01*
X116705117Y-108442893D01*
X116705827Y-108449649D01*
X116761420Y-108796723D01*
X116762859Y-108803378D01*
X116855608Y-109142410D01*
X116857757Y-109148871D01*
X116986581Y-109475912D01*
X116989412Y-109482095D01*
X117152803Y-109793310D01*
X117156286Y-109799152D01*
X117352330Y-110090896D01*
X117356433Y-110096340D01*
X117476425Y-110238836D01*
X117489164Y-110247279D01*
X117499608Y-110241181D01*
X119627980Y-108112810D01*
X119634357Y-108101131D01*
X120364408Y-108101131D01*
X120364539Y-108102966D01*
X120368790Y-108109580D01*
X122499009Y-110239798D01*
X122512605Y-110247223D01*
X122522218Y-110240522D01*
X122622518Y-110123912D01*
X122626676Y-110118514D01*
X122825762Y-109828840D01*
X122829310Y-109823029D01*
X122995942Y-109513559D01*
X122998849Y-109507381D01*
X123131090Y-109181713D01*
X123133304Y-109175283D01*
X123229598Y-108837237D01*
X123231105Y-108830607D01*
X123290332Y-108484118D01*
X123291112Y-108477378D01*
X123312668Y-108124925D01*
X123312784Y-108121323D01*
X123312853Y-108101819D01*
X123312761Y-108098194D01*
X123293666Y-107745615D01*
X123292931Y-107738849D01*
X123236130Y-107391985D01*
X123234663Y-107385313D01*
X123140736Y-107046627D01*
X123138562Y-107040163D01*
X123008598Y-106713578D01*
X123005742Y-106707398D01*
X122841269Y-106396763D01*
X122837769Y-106390937D01*
X122640697Y-106099862D01*
X122636590Y-106094453D01*
X122523565Y-105961179D01*
X122510740Y-105952743D01*
X122500416Y-105958795D01*
X120372020Y-108087190D01*
X120364408Y-108101131D01*
X119634357Y-108101131D01*
X119635592Y-108098869D01*
X119635461Y-108097034D01*
X119631210Y-108090420D01*
X117500992Y-105960203D01*
X117487455Y-105952811D01*
X117477753Y-105959599D01*
X117370430Y-106085257D01*
X117366296Y-106090664D01*
X117168215Y-106381041D01*
X117164697Y-106386851D01*
X116999134Y-106696922D01*
X116996259Y-106703087D01*
X116865155Y-107029218D01*
X116862962Y-107035658D01*
X116767846Y-107374044D01*
X116766363Y-107380679D01*
X116708350Y-107727354D01*
X116707591Y-107734126D01*
X116687357Y-108085037D01*
X116687333Y-108091832D01*
X105508000Y-108091832D01*
X105508000Y-106249699D01*
X105528002Y-106181578D01*
X105581658Y-106135085D01*
X105651932Y-106124981D01*
X105697572Y-106140912D01*
X105706758Y-106146280D01*
X105716042Y-106150729D01*
X105915001Y-106226703D01*
X105924899Y-106229579D01*
X106028250Y-106250606D01*
X106042299Y-106249410D01*
X106046000Y-106239065D01*
X106046000Y-106238517D01*
X106554000Y-106238517D01*
X106558064Y-106252359D01*
X106571478Y-106254393D01*
X106578184Y-106253534D01*
X106588262Y-106251392D01*
X106792255Y-106190191D01*
X106801842Y-106186433D01*
X106993095Y-106092739D01*
X107001945Y-106087464D01*
X107175328Y-105963792D01*
X107183200Y-105957139D01*
X107334052Y-105806812D01*
X107340730Y-105798965D01*
X107465003Y-105626020D01*
X107470313Y-105617183D01*
X107485299Y-105586862D01*
X117849950Y-105586862D01*
X117849986Y-105587704D01*
X117855037Y-105595826D01*
X119987190Y-107727980D01*
X120001131Y-107735592D01*
X120002966Y-107735461D01*
X120009580Y-107731210D01*
X122142798Y-105597991D01*
X122150412Y-105584047D01*
X122150344Y-105583089D01*
X122145836Y-105576272D01*
X122144418Y-105575065D01*
X121864813Y-105362064D01*
X121859187Y-105358240D01*
X121558214Y-105176681D01*
X121552202Y-105173484D01*
X121233370Y-105025487D01*
X121227070Y-105022967D01*
X120894129Y-104910273D01*
X120887551Y-104908437D01*
X120544417Y-104832367D01*
X120537678Y-104831251D01*
X120188310Y-104792680D01*
X120181529Y-104792301D01*
X119830015Y-104791687D01*
X119823242Y-104792042D01*
X119473720Y-104829395D01*
X119467010Y-104830482D01*
X119123586Y-104905361D01*
X119117011Y-104907172D01*
X118783683Y-105018702D01*
X118777361Y-105021205D01*
X118458034Y-105168079D01*
X118451991Y-105171265D01*
X118150401Y-105351763D01*
X118144755Y-105355571D01*
X117864408Y-105567596D01*
X117859211Y-105571987D01*
X117857972Y-105573155D01*
X117849950Y-105586862D01*
X107485299Y-105586862D01*
X107564670Y-105426267D01*
X107568469Y-105416672D01*
X107630377Y-105212910D01*
X107632555Y-105202837D01*
X107633986Y-105191962D01*
X107631775Y-105177778D01*
X107618617Y-105174000D01*
X106572115Y-105174000D01*
X106556876Y-105178475D01*
X106555671Y-105179865D01*
X106554000Y-105187548D01*
X106554000Y-106238517D01*
X106046000Y-106238517D01*
X106046000Y-104792000D01*
X106066002Y-104723879D01*
X106119658Y-104677386D01*
X106172000Y-104666000D01*
X107618344Y-104666000D01*
X107631875Y-104662027D01*
X107633180Y-104652947D01*
X107591214Y-104485875D01*
X107587894Y-104476124D01*
X107502972Y-104280814D01*
X107498105Y-104271739D01*
X107382426Y-104092926D01*
X107376136Y-104084757D01*
X107232806Y-103927240D01*
X107225273Y-103920215D01*
X107058139Y-103788222D01*
X107049556Y-103782520D01*
X107012602Y-103762120D01*
X106962631Y-103711687D01*
X106947859Y-103642245D01*
X106972975Y-103575839D01*
X107000327Y-103549232D01*
X107042419Y-103519208D01*
X107179860Y-103421173D01*
X107185725Y-103415329D01*
X107294842Y-103306592D01*
X107338096Y-103263489D01*
X107468453Y-103082077D01*
X107470746Y-103077437D01*
X107472446Y-103074608D01*
X107524674Y-103026518D01*
X107580451Y-103013500D01*
X108228604Y-103013500D01*
X108296725Y-103033502D01*
X108331817Y-103067229D01*
X108345079Y-103086168D01*
X108448802Y-103234300D01*
X108610700Y-103396198D01*
X108615208Y-103399355D01*
X108615211Y-103399357D01*
X108646368Y-103421173D01*
X108798251Y-103527523D01*
X108803233Y-103529846D01*
X108803238Y-103529849D01*
X108973705Y-103609338D01*
X109005757Y-103624284D01*
X109011065Y-103625706D01*
X109011067Y-103625707D01*
X109221598Y-103682119D01*
X109221600Y-103682119D01*
X109226913Y-103683543D01*
X109326480Y-103692254D01*
X109395149Y-103698262D01*
X109395156Y-103698262D01*
X109397873Y-103698500D01*
X109912127Y-103698500D01*
X109914844Y-103698262D01*
X109914851Y-103698262D01*
X109983520Y-103692254D01*
X110083087Y-103683543D01*
X110088400Y-103682119D01*
X110088402Y-103682119D01*
X110298933Y-103625707D01*
X110298935Y-103625706D01*
X110304243Y-103624284D01*
X110336295Y-103609338D01*
X110506762Y-103529849D01*
X110506767Y-103529846D01*
X110511749Y-103527523D01*
X110663632Y-103421173D01*
X110694789Y-103399357D01*
X110694792Y-103399355D01*
X110699300Y-103396198D01*
X110861198Y-103234300D01*
X110992523Y-103046749D01*
X110994846Y-103041767D01*
X110994849Y-103041762D01*
X111086961Y-102844225D01*
X111086961Y-102844224D01*
X111089284Y-102839243D01*
X111109848Y-102762500D01*
X111147119Y-102623402D01*
X111147119Y-102623400D01*
X111148543Y-102618087D01*
X111168498Y-102390000D01*
X111148543Y-102161913D01*
X111117225Y-102045032D01*
X111090707Y-101946067D01*
X111090706Y-101946065D01*
X111089284Y-101940757D01*
X111074471Y-101908990D01*
X110994849Y-101738238D01*
X110994846Y-101738232D01*
X110992523Y-101733251D01*
X110919098Y-101628389D01*
X110864357Y-101550211D01*
X110864355Y-101550208D01*
X110861198Y-101545700D01*
X110699300Y-101383802D01*
X110694792Y-101380645D01*
X110694789Y-101380643D01*
X110557585Y-101284572D01*
X110511749Y-101252477D01*
X110506767Y-101250154D01*
X110506762Y-101250151D01*
X110472543Y-101234195D01*
X110419258Y-101187278D01*
X110399797Y-101119001D01*
X110420339Y-101051041D01*
X110472543Y-101005805D01*
X110506762Y-100989849D01*
X110506767Y-100989846D01*
X110511749Y-100987523D01*
X110663632Y-100881173D01*
X110694789Y-100859357D01*
X110694792Y-100859355D01*
X110699300Y-100856198D01*
X110861198Y-100694300D01*
X110905554Y-100630954D01*
X110973016Y-100534608D01*
X110992523Y-100506749D01*
X110994846Y-100501767D01*
X110994849Y-100501762D01*
X111086961Y-100304225D01*
X111086961Y-100304224D01*
X111089284Y-100299243D01*
X111096419Y-100272617D01*
X111147119Y-100083402D01*
X111147119Y-100083400D01*
X111148543Y-100078087D01*
X111168498Y-99850000D01*
X111148543Y-99621913D01*
X111113857Y-99492464D01*
X111090707Y-99406067D01*
X111090706Y-99406065D01*
X111089284Y-99400757D01*
X111064325Y-99347232D01*
X110994849Y-99198238D01*
X110994846Y-99198233D01*
X110992523Y-99193251D01*
X110919098Y-99088389D01*
X110864357Y-99010211D01*
X110864355Y-99010208D01*
X110861198Y-99005700D01*
X110699300Y-98843802D01*
X110694792Y-98840645D01*
X110694789Y-98840643D01*
X110616611Y-98785902D01*
X110511749Y-98712477D01*
X110506767Y-98710154D01*
X110506762Y-98710151D01*
X110472543Y-98694195D01*
X110419258Y-98647278D01*
X110399797Y-98579001D01*
X110420339Y-98511041D01*
X110472543Y-98465805D01*
X110506762Y-98449849D01*
X110506767Y-98449846D01*
X110511749Y-98447523D01*
X110663632Y-98341173D01*
X110694789Y-98319357D01*
X110694792Y-98319355D01*
X110699300Y-98316198D01*
X110861198Y-98154300D01*
X110992523Y-97966749D01*
X110994846Y-97961767D01*
X110994849Y-97961762D01*
X111086961Y-97764225D01*
X111086961Y-97764224D01*
X111089284Y-97759243D01*
X111091689Y-97750270D01*
X111147119Y-97543402D01*
X111147119Y-97543400D01*
X111148543Y-97538087D01*
X111168498Y-97310000D01*
X111148543Y-97081913D01*
X111147119Y-97076598D01*
X111090707Y-96866067D01*
X111090706Y-96866065D01*
X111089284Y-96860757D01*
X111086961Y-96855775D01*
X110994849Y-96658238D01*
X110994846Y-96658233D01*
X110992523Y-96653251D01*
X110872015Y-96481148D01*
X110864357Y-96470211D01*
X110864355Y-96470208D01*
X110861198Y-96465700D01*
X110699300Y-96303802D01*
X110694792Y-96300645D01*
X110694789Y-96300643D01*
X110590308Y-96227485D01*
X110511749Y-96172477D01*
X110506767Y-96170154D01*
X110506762Y-96170151D01*
X110472543Y-96154195D01*
X110419258Y-96107278D01*
X110399797Y-96039001D01*
X110420339Y-95971041D01*
X110472543Y-95925805D01*
X110506762Y-95909849D01*
X110506767Y-95909846D01*
X110511749Y-95907523D01*
X110663632Y-95801173D01*
X110694789Y-95779357D01*
X110694792Y-95779355D01*
X110699300Y-95776198D01*
X110861198Y-95614300D01*
X110992523Y-95426749D01*
X110994846Y-95421767D01*
X110994849Y-95421762D01*
X111086961Y-95224225D01*
X111086961Y-95224224D01*
X111089284Y-95219243D01*
X111121133Y-95100384D01*
X111147119Y-95003402D01*
X111147119Y-95003400D01*
X111148543Y-94998087D01*
X111168498Y-94770000D01*
X111148543Y-94541913D01*
X111147119Y-94536598D01*
X111090707Y-94326067D01*
X111090706Y-94326065D01*
X111089284Y-94320757D01*
X111069000Y-94277257D01*
X110994849Y-94118238D01*
X110994846Y-94118233D01*
X110992523Y-94113251D01*
X110901670Y-93983500D01*
X110864357Y-93930211D01*
X110864355Y-93930208D01*
X110861198Y-93925700D01*
X110699300Y-93763802D01*
X110694792Y-93760645D01*
X110694789Y-93760643D01*
X110522534Y-93640029D01*
X110511749Y-93632477D01*
X110506767Y-93630154D01*
X110506762Y-93630151D01*
X110472543Y-93614195D01*
X110419258Y-93567278D01*
X110399797Y-93499001D01*
X110420339Y-93431041D01*
X110472543Y-93385805D01*
X110506762Y-93369849D01*
X110506767Y-93369846D01*
X110511749Y-93367523D01*
X110638670Y-93278652D01*
X110694789Y-93239357D01*
X110694792Y-93239355D01*
X110699300Y-93236198D01*
X110861198Y-93074300D01*
X110992523Y-92886749D01*
X110994846Y-92881767D01*
X110994849Y-92881762D01*
X111086961Y-92684225D01*
X111086961Y-92684224D01*
X111089284Y-92679243D01*
X111091116Y-92672408D01*
X111147119Y-92463402D01*
X111147119Y-92463400D01*
X111148543Y-92458087D01*
X111168498Y-92230000D01*
X111148543Y-92001913D01*
X111135703Y-91953992D01*
X111090707Y-91786067D01*
X111090706Y-91786065D01*
X111089284Y-91780757D01*
X111060445Y-91718911D01*
X110994849Y-91578238D01*
X110994846Y-91578233D01*
X110992523Y-91573251D01*
X110902228Y-91444297D01*
X110864357Y-91390211D01*
X110864355Y-91390208D01*
X110861198Y-91385700D01*
X110699300Y-91223802D01*
X110694792Y-91220645D01*
X110694789Y-91220643D01*
X110532020Y-91106671D01*
X110511749Y-91092477D01*
X110506767Y-91090154D01*
X110506762Y-91090151D01*
X110472543Y-91074195D01*
X110419258Y-91027278D01*
X110399797Y-90959001D01*
X110420339Y-90891041D01*
X110472543Y-90845805D01*
X110506762Y-90829849D01*
X110506767Y-90829846D01*
X110511749Y-90827523D01*
X110644489Y-90734577D01*
X110694789Y-90699357D01*
X110694792Y-90699355D01*
X110699300Y-90696198D01*
X110779117Y-90616381D01*
X117849160Y-90616381D01*
X117849237Y-90617470D01*
X117851698Y-90621206D01*
X118125632Y-90831404D01*
X118131262Y-90835259D01*
X118431591Y-91017862D01*
X118437593Y-91021080D01*
X118755897Y-91170184D01*
X118762202Y-91172732D01*
X119094743Y-91286587D01*
X119101313Y-91288446D01*
X119444183Y-91365714D01*
X119450912Y-91366853D01*
X119800143Y-91406643D01*
X119806933Y-91407046D01*
X120158419Y-91408886D01*
X120165220Y-91408554D01*
X120514853Y-91372423D01*
X120521581Y-91371357D01*
X120865274Y-91297676D01*
X120871822Y-91295897D01*
X121205549Y-91185527D01*
X121211891Y-91183041D01*
X121531718Y-91037288D01*
X121537777Y-91034121D01*
X121839995Y-90854676D01*
X121845659Y-90850884D01*
X122126732Y-90639849D01*
X122131958Y-90635464D01*
X122141613Y-90626428D01*
X122149682Y-90612750D01*
X122149654Y-90612024D01*
X122144512Y-90603723D01*
X120012810Y-88472020D01*
X119998869Y-88464408D01*
X119997034Y-88464539D01*
X119990420Y-88468790D01*
X117856774Y-90602437D01*
X117849160Y-90616381D01*
X110779117Y-90616381D01*
X110861198Y-90534300D01*
X110992523Y-90346749D01*
X110994846Y-90341767D01*
X110994849Y-90341762D01*
X111086961Y-90144225D01*
X111086961Y-90144224D01*
X111089284Y-90139243D01*
X111091116Y-90132408D01*
X111147119Y-89923402D01*
X111147119Y-89923400D01*
X111148543Y-89918087D01*
X111168498Y-89690000D01*
X111148543Y-89461913D01*
X111135703Y-89413992D01*
X111090707Y-89246067D01*
X111090706Y-89246065D01*
X111089284Y-89240757D01*
X111058753Y-89175283D01*
X110994849Y-89038238D01*
X110994846Y-89038233D01*
X110992523Y-89033251D01*
X110899676Y-88900652D01*
X110864357Y-88850211D01*
X110864355Y-88850208D01*
X110861198Y-88845700D01*
X110699300Y-88683802D01*
X110694792Y-88680645D01*
X110694789Y-88680643D01*
X110584593Y-88603483D01*
X110511749Y-88552477D01*
X110506767Y-88550154D01*
X110506762Y-88550151D01*
X110472543Y-88534195D01*
X110419258Y-88487278D01*
X110399797Y-88419001D01*
X110420339Y-88351041D01*
X110472543Y-88305805D01*
X110506762Y-88289849D01*
X110506767Y-88289846D01*
X110511749Y-88287523D01*
X110644489Y-88194577D01*
X110694789Y-88159357D01*
X110694792Y-88159355D01*
X110699300Y-88156198D01*
X110763666Y-88091832D01*
X116687333Y-88091832D01*
X116705117Y-88442893D01*
X116705827Y-88449649D01*
X116761420Y-88796723D01*
X116762859Y-88803378D01*
X116855608Y-89142410D01*
X116857757Y-89148871D01*
X116986581Y-89475912D01*
X116989412Y-89482095D01*
X117152803Y-89793310D01*
X117156286Y-89799152D01*
X117352330Y-90090896D01*
X117356433Y-90096340D01*
X117476425Y-90238836D01*
X117489164Y-90247279D01*
X117499608Y-90241181D01*
X119627980Y-88112810D01*
X119634357Y-88101131D01*
X120364408Y-88101131D01*
X120364539Y-88102966D01*
X120368790Y-88109580D01*
X122499009Y-90239798D01*
X122512605Y-90247223D01*
X122522218Y-90240522D01*
X122622518Y-90123912D01*
X122626676Y-90118514D01*
X122825762Y-89828840D01*
X122829310Y-89823029D01*
X122995942Y-89513559D01*
X122998849Y-89507381D01*
X123131090Y-89181713D01*
X123133304Y-89175283D01*
X123229598Y-88837237D01*
X123231105Y-88830607D01*
X123290332Y-88484118D01*
X123291112Y-88477378D01*
X123312668Y-88124925D01*
X123312784Y-88121323D01*
X123312853Y-88101819D01*
X123312761Y-88098194D01*
X123293666Y-87745615D01*
X123292931Y-87738849D01*
X123236130Y-87391985D01*
X123234663Y-87385313D01*
X123140736Y-87046627D01*
X123138562Y-87040163D01*
X123008598Y-86713578D01*
X123005742Y-86707398D01*
X122841269Y-86396763D01*
X122837769Y-86390937D01*
X122640697Y-86099862D01*
X122636590Y-86094453D01*
X122523565Y-85961179D01*
X122510740Y-85952743D01*
X122500416Y-85958795D01*
X120372020Y-88087190D01*
X120364408Y-88101131D01*
X119634357Y-88101131D01*
X119635592Y-88098869D01*
X119635461Y-88097034D01*
X119631210Y-88090420D01*
X117500992Y-85960203D01*
X117487455Y-85952811D01*
X117477753Y-85959599D01*
X117370430Y-86085257D01*
X117366296Y-86090664D01*
X117168215Y-86381041D01*
X117164697Y-86386851D01*
X116999134Y-86696922D01*
X116996259Y-86703087D01*
X116865155Y-87029218D01*
X116862962Y-87035658D01*
X116767846Y-87374044D01*
X116766363Y-87380679D01*
X116708350Y-87727354D01*
X116707591Y-87734126D01*
X116687357Y-88085037D01*
X116687333Y-88091832D01*
X110763666Y-88091832D01*
X110861198Y-87994300D01*
X110992523Y-87806749D01*
X110994846Y-87801767D01*
X110994849Y-87801762D01*
X111086961Y-87604225D01*
X111086961Y-87604224D01*
X111089284Y-87599243D01*
X111091116Y-87592408D01*
X111147119Y-87383402D01*
X111147119Y-87383400D01*
X111148543Y-87378087D01*
X111168498Y-87150000D01*
X111148543Y-86921913D01*
X111135703Y-86873992D01*
X111090707Y-86706067D01*
X111090706Y-86706065D01*
X111089284Y-86700757D01*
X111060445Y-86638911D01*
X110994849Y-86498238D01*
X110994846Y-86498233D01*
X110992523Y-86493251D01*
X110915366Y-86383059D01*
X110864357Y-86310211D01*
X110864355Y-86310208D01*
X110861198Y-86305700D01*
X110832365Y-86276867D01*
X110798339Y-86214555D01*
X110803404Y-86143740D01*
X110845951Y-86086904D01*
X110877232Y-86069790D01*
X110893293Y-86063769D01*
X110893296Y-86063767D01*
X110901705Y-86060615D01*
X111018261Y-85973261D01*
X111105615Y-85856705D01*
X111156745Y-85720316D01*
X111163500Y-85658134D01*
X111163500Y-85586862D01*
X117849950Y-85586862D01*
X117849986Y-85587704D01*
X117855037Y-85595826D01*
X119987190Y-87727980D01*
X120001131Y-87735592D01*
X120002966Y-87735461D01*
X120009580Y-87731210D01*
X122142798Y-85597991D01*
X122150412Y-85584047D01*
X122150344Y-85583089D01*
X122145836Y-85576272D01*
X122144418Y-85575065D01*
X121864813Y-85362064D01*
X121859187Y-85358240D01*
X121558214Y-85176681D01*
X121552202Y-85173484D01*
X121233370Y-85025487D01*
X121227070Y-85022967D01*
X120894129Y-84910273D01*
X120887551Y-84908437D01*
X120544417Y-84832367D01*
X120537678Y-84831251D01*
X120188310Y-84792680D01*
X120181529Y-84792301D01*
X119830015Y-84791687D01*
X119823242Y-84792042D01*
X119473720Y-84829395D01*
X119467010Y-84830482D01*
X119123586Y-84905361D01*
X119117011Y-84907172D01*
X118783683Y-85018702D01*
X118777361Y-85021205D01*
X118458034Y-85168079D01*
X118451991Y-85171265D01*
X118150401Y-85351763D01*
X118144755Y-85355571D01*
X117864408Y-85567596D01*
X117859211Y-85571987D01*
X117857972Y-85573155D01*
X117849950Y-85586862D01*
X111163500Y-85586862D01*
X111163500Y-83834000D01*
X111183502Y-83765879D01*
X111237158Y-83719386D01*
X111289500Y-83708000D01*
X131107160Y-83708000D01*
X131175281Y-83728002D01*
G37*
G04 #@! TD.AperFunction*
G04 #@! TA.AperFunction,Conductor*
G36*
X164793724Y-85838759D02*
G01*
X164829709Y-85899960D01*
X164833500Y-85930636D01*
X164833500Y-85939134D01*
X164840255Y-86001316D01*
X164891385Y-86137705D01*
X164978739Y-86254261D01*
X165095295Y-86341615D01*
X165231684Y-86392745D01*
X165293866Y-86399500D01*
X166914134Y-86399500D01*
X166976316Y-86392745D01*
X167112705Y-86341615D01*
X167229261Y-86254261D01*
X167265176Y-86206340D01*
X167322033Y-86163827D01*
X167392851Y-86158801D01*
X167455145Y-86192861D01*
X167489135Y-86255192D01*
X167492000Y-86281907D01*
X167492000Y-102518093D01*
X167471998Y-102586214D01*
X167418342Y-102632707D01*
X167348068Y-102642811D01*
X167283488Y-102613317D01*
X167265180Y-102593665D01*
X167229261Y-102545739D01*
X167112705Y-102458385D01*
X166976316Y-102407255D01*
X166914134Y-102400500D01*
X165293866Y-102400500D01*
X165231684Y-102407255D01*
X165095295Y-102458385D01*
X164978739Y-102545739D01*
X164973358Y-102552919D01*
X164896767Y-102655113D01*
X164896765Y-102655116D01*
X164891385Y-102662295D01*
X164888236Y-102670696D01*
X164888234Y-102670699D01*
X164884473Y-102680732D01*
X164841831Y-102737496D01*
X164775269Y-102762194D01*
X164766492Y-102762500D01*
X164504448Y-102762500D01*
X164436327Y-102742498D01*
X164415353Y-102725595D01*
X164383781Y-102694023D01*
X164379273Y-102690866D01*
X164379270Y-102690864D01*
X164296213Y-102632707D01*
X164201677Y-102566512D01*
X164196695Y-102564189D01*
X164196690Y-102564186D01*
X164005178Y-102474883D01*
X164005177Y-102474882D01*
X164000196Y-102472560D01*
X163994888Y-102471138D01*
X163994886Y-102471137D01*
X163907082Y-102447610D01*
X163785463Y-102415022D01*
X163564000Y-102395647D01*
X163342537Y-102415022D01*
X163220918Y-102447610D01*
X163133114Y-102471137D01*
X163133112Y-102471138D01*
X163127804Y-102472560D01*
X163122823Y-102474882D01*
X163122822Y-102474883D01*
X162931311Y-102564186D01*
X162931306Y-102564189D01*
X162926324Y-102566512D01*
X162921817Y-102569668D01*
X162921815Y-102569669D01*
X162748730Y-102690864D01*
X162748727Y-102690866D01*
X162744219Y-102694023D01*
X162712647Y-102725595D01*
X162650335Y-102759621D01*
X162623552Y-102762500D01*
X161610894Y-102762500D01*
X161542773Y-102742498D01*
X161496280Y-102688842D01*
X161486176Y-102618568D01*
X161491058Y-102597572D01*
X161493542Y-102589928D01*
X161495012Y-102575939D01*
X161498617Y-102556486D01*
X161499478Y-102553276D01*
X161502257Y-102542904D01*
X161505836Y-102474615D01*
X161506353Y-102468040D01*
X161508156Y-102450882D01*
X161508500Y-102447610D01*
X161508500Y-102427075D01*
X161508673Y-102420481D01*
X161511907Y-102358783D01*
X161511907Y-102358778D01*
X161512252Y-102352191D01*
X161510051Y-102338293D01*
X161508500Y-102318584D01*
X161508500Y-100289754D01*
X161528502Y-100221633D01*
X161582158Y-100175140D01*
X161590270Y-100171772D01*
X161638297Y-100153767D01*
X161646705Y-100150615D01*
X161763261Y-100063261D01*
X161850615Y-99946705D01*
X161901745Y-99810316D01*
X161908500Y-99748134D01*
X161908500Y-98051866D01*
X161901745Y-97989684D01*
X161850615Y-97853295D01*
X161763261Y-97736739D01*
X161646705Y-97649385D01*
X161510316Y-97598255D01*
X161448134Y-97591500D01*
X159751866Y-97591500D01*
X159689684Y-97598255D01*
X159553295Y-97649385D01*
X159527777Y-97668510D01*
X159443922Y-97731355D01*
X159443919Y-97731358D01*
X159436739Y-97736739D01*
X159431358Y-97743919D01*
X159425007Y-97750270D01*
X159422865Y-97748128D01*
X159378154Y-97781564D01*
X159307336Y-97786594D01*
X159265965Y-97768477D01*
X159265768Y-97768818D01*
X159262702Y-97767048D01*
X159261910Y-97766701D01*
X159261011Y-97766071D01*
X159251511Y-97760586D01*
X159054053Y-97668510D01*
X159043761Y-97664764D01*
X158833312Y-97608375D01*
X158822519Y-97606472D01*
X158605475Y-97587483D01*
X158594525Y-97587483D01*
X158377481Y-97606472D01*
X158366688Y-97608375D01*
X158156239Y-97664764D01*
X158145947Y-97668510D01*
X157948489Y-97760586D01*
X157938994Y-97766069D01*
X157886952Y-97802509D01*
X157878576Y-97812988D01*
X157885644Y-97826434D01*
X158870115Y-98810905D01*
X158904141Y-98873217D01*
X158899076Y-98944032D01*
X158870115Y-98989095D01*
X157884923Y-99974287D01*
X157878493Y-99986062D01*
X157887789Y-99998077D01*
X157938994Y-100033931D01*
X157948489Y-100039414D01*
X158145947Y-100131490D01*
X158156239Y-100135236D01*
X158366688Y-100191625D01*
X158377481Y-100193528D01*
X158594525Y-100212517D01*
X158605475Y-100212517D01*
X158822519Y-100193528D01*
X158833312Y-100191625D01*
X159043761Y-100135236D01*
X159054053Y-100131490D01*
X159251511Y-100039414D01*
X159261011Y-100033929D01*
X159261910Y-100033299D01*
X159262370Y-100033144D01*
X159265768Y-100031182D01*
X159266162Y-100031865D01*
X159329184Y-100010612D01*
X159398044Y-100027898D01*
X159423803Y-100050934D01*
X159425007Y-100049730D01*
X159431358Y-100056081D01*
X159436739Y-100063261D01*
X159443919Y-100068642D01*
X159443922Y-100068645D01*
X159491097Y-100104000D01*
X159553295Y-100150615D01*
X159561703Y-100153767D01*
X159609730Y-100171772D01*
X159666495Y-100214414D01*
X159691194Y-100280976D01*
X159691500Y-100289754D01*
X159691500Y-101971497D01*
X159671498Y-102039618D01*
X159654595Y-102060592D01*
X158705744Y-103009443D01*
X158700959Y-103013984D01*
X158650134Y-103059747D01*
X158646255Y-103065086D01*
X158646254Y-103065087D01*
X158641860Y-103071135D01*
X158629019Y-103086168D01*
X153261081Y-108454106D01*
X153198769Y-108488132D01*
X153171986Y-108491011D01*
X150334000Y-108491011D01*
X150265879Y-108471009D01*
X150219386Y-108417353D01*
X150208000Y-108365011D01*
X150208000Y-107272115D01*
X150203525Y-107256876D01*
X150202135Y-107255671D01*
X150194452Y-107254000D01*
X146210116Y-107254000D01*
X146194877Y-107258475D01*
X146193672Y-107259865D01*
X146192001Y-107267548D01*
X146192001Y-108365011D01*
X146171999Y-108433132D01*
X146118343Y-108479625D01*
X146066001Y-108491011D01*
X145648014Y-108491011D01*
X145579893Y-108471009D01*
X145558919Y-108454106D01*
X145005912Y-107901099D01*
X144971886Y-107838787D01*
X144977141Y-107767466D01*
X145045751Y-107585895D01*
X145045752Y-107585891D01*
X145047269Y-107581877D01*
X145079810Y-107439793D01*
X145107449Y-107319117D01*
X145107450Y-107319113D01*
X145108407Y-107314933D01*
X145112229Y-107272115D01*
X145132531Y-107044627D01*
X145132531Y-107044625D01*
X145132751Y-107042161D01*
X145133193Y-107000000D01*
X145133024Y-106997519D01*
X145114859Y-106731055D01*
X145114858Y-106731049D01*
X145114642Y-106727885D01*
X146192000Y-106727885D01*
X146196475Y-106743124D01*
X146197865Y-106744329D01*
X146205548Y-106746000D01*
X147927885Y-106746000D01*
X147943124Y-106741525D01*
X147944329Y-106740135D01*
X147946000Y-106732452D01*
X147946000Y-106727885D01*
X148454000Y-106727885D01*
X148458475Y-106743124D01*
X148459865Y-106744329D01*
X148467548Y-106746000D01*
X150189884Y-106746000D01*
X150205123Y-106741525D01*
X150206328Y-106740135D01*
X150207999Y-106732452D01*
X150207999Y-105455331D01*
X150207629Y-105448510D01*
X150202105Y-105397648D01*
X150198479Y-105382396D01*
X150153324Y-105261946D01*
X150144786Y-105246351D01*
X150068285Y-105144276D01*
X150055724Y-105131715D01*
X149953649Y-105055214D01*
X149938054Y-105046676D01*
X149817606Y-105001522D01*
X149802351Y-104997895D01*
X149751486Y-104992369D01*
X149744672Y-104992000D01*
X148472115Y-104992000D01*
X148456876Y-104996475D01*
X148455671Y-104997865D01*
X148454000Y-105005548D01*
X148454000Y-106727885D01*
X147946000Y-106727885D01*
X147946000Y-105010116D01*
X147941525Y-104994877D01*
X147940135Y-104993672D01*
X147932452Y-104992001D01*
X146655331Y-104992001D01*
X146648510Y-104992371D01*
X146597648Y-104997895D01*
X146582396Y-105001521D01*
X146461946Y-105046676D01*
X146446351Y-105055214D01*
X146344276Y-105131715D01*
X146331715Y-105144276D01*
X146255214Y-105246351D01*
X146246676Y-105261946D01*
X146201522Y-105382394D01*
X146197895Y-105397649D01*
X146192369Y-105448514D01*
X146192000Y-105455328D01*
X146192000Y-106727885D01*
X145114642Y-106727885D01*
X145114567Y-106726778D01*
X145111834Y-106713578D01*
X145077744Y-106548970D01*
X145059032Y-106458612D01*
X144967617Y-106200465D01*
X144842013Y-105957112D01*
X144838991Y-105952811D01*
X144687008Y-105736562D01*
X144684545Y-105733057D01*
X144549475Y-105587704D01*
X144501046Y-105535588D01*
X144501043Y-105535585D01*
X144498125Y-105532445D01*
X144494810Y-105529731D01*
X144494806Y-105529728D01*
X144314799Y-105382394D01*
X144286205Y-105358990D01*
X144052704Y-105215901D01*
X144048768Y-105214173D01*
X143805873Y-105107549D01*
X143805869Y-105107548D01*
X143801945Y-105105825D01*
X143538566Y-105030800D01*
X143534324Y-105030196D01*
X143534318Y-105030195D01*
X143332844Y-105001521D01*
X143267443Y-104992213D01*
X143123589Y-104991460D01*
X142997877Y-104990802D01*
X142997871Y-104990802D01*
X142993591Y-104990780D01*
X142989347Y-104991339D01*
X142989343Y-104991339D01*
X142881416Y-105005548D01*
X142722078Y-105026525D01*
X142717938Y-105027658D01*
X142717936Y-105027658D01*
X142648418Y-105046676D01*
X142457928Y-105098788D01*
X142453980Y-105100472D01*
X142209982Y-105204546D01*
X142209978Y-105204548D01*
X142206030Y-105206232D01*
X142138996Y-105246351D01*
X141974725Y-105344664D01*
X141974721Y-105344667D01*
X141971043Y-105346868D01*
X141757318Y-105518094D01*
X141681499Y-105597991D01*
X141582725Y-105702077D01*
X141568808Y-105716742D01*
X141409002Y-105939136D01*
X141280857Y-106181161D01*
X141279386Y-106185181D01*
X141279381Y-106185192D01*
X141234147Y-106308801D01*
X141191953Y-106365899D01*
X141125587Y-106391121D01*
X141115821Y-106391500D01*
X139730944Y-106391500D01*
X139662823Y-106371498D01*
X139616330Y-106317842D01*
X139606226Y-106247568D01*
X139630118Y-106189935D01*
X139694786Y-106103649D01*
X139703324Y-106088054D01*
X139748478Y-105967606D01*
X139752105Y-105952351D01*
X139757631Y-105901486D01*
X139758000Y-105894672D01*
X139758000Y-105272115D01*
X139753525Y-105256876D01*
X139752135Y-105255671D01*
X139744452Y-105254000D01*
X138272000Y-105254000D01*
X138203879Y-105233998D01*
X138157386Y-105180342D01*
X138146000Y-105128000D01*
X138146000Y-104727885D01*
X138654000Y-104727885D01*
X138658475Y-104743124D01*
X138659865Y-104744329D01*
X138667548Y-104746000D01*
X139739884Y-104746000D01*
X139755123Y-104741525D01*
X139756328Y-104740135D01*
X139757999Y-104732452D01*
X139757999Y-104729777D01*
X152201777Y-104729777D01*
X152211074Y-104741793D01*
X152254069Y-104771898D01*
X152263555Y-104777376D01*
X152454993Y-104866645D01*
X152465285Y-104870391D01*
X152669309Y-104925059D01*
X152680104Y-104926962D01*
X152890525Y-104945372D01*
X152901475Y-104945372D01*
X153111896Y-104926962D01*
X153122691Y-104925059D01*
X153326715Y-104870391D01*
X153337007Y-104866645D01*
X153528445Y-104777376D01*
X153537931Y-104771898D01*
X153581764Y-104741207D01*
X153590139Y-104730729D01*
X153583071Y-104717281D01*
X152908812Y-104043022D01*
X152894868Y-104035408D01*
X152893035Y-104035539D01*
X152886420Y-104039790D01*
X152208207Y-104718003D01*
X152201777Y-104729777D01*
X139757999Y-104729777D01*
X139757999Y-104105331D01*
X139757629Y-104098510D01*
X139752105Y-104047648D01*
X139748479Y-104032396D01*
X139703324Y-103911946D01*
X139694786Y-103896351D01*
X139618285Y-103794276D01*
X139605724Y-103781715D01*
X139503649Y-103705214D01*
X139488054Y-103696676D01*
X139434168Y-103676475D01*
X151621628Y-103676475D01*
X151640038Y-103886896D01*
X151641941Y-103897691D01*
X151696609Y-104101715D01*
X151700355Y-104112007D01*
X151789623Y-104303441D01*
X151795103Y-104312932D01*
X151825794Y-104356765D01*
X151836271Y-104365140D01*
X151849718Y-104358072D01*
X152523978Y-103683812D01*
X152530356Y-103672132D01*
X153260408Y-103672132D01*
X153260539Y-103673965D01*
X153264790Y-103680580D01*
X153943003Y-104358793D01*
X153954778Y-104365223D01*
X153962900Y-104358939D01*
X154029018Y-104333075D01*
X154098623Y-104347062D01*
X154149616Y-104396461D01*
X154166001Y-104458595D01*
X154166001Y-104477669D01*
X154166371Y-104484490D01*
X154171895Y-104535352D01*
X154175521Y-104550604D01*
X154220676Y-104671054D01*
X154229214Y-104686649D01*
X154305715Y-104788724D01*
X154318276Y-104801285D01*
X154420351Y-104877786D01*
X154435946Y-104886324D01*
X154556394Y-104931478D01*
X154571649Y-104935105D01*
X154622514Y-104940631D01*
X154629328Y-104941000D01*
X155163885Y-104941000D01*
X155179124Y-104936525D01*
X155180329Y-104935135D01*
X155182000Y-104927452D01*
X155182000Y-104922884D01*
X155690000Y-104922884D01*
X155694475Y-104938123D01*
X155695865Y-104939328D01*
X155703548Y-104940999D01*
X156242669Y-104940999D01*
X156249490Y-104940629D01*
X156300352Y-104935105D01*
X156315604Y-104931479D01*
X156436054Y-104886324D01*
X156451649Y-104877786D01*
X156553724Y-104801285D01*
X156566285Y-104788724D01*
X156642786Y-104686649D01*
X156651324Y-104671054D01*
X156696478Y-104550606D01*
X156700105Y-104535351D01*
X156705631Y-104484486D01*
X156706000Y-104477672D01*
X156706000Y-103943115D01*
X156701525Y-103927876D01*
X156700135Y-103926671D01*
X156692452Y-103925000D01*
X155708115Y-103925000D01*
X155692876Y-103929475D01*
X155691671Y-103930865D01*
X155690000Y-103938548D01*
X155690000Y-104922884D01*
X155182000Y-104922884D01*
X155182000Y-103398885D01*
X155690000Y-103398885D01*
X155694475Y-103414124D01*
X155695865Y-103415329D01*
X155703548Y-103417000D01*
X156687884Y-103417000D01*
X156703123Y-103412525D01*
X156704328Y-103411135D01*
X156705999Y-103403452D01*
X156705999Y-102864331D01*
X156705629Y-102857510D01*
X156700105Y-102806648D01*
X156696479Y-102791396D01*
X156651324Y-102670946D01*
X156642786Y-102655351D01*
X156566285Y-102553276D01*
X156553724Y-102540715D01*
X156451649Y-102464214D01*
X156436054Y-102455676D01*
X156315606Y-102410522D01*
X156300351Y-102406895D01*
X156249486Y-102401369D01*
X156242672Y-102401000D01*
X155708115Y-102401000D01*
X155692876Y-102405475D01*
X155691671Y-102406865D01*
X155690000Y-102414548D01*
X155690000Y-103398885D01*
X155182000Y-103398885D01*
X155182000Y-102419116D01*
X155177525Y-102403877D01*
X155176135Y-102402672D01*
X155168452Y-102401001D01*
X154629331Y-102401001D01*
X154622510Y-102401371D01*
X154571648Y-102406895D01*
X154556396Y-102410521D01*
X154435946Y-102455676D01*
X154420351Y-102464214D01*
X154318276Y-102540715D01*
X154305715Y-102553276D01*
X154229214Y-102655351D01*
X154220676Y-102670946D01*
X154175522Y-102791394D01*
X154171895Y-102806649D01*
X154166369Y-102857514D01*
X154166000Y-102864328D01*
X154166000Y-102882915D01*
X154145998Y-102951036D01*
X154092342Y-102997529D01*
X154022068Y-103007633D01*
X153961327Y-102981335D01*
X153955729Y-102976860D01*
X153942282Y-102983928D01*
X153268022Y-103658188D01*
X153260408Y-103672132D01*
X152530356Y-103672132D01*
X152531592Y-103669868D01*
X152531461Y-103668035D01*
X152527210Y-103661420D01*
X151848997Y-102983207D01*
X151837223Y-102976777D01*
X151825207Y-102986074D01*
X151795103Y-103029068D01*
X151789623Y-103038559D01*
X151700355Y-103229993D01*
X151696609Y-103240285D01*
X151641941Y-103444309D01*
X151640038Y-103455104D01*
X151621628Y-103665525D01*
X151621628Y-103676475D01*
X139434168Y-103676475D01*
X139367606Y-103651522D01*
X139352351Y-103647895D01*
X139301486Y-103642369D01*
X139294672Y-103642000D01*
X138672115Y-103642000D01*
X138656876Y-103646475D01*
X138655671Y-103647865D01*
X138654000Y-103655548D01*
X138654000Y-104727885D01*
X138146000Y-104727885D01*
X138146000Y-103660116D01*
X138141525Y-103644877D01*
X138140135Y-103643672D01*
X138132452Y-103642001D01*
X137505331Y-103642001D01*
X137498510Y-103642371D01*
X137447648Y-103647895D01*
X137432396Y-103651521D01*
X137311946Y-103696676D01*
X137296351Y-103705214D01*
X137194276Y-103781715D01*
X137181715Y-103794276D01*
X137105214Y-103896351D01*
X137096676Y-103911946D01*
X137055297Y-104022322D01*
X137012655Y-104079087D01*
X136946093Y-104103786D01*
X136876744Y-104088578D01*
X136844121Y-104062891D01*
X136793151Y-104006876D01*
X136793148Y-104006873D01*
X136789670Y-104003051D01*
X136785619Y-103999852D01*
X136785615Y-103999848D01*
X136618414Y-103867800D01*
X136618410Y-103867798D01*
X136614359Y-103864598D01*
X136418789Y-103756638D01*
X136413920Y-103754914D01*
X136413916Y-103754912D01*
X136213087Y-103683795D01*
X136213083Y-103683794D01*
X136208212Y-103682069D01*
X136203119Y-103681162D01*
X136203116Y-103681161D01*
X135993373Y-103643800D01*
X135993367Y-103643799D01*
X135988284Y-103642894D01*
X135914452Y-103641992D01*
X135770081Y-103640228D01*
X135770079Y-103640228D01*
X135764911Y-103640165D01*
X135634530Y-103660116D01*
X135549200Y-103673173D01*
X135549197Y-103673174D01*
X135544091Y-103673955D01*
X135523999Y-103680522D01*
X135453036Y-103682675D01*
X135395757Y-103649853D01*
X134731979Y-102986074D01*
X134357176Y-102611271D01*
X152201860Y-102611271D01*
X152208928Y-102624718D01*
X152883188Y-103298978D01*
X152897132Y-103306592D01*
X152898965Y-103306461D01*
X152905580Y-103302210D01*
X153583793Y-102623997D01*
X153590223Y-102612223D01*
X153580926Y-102600207D01*
X153537931Y-102570102D01*
X153528445Y-102564624D01*
X153337007Y-102475355D01*
X153326715Y-102471609D01*
X153122691Y-102416941D01*
X153111896Y-102415038D01*
X152901475Y-102396628D01*
X152890525Y-102396628D01*
X152680104Y-102415038D01*
X152669309Y-102416941D01*
X152465285Y-102471609D01*
X152454993Y-102475355D01*
X152263559Y-102564623D01*
X152254068Y-102570103D01*
X152210235Y-102600794D01*
X152201860Y-102611271D01*
X134357176Y-102611271D01*
X134050629Y-102304724D01*
X134016603Y-102242412D01*
X134014203Y-102226610D01*
X134008543Y-102161913D01*
X133960734Y-101983489D01*
X133950707Y-101946067D01*
X133950706Y-101946065D01*
X133949284Y-101940757D01*
X133934471Y-101908990D01*
X133854846Y-101738232D01*
X133854844Y-101738229D01*
X133852523Y-101733251D01*
X133794188Y-101649939D01*
X133771501Y-101582666D01*
X133788787Y-101513805D01*
X133808307Y-101488575D01*
X134101405Y-101195477D01*
X134163717Y-101161451D01*
X134234532Y-101166516D01*
X134291368Y-101209063D01*
X134316179Y-101275583D01*
X134316500Y-101284572D01*
X134316500Y-101973134D01*
X134323255Y-102035316D01*
X134374385Y-102171705D01*
X134461739Y-102288261D01*
X134578295Y-102375615D01*
X134714684Y-102426745D01*
X134776866Y-102433500D01*
X136573134Y-102433500D01*
X136635316Y-102426745D01*
X136771705Y-102375615D01*
X136888261Y-102288261D01*
X136975615Y-102171705D01*
X137010616Y-102078341D01*
X137019598Y-102054382D01*
X137062240Y-101997618D01*
X137128802Y-101972918D01*
X137198150Y-101988126D01*
X137232817Y-102016114D01*
X137261250Y-102048938D01*
X137433126Y-102191632D01*
X137626000Y-102304338D01*
X137834692Y-102384030D01*
X137839760Y-102385061D01*
X137839763Y-102385062D01*
X137940097Y-102405475D01*
X138053597Y-102428567D01*
X138058772Y-102428757D01*
X138058774Y-102428757D01*
X138271673Y-102436564D01*
X138271677Y-102436564D01*
X138276837Y-102436753D01*
X138281957Y-102436097D01*
X138281959Y-102436097D01*
X138493288Y-102409025D01*
X138493289Y-102409025D01*
X138498416Y-102408368D01*
X138521745Y-102401369D01*
X138707429Y-102345661D01*
X138707434Y-102345659D01*
X138712384Y-102344174D01*
X138912994Y-102245896D01*
X139094860Y-102116173D01*
X139132825Y-102078341D01*
X139240042Y-101971497D01*
X139253096Y-101958489D01*
X139288665Y-101908990D01*
X139383453Y-101777077D01*
X139384774Y-101778026D01*
X139431663Y-101734849D01*
X139501600Y-101722628D01*
X139567042Y-101750158D01*
X139594874Y-101781995D01*
X139652285Y-101875680D01*
X139652290Y-101875687D01*
X139654987Y-101880088D01*
X139801250Y-102048938D01*
X139973126Y-102191632D01*
X140166000Y-102304338D01*
X140374692Y-102384030D01*
X140379760Y-102385061D01*
X140379763Y-102385062D01*
X140480097Y-102405475D01*
X140593597Y-102428567D01*
X140598772Y-102428757D01*
X140598774Y-102428757D01*
X140811673Y-102436564D01*
X140811677Y-102436564D01*
X140816837Y-102436753D01*
X140821957Y-102436097D01*
X140821959Y-102436097D01*
X141033288Y-102409025D01*
X141033289Y-102409025D01*
X141038416Y-102408368D01*
X141061745Y-102401369D01*
X141247429Y-102345661D01*
X141247434Y-102345659D01*
X141252384Y-102344174D01*
X141452994Y-102245896D01*
X141634860Y-102116173D01*
X141672825Y-102078341D01*
X141780042Y-101971497D01*
X141793096Y-101958489D01*
X141828665Y-101908990D01*
X141920435Y-101781277D01*
X141923453Y-101777077D01*
X141942649Y-101738238D01*
X142020136Y-101581453D01*
X142020137Y-101581451D01*
X142022430Y-101576811D01*
X142087370Y-101363069D01*
X142116529Y-101141590D01*
X142116650Y-101136638D01*
X142118074Y-101078365D01*
X142118074Y-101078361D01*
X142118156Y-101075000D01*
X142117473Y-101066695D01*
X142482251Y-101066695D01*
X142482548Y-101071848D01*
X142482548Y-101071851D01*
X142491893Y-101233919D01*
X142495110Y-101289715D01*
X142496247Y-101294761D01*
X142496248Y-101294767D01*
X142510485Y-101357939D01*
X142544222Y-101507639D01*
X142561509Y-101550211D01*
X142625783Y-101708500D01*
X142628266Y-101714616D01*
X142665685Y-101775678D01*
X142742291Y-101900688D01*
X142744987Y-101905088D01*
X142891250Y-102073938D01*
X143063126Y-102216632D01*
X143256000Y-102329338D01*
X143260825Y-102331180D01*
X143260826Y-102331181D01*
X143298785Y-102345676D01*
X143464692Y-102409030D01*
X143469760Y-102410061D01*
X143469763Y-102410062D01*
X143577017Y-102431883D01*
X143683597Y-102453567D01*
X143688772Y-102453757D01*
X143688774Y-102453757D01*
X143901673Y-102461564D01*
X143901677Y-102461564D01*
X143906837Y-102461753D01*
X143911957Y-102461097D01*
X143911959Y-102461097D01*
X144123288Y-102434025D01*
X144123289Y-102434025D01*
X144128416Y-102433368D01*
X144143785Y-102428757D01*
X144337429Y-102370661D01*
X144337434Y-102370659D01*
X144342384Y-102369174D01*
X144542994Y-102270896D01*
X144724860Y-102141173D01*
X144883096Y-101983489D01*
X144942594Y-101900689D01*
X145013453Y-101802077D01*
X145014776Y-101803028D01*
X145061645Y-101759857D01*
X145131580Y-101747625D01*
X145197026Y-101775144D01*
X145224875Y-101806994D01*
X145284987Y-101905088D01*
X145431250Y-102073938D01*
X145603126Y-102216632D01*
X145796000Y-102329338D01*
X145800825Y-102331180D01*
X145800826Y-102331181D01*
X145838785Y-102345676D01*
X146004692Y-102409030D01*
X146009760Y-102410061D01*
X146009763Y-102410062D01*
X146117017Y-102431883D01*
X146223597Y-102453567D01*
X146228772Y-102453757D01*
X146228774Y-102453757D01*
X146441673Y-102461564D01*
X146441677Y-102461564D01*
X146446837Y-102461753D01*
X146451957Y-102461097D01*
X146451959Y-102461097D01*
X146663288Y-102434025D01*
X146663289Y-102434025D01*
X146668416Y-102433368D01*
X146683785Y-102428757D01*
X146877429Y-102370661D01*
X146877434Y-102370659D01*
X146882384Y-102369174D01*
X147082994Y-102270896D01*
X147264860Y-102141173D01*
X147373091Y-102033319D01*
X147435462Y-101999404D01*
X147506268Y-102004592D01*
X147563030Y-102047238D01*
X147580012Y-102078341D01*
X147609350Y-102156600D01*
X147624385Y-102196705D01*
X147711739Y-102313261D01*
X147828295Y-102400615D01*
X147964684Y-102451745D01*
X148026866Y-102458500D01*
X149823134Y-102458500D01*
X149885316Y-102451745D01*
X150021705Y-102400615D01*
X150138261Y-102313261D01*
X150225615Y-102196705D01*
X150276745Y-102060316D01*
X150283500Y-101998134D01*
X150283500Y-100201866D01*
X150276745Y-100139684D01*
X150225615Y-100003295D01*
X150138261Y-99886739D01*
X150021705Y-99799385D01*
X149885316Y-99748255D01*
X149823134Y-99741500D01*
X148026866Y-99741500D01*
X147964684Y-99748255D01*
X147828295Y-99799385D01*
X147711739Y-99886739D01*
X147624385Y-100003295D01*
X147621233Y-100011703D01*
X147579919Y-100121907D01*
X147537277Y-100178671D01*
X147470716Y-100203371D01*
X147401367Y-100188163D01*
X147368743Y-100162476D01*
X147318151Y-100106875D01*
X147318142Y-100106866D01*
X147314670Y-100103051D01*
X147310619Y-100099852D01*
X147310615Y-100099848D01*
X147143414Y-99967800D01*
X147143410Y-99967798D01*
X147139359Y-99964598D01*
X146943789Y-99856638D01*
X146938920Y-99854914D01*
X146938916Y-99854912D01*
X146738087Y-99783795D01*
X146738083Y-99783794D01*
X146733212Y-99782069D01*
X146728119Y-99781162D01*
X146728116Y-99781161D01*
X146518373Y-99743800D01*
X146518367Y-99743799D01*
X146513284Y-99742894D01*
X146439452Y-99741992D01*
X146295081Y-99740228D01*
X146295079Y-99740228D01*
X146289911Y-99740165D01*
X146069091Y-99773955D01*
X145856756Y-99843357D01*
X145658607Y-99946507D01*
X145654474Y-99949610D01*
X145654471Y-99949612D01*
X145484100Y-100077530D01*
X145479965Y-100080635D01*
X145453840Y-100107973D01*
X145349520Y-100217138D01*
X145325629Y-100242138D01*
X145218201Y-100399621D01*
X145163293Y-100444621D01*
X145092768Y-100452792D01*
X145029021Y-100421538D01*
X145008324Y-100397054D01*
X144927822Y-100272617D01*
X144927820Y-100272614D01*
X144925014Y-100268277D01*
X144774670Y-100103051D01*
X144770619Y-100099852D01*
X144770615Y-100099848D01*
X144603414Y-99967800D01*
X144603410Y-99967798D01*
X144599359Y-99964598D01*
X144403789Y-99856638D01*
X144398920Y-99854914D01*
X144398916Y-99854912D01*
X144198087Y-99783795D01*
X144198083Y-99783794D01*
X144193212Y-99782069D01*
X144188119Y-99781162D01*
X144188116Y-99781161D01*
X143978373Y-99743800D01*
X143978367Y-99743799D01*
X143973284Y-99742894D01*
X143899452Y-99741992D01*
X143755081Y-99740228D01*
X143755079Y-99740228D01*
X143749911Y-99740165D01*
X143529091Y-99773955D01*
X143316756Y-99843357D01*
X143118607Y-99946507D01*
X143114474Y-99949610D01*
X143114471Y-99949612D01*
X142944100Y-100077530D01*
X142939965Y-100080635D01*
X142913840Y-100107973D01*
X142809520Y-100217138D01*
X142785629Y-100242138D01*
X142782720Y-100246403D01*
X142782714Y-100246411D01*
X142750414Y-100293761D01*
X142659743Y-100426680D01*
X142565688Y-100629305D01*
X142505989Y-100844570D01*
X142482251Y-101066695D01*
X142117473Y-101066695D01*
X142099852Y-100852361D01*
X142045431Y-100635702D01*
X141956354Y-100430840D01*
X141867674Y-100293761D01*
X141837822Y-100247617D01*
X141837820Y-100247614D01*
X141835014Y-100243277D01*
X141684670Y-100078051D01*
X141680619Y-100074852D01*
X141680615Y-100074848D01*
X141513414Y-99942800D01*
X141513410Y-99942798D01*
X141509359Y-99939598D01*
X141313789Y-99831638D01*
X141308920Y-99829914D01*
X141308916Y-99829912D01*
X141108087Y-99758795D01*
X141108083Y-99758794D01*
X141103212Y-99757069D01*
X141098119Y-99756162D01*
X141098116Y-99756161D01*
X140888373Y-99718800D01*
X140888367Y-99718799D01*
X140883284Y-99717894D01*
X140809452Y-99716992D01*
X140665081Y-99715228D01*
X140665079Y-99715228D01*
X140659911Y-99715165D01*
X140439091Y-99748955D01*
X140226756Y-99818357D01*
X140028607Y-99921507D01*
X140024474Y-99924610D01*
X140024471Y-99924612D01*
X139856226Y-100050934D01*
X139849965Y-100055635D01*
X139824894Y-100081870D01*
X139713470Y-100198469D01*
X139695629Y-100217138D01*
X139588201Y-100374621D01*
X139533293Y-100419621D01*
X139462768Y-100427792D01*
X139399021Y-100396538D01*
X139378324Y-100372054D01*
X139297822Y-100247617D01*
X139297820Y-100247614D01*
X139295014Y-100243277D01*
X139144670Y-100078051D01*
X139140619Y-100074852D01*
X139140615Y-100074848D01*
X138973414Y-99942800D01*
X138973410Y-99942798D01*
X138969359Y-99939598D01*
X138773789Y-99831638D01*
X138768920Y-99829914D01*
X138768916Y-99829912D01*
X138568087Y-99758795D01*
X138568083Y-99758794D01*
X138563212Y-99757069D01*
X138558119Y-99756162D01*
X138558116Y-99756161D01*
X138348373Y-99718800D01*
X138348367Y-99718799D01*
X138343284Y-99717894D01*
X138269452Y-99716992D01*
X138125081Y-99715228D01*
X138125079Y-99715228D01*
X138119911Y-99715165D01*
X137899091Y-99748955D01*
X137686756Y-99818357D01*
X137488607Y-99921507D01*
X137484474Y-99924610D01*
X137484471Y-99924612D01*
X137316226Y-100050934D01*
X137309965Y-100055635D01*
X137233897Y-100135236D01*
X137229283Y-100140064D01*
X137167759Y-100175494D01*
X137096846Y-100172037D01*
X137039060Y-100130791D01*
X137020207Y-100097243D01*
X136978767Y-99986703D01*
X136975615Y-99978295D01*
X136888261Y-99861739D01*
X136771705Y-99774385D01*
X136763296Y-99771233D01*
X136763295Y-99771232D01*
X136665294Y-99734493D01*
X136608529Y-99691852D01*
X136583829Y-99625290D01*
X136599036Y-99555941D01*
X136649322Y-99505823D01*
X136709523Y-99490511D01*
X137364222Y-99490511D01*
X137375405Y-99491038D01*
X137382898Y-99492713D01*
X137390824Y-99492464D01*
X137390825Y-99492464D01*
X137450975Y-99490573D01*
X137454934Y-99490511D01*
X137482845Y-99490511D01*
X137486780Y-99490014D01*
X137486845Y-99490006D01*
X137498682Y-99489073D01*
X137530940Y-99488059D01*
X137534959Y-99487933D01*
X137542878Y-99487684D01*
X137562332Y-99482032D01*
X137581689Y-99478024D01*
X137593919Y-99476479D01*
X137593920Y-99476479D01*
X137601786Y-99475485D01*
X137609157Y-99472566D01*
X137609159Y-99472566D01*
X137642901Y-99459207D01*
X137654131Y-99455362D01*
X137688972Y-99445240D01*
X137688973Y-99445240D01*
X137696582Y-99443029D01*
X137703401Y-99438996D01*
X137703406Y-99438994D01*
X137714017Y-99432718D01*
X137731765Y-99424023D01*
X137750606Y-99416563D01*
X137772362Y-99400757D01*
X137786376Y-99390575D01*
X137796296Y-99384059D01*
X137827524Y-99365591D01*
X137827527Y-99365589D01*
X137834351Y-99361553D01*
X137848672Y-99347232D01*
X137863706Y-99334391D01*
X137873683Y-99327142D01*
X137880096Y-99322483D01*
X137908287Y-99288406D01*
X137916277Y-99279627D01*
X143175499Y-94020405D01*
X143237811Y-93986379D01*
X143264594Y-93983500D01*
X143585406Y-93983500D01*
X143653527Y-94003502D01*
X143674501Y-94020405D01*
X147479595Y-97825500D01*
X147513621Y-97887812D01*
X147516500Y-97914595D01*
X147516500Y-98550634D01*
X147523255Y-98612816D01*
X147574385Y-98749205D01*
X147661739Y-98865761D01*
X147778295Y-98953115D01*
X147914684Y-99004245D01*
X147976866Y-99011000D01*
X149773134Y-99011000D01*
X149835316Y-99004245D01*
X149971705Y-98953115D01*
X150035271Y-98905475D01*
X157287483Y-98905475D01*
X157306472Y-99122519D01*
X157308375Y-99133312D01*
X157364764Y-99343761D01*
X157368510Y-99354053D01*
X157460586Y-99551511D01*
X157466069Y-99561006D01*
X157502509Y-99613048D01*
X157512988Y-99621424D01*
X157526434Y-99614356D01*
X158227978Y-98912812D01*
X158235592Y-98898868D01*
X158235461Y-98897035D01*
X158231210Y-98890420D01*
X157525713Y-98184923D01*
X157513938Y-98178493D01*
X157501923Y-98187789D01*
X157466069Y-98238994D01*
X157460586Y-98248489D01*
X157368510Y-98445947D01*
X157364764Y-98456239D01*
X157308375Y-98666688D01*
X157306472Y-98677481D01*
X157287483Y-98894525D01*
X157287483Y-98905475D01*
X150035271Y-98905475D01*
X150088261Y-98865761D01*
X150175615Y-98749205D01*
X150226745Y-98612816D01*
X150233500Y-98550634D01*
X150233500Y-98412000D01*
X150253502Y-98343879D01*
X150307158Y-98297386D01*
X150359500Y-98286000D01*
X150961733Y-98286000D01*
X150972916Y-98286527D01*
X150980409Y-98288202D01*
X150988335Y-98287953D01*
X150988336Y-98287953D01*
X151048486Y-98286062D01*
X151052445Y-98286000D01*
X151080356Y-98286000D01*
X151084291Y-98285503D01*
X151084356Y-98285495D01*
X151096193Y-98284562D01*
X151128451Y-98283548D01*
X151132470Y-98283422D01*
X151140389Y-98283173D01*
X151159843Y-98277521D01*
X151179200Y-98273513D01*
X151191430Y-98271968D01*
X151191431Y-98271968D01*
X151199297Y-98270974D01*
X151206668Y-98268055D01*
X151206670Y-98268055D01*
X151240412Y-98254696D01*
X151251642Y-98250851D01*
X151286483Y-98240729D01*
X151286484Y-98240729D01*
X151294093Y-98238518D01*
X151300912Y-98234485D01*
X151300917Y-98234483D01*
X151311528Y-98228207D01*
X151329276Y-98219512D01*
X151348117Y-98212052D01*
X151383887Y-98186064D01*
X151393807Y-98179548D01*
X151425035Y-98161080D01*
X151425038Y-98161078D01*
X151431862Y-98157042D01*
X151446183Y-98142721D01*
X151461217Y-98129880D01*
X151471194Y-98122631D01*
X151477607Y-98117972D01*
X151505798Y-98083895D01*
X151513788Y-98075116D01*
X163181778Y-86407126D01*
X163244090Y-86373100D01*
X163303484Y-86374514D01*
X163326358Y-86380643D01*
X163342537Y-86384978D01*
X163564000Y-86404353D01*
X163785463Y-86384978D01*
X163965944Y-86336618D01*
X163994886Y-86328863D01*
X163994888Y-86328862D01*
X164000196Y-86327440D01*
X164037144Y-86310211D01*
X164196690Y-86235814D01*
X164196695Y-86235811D01*
X164201677Y-86233488D01*
X164324196Y-86147699D01*
X164379270Y-86109136D01*
X164379273Y-86109134D01*
X164383781Y-86105977D01*
X164540977Y-85948781D01*
X164545354Y-85942531D01*
X164604287Y-85858365D01*
X164659744Y-85814037D01*
X164730363Y-85806728D01*
X164793724Y-85838759D01*
G37*
G04 #@! TD.AperFunction*
G04 #@! TA.AperFunction,Conductor*
G36*
X147960603Y-83728002D02*
G01*
X148007096Y-83781658D01*
X148017200Y-83851932D01*
X147987706Y-83916512D01*
X147976135Y-83928224D01*
X147974103Y-83930028D01*
X147969965Y-83933135D01*
X147966392Y-83936874D01*
X147819386Y-84090707D01*
X147815629Y-84094638D01*
X147812715Y-84098910D01*
X147812714Y-84098911D01*
X147776484Y-84152023D01*
X147689743Y-84279180D01*
X147669713Y-84322331D01*
X147603195Y-84465633D01*
X147595688Y-84481805D01*
X147535989Y-84697070D01*
X147512251Y-84919195D01*
X147512548Y-84924348D01*
X147512548Y-84924351D01*
X147519932Y-85052408D01*
X147525110Y-85142215D01*
X147526247Y-85147261D01*
X147526248Y-85147267D01*
X147532877Y-85176681D01*
X147574222Y-85360139D01*
X147658266Y-85567116D01*
X147676650Y-85597116D01*
X147770245Y-85749849D01*
X147774987Y-85757588D01*
X147921250Y-85926438D01*
X148093126Y-86069132D01*
X148129974Y-86090664D01*
X148166445Y-86111976D01*
X148215169Y-86163614D01*
X148228240Y-86233397D01*
X148201509Y-86299169D01*
X148161055Y-86332527D01*
X148148607Y-86339007D01*
X148144474Y-86342110D01*
X148144471Y-86342112D01*
X147997087Y-86452771D01*
X147969965Y-86473135D01*
X147815629Y-86634638D01*
X147812715Y-86638910D01*
X147812714Y-86638911D01*
X147700095Y-86804004D01*
X147645184Y-86849007D01*
X147596007Y-86859000D01*
X147525672Y-86859000D01*
X147457551Y-86838998D01*
X147411058Y-86785342D01*
X147400345Y-86746003D01*
X147398238Y-86725693D01*
X147398237Y-86725690D01*
X147397526Y-86718834D01*
X147392273Y-86703087D01*
X147343868Y-86558002D01*
X147341550Y-86551054D01*
X147248478Y-86400652D01*
X147233257Y-86385457D01*
X147128483Y-86280866D01*
X147123303Y-86275695D01*
X147117072Y-86271854D01*
X146978968Y-86186725D01*
X146978966Y-86186724D01*
X146972738Y-86182885D01*
X146858189Y-86144891D01*
X146811389Y-86129368D01*
X146811387Y-86129368D01*
X146804861Y-86127203D01*
X146798025Y-86126503D01*
X146798022Y-86126502D01*
X146754969Y-86122091D01*
X146700400Y-86116500D01*
X145799600Y-86116500D01*
X145796354Y-86116837D01*
X145796350Y-86116837D01*
X145700692Y-86126762D01*
X145700688Y-86126763D01*
X145693834Y-86127474D01*
X145687298Y-86129655D01*
X145687296Y-86129655D01*
X145584871Y-86163827D01*
X145526054Y-86183450D01*
X145375652Y-86276522D01*
X145250695Y-86401697D01*
X145246855Y-86407927D01*
X145246854Y-86407928D01*
X145194817Y-86492348D01*
X145157885Y-86552262D01*
X145155581Y-86559209D01*
X145108632Y-86700757D01*
X145102203Y-86720139D01*
X145091500Y-86824600D01*
X145091500Y-87291371D01*
X145087330Y-87320675D01*
X145086819Y-87321855D01*
X145061780Y-87479943D01*
X145076843Y-87639292D01*
X145084051Y-87659312D01*
X145091500Y-87701993D01*
X145091500Y-88175400D01*
X145091837Y-88178646D01*
X145091837Y-88178650D01*
X145093926Y-88198777D01*
X145102474Y-88281166D01*
X145104655Y-88287702D01*
X145104655Y-88287704D01*
X145135327Y-88379637D01*
X145158450Y-88448946D01*
X145251522Y-88599348D01*
X145256704Y-88604521D01*
X145313109Y-88660828D01*
X145347188Y-88723111D01*
X145342185Y-88793931D01*
X145313264Y-88839019D01*
X145250695Y-88901697D01*
X145246855Y-88907927D01*
X145246854Y-88907928D01*
X145166530Y-89038238D01*
X145157885Y-89052262D01*
X145155581Y-89059209D01*
X145107186Y-89205117D01*
X145102203Y-89220139D01*
X145091500Y-89324600D01*
X145091500Y-89804308D01*
X145088465Y-89831795D01*
X145066028Y-89932167D01*
X145066028Y-89932172D01*
X145064298Y-89939909D01*
X145069327Y-90099889D01*
X145071539Y-90107501D01*
X145071539Y-90107504D01*
X145086497Y-90158989D01*
X145091500Y-90194142D01*
X145091500Y-90675400D01*
X145091837Y-90678646D01*
X145091837Y-90678650D01*
X145101189Y-90768777D01*
X145102474Y-90781166D01*
X145158450Y-90948946D01*
X145251522Y-91099348D01*
X145256704Y-91104521D01*
X145363109Y-91210741D01*
X145397188Y-91273024D01*
X145392185Y-91343844D01*
X145363265Y-91388931D01*
X145250695Y-91501697D01*
X145246855Y-91507927D01*
X145246854Y-91507928D01*
X145188653Y-91602348D01*
X145157885Y-91652262D01*
X145155581Y-91659209D01*
X145118576Y-91770777D01*
X145102203Y-91820139D01*
X145091500Y-91924600D01*
X145091500Y-92391371D01*
X145087330Y-92420675D01*
X145086819Y-92421855D01*
X145061780Y-92579943D01*
X145062526Y-92587835D01*
X145071638Y-92684225D01*
X145076843Y-92739292D01*
X145084051Y-92759312D01*
X145091500Y-92801993D01*
X145091500Y-93275400D01*
X145091837Y-93278646D01*
X145091837Y-93278650D01*
X145097714Y-93335288D01*
X145084849Y-93405109D01*
X145036279Y-93456892D01*
X144967423Y-93474194D01*
X144900143Y-93451524D01*
X144883292Y-93437387D01*
X144345405Y-92899500D01*
X144311379Y-92837188D01*
X144308500Y-92810405D01*
X144308500Y-91924600D01*
X144307919Y-91918998D01*
X144298238Y-91825692D01*
X144298237Y-91825688D01*
X144297526Y-91818834D01*
X144284823Y-91780757D01*
X144243868Y-91658002D01*
X144241550Y-91651054D01*
X144148478Y-91500652D01*
X144118073Y-91470300D01*
X144036891Y-91389259D01*
X144002812Y-91326976D01*
X144007815Y-91256156D01*
X144036736Y-91211068D01*
X144037063Y-91210741D01*
X144149305Y-91098303D01*
X144162639Y-91076671D01*
X144238275Y-90953968D01*
X144238276Y-90953966D01*
X144242115Y-90947738D01*
X144274895Y-90848909D01*
X144295632Y-90786389D01*
X144295632Y-90786387D01*
X144297797Y-90779861D01*
X144298954Y-90768575D01*
X144306768Y-90692301D01*
X144308500Y-90675400D01*
X144308500Y-89324600D01*
X144308163Y-89321350D01*
X144298238Y-89225692D01*
X144298237Y-89225688D01*
X144297526Y-89218834D01*
X144285142Y-89181713D01*
X144243868Y-89058002D01*
X144241550Y-89051054D01*
X144148478Y-88900652D01*
X144120304Y-88872527D01*
X144086891Y-88839172D01*
X144052812Y-88776889D01*
X144057815Y-88706069D01*
X144086736Y-88660981D01*
X144144134Y-88603483D01*
X144149305Y-88598303D01*
X144177553Y-88552477D01*
X144238275Y-88453968D01*
X144238276Y-88453966D01*
X144242115Y-88447738D01*
X144297797Y-88279861D01*
X144301039Y-88248225D01*
X144307601Y-88184171D01*
X144308500Y-88175400D01*
X144308500Y-86824600D01*
X144297526Y-86718834D01*
X144292273Y-86703087D01*
X144243868Y-86558002D01*
X144241550Y-86551054D01*
X144148478Y-86400652D01*
X144133257Y-86385457D01*
X144028483Y-86280866D01*
X144023303Y-86275695D01*
X144017072Y-86271854D01*
X143878968Y-86186725D01*
X143878966Y-86186724D01*
X143872738Y-86182885D01*
X143758189Y-86144891D01*
X143711389Y-86129368D01*
X143711387Y-86129368D01*
X143704861Y-86127203D01*
X143698025Y-86126503D01*
X143698022Y-86126502D01*
X143654969Y-86122091D01*
X143600400Y-86116500D01*
X142699600Y-86116500D01*
X142696354Y-86116837D01*
X142696350Y-86116837D01*
X142600692Y-86126762D01*
X142600688Y-86126763D01*
X142593834Y-86127474D01*
X142587298Y-86129655D01*
X142587296Y-86129655D01*
X142484871Y-86163827D01*
X142426054Y-86183450D01*
X142275652Y-86276522D01*
X142150695Y-86401697D01*
X142146855Y-86407927D01*
X142146854Y-86407928D01*
X142094817Y-86492348D01*
X142057885Y-86552262D01*
X142055581Y-86559209D01*
X142008632Y-86700757D01*
X142002203Y-86720139D01*
X141991500Y-86824600D01*
X141991500Y-88175400D01*
X141991837Y-88178646D01*
X141991837Y-88178650D01*
X141993926Y-88198777D01*
X142002474Y-88281166D01*
X142004655Y-88287702D01*
X142004655Y-88287704D01*
X142035327Y-88379637D01*
X142058450Y-88448946D01*
X142151522Y-88599348D01*
X142156704Y-88604521D01*
X142213109Y-88660828D01*
X142247188Y-88723111D01*
X142242185Y-88793931D01*
X142213264Y-88839019D01*
X142150695Y-88901697D01*
X142146855Y-88907927D01*
X142146854Y-88907928D01*
X142066530Y-89038238D01*
X142057885Y-89052262D01*
X142055581Y-89059209D01*
X142007186Y-89205117D01*
X142002203Y-89220139D01*
X141991500Y-89324600D01*
X141991500Y-90675400D01*
X141991837Y-90678646D01*
X141991837Y-90678650D01*
X142001189Y-90768777D01*
X142002474Y-90781166D01*
X142058450Y-90948946D01*
X142151522Y-91099348D01*
X142156704Y-91104521D01*
X142263109Y-91210741D01*
X142297188Y-91273024D01*
X142292185Y-91343844D01*
X142263265Y-91388931D01*
X142150695Y-91501697D01*
X142146855Y-91507927D01*
X142146854Y-91507928D01*
X142088653Y-91602348D01*
X142057885Y-91652262D01*
X142055581Y-91659209D01*
X142018576Y-91770777D01*
X142002203Y-91820139D01*
X141991500Y-91924600D01*
X141991500Y-93275400D01*
X141991837Y-93278644D01*
X141991837Y-93278652D01*
X141998205Y-93340024D01*
X141985340Y-93409845D01*
X141961973Y-93442122D01*
X137648595Y-97755500D01*
X137586283Y-97789526D01*
X137515468Y-97784461D01*
X137458632Y-97741914D01*
X137433821Y-97675394D01*
X137433500Y-97666405D01*
X137433500Y-96784366D01*
X137426745Y-96722184D01*
X137375615Y-96585795D01*
X137288261Y-96469239D01*
X137171705Y-96381885D01*
X137083272Y-96348733D01*
X137052687Y-96337267D01*
X136995923Y-96294625D01*
X136971223Y-96228064D01*
X136986430Y-96158715D01*
X137007977Y-96130035D01*
X137109052Y-96029312D01*
X137115730Y-96021465D01*
X137240003Y-95848520D01*
X137245313Y-95839683D01*
X137339670Y-95648767D01*
X137343469Y-95639172D01*
X137405377Y-95435410D01*
X137407555Y-95425337D01*
X137408986Y-95414462D01*
X137406775Y-95400278D01*
X137393617Y-95396500D01*
X135947000Y-95396500D01*
X135878879Y-95376498D01*
X135832386Y-95322842D01*
X135821000Y-95270500D01*
X135821000Y-95014500D01*
X135841002Y-94946379D01*
X135894658Y-94899886D01*
X135947000Y-94888500D01*
X137393344Y-94888500D01*
X137406875Y-94884527D01*
X137408180Y-94875447D01*
X137366214Y-94708375D01*
X137362894Y-94698624D01*
X137277972Y-94503314D01*
X137273105Y-94494239D01*
X137157426Y-94315426D01*
X137151136Y-94307257D01*
X137007806Y-94149740D01*
X137000273Y-94142715D01*
X136833139Y-94010722D01*
X136824556Y-94005020D01*
X136787602Y-93984620D01*
X136737631Y-93934187D01*
X136722859Y-93864745D01*
X136747975Y-93798339D01*
X136775327Y-93771732D01*
X136815053Y-93743396D01*
X136954860Y-93643673D01*
X136968430Y-93630151D01*
X137100038Y-93499001D01*
X137113096Y-93485989D01*
X137137862Y-93451524D01*
X137240435Y-93308777D01*
X137243453Y-93304577D01*
X137262438Y-93266165D01*
X137340136Y-93108953D01*
X137340137Y-93108951D01*
X137342430Y-93104311D01*
X137407370Y-92890569D01*
X137436529Y-92669090D01*
X137438156Y-92602500D01*
X137419852Y-92379861D01*
X137365431Y-92163202D01*
X137276354Y-91958340D01*
X137190540Y-91825692D01*
X137157822Y-91775117D01*
X137157820Y-91775114D01*
X137155014Y-91770777D01*
X137004670Y-91605551D01*
X137000619Y-91602352D01*
X137000615Y-91602348D01*
X136833414Y-91470300D01*
X136833410Y-91470298D01*
X136829359Y-91467098D01*
X136788053Y-91444296D01*
X136738084Y-91393864D01*
X136723312Y-91324421D01*
X136748428Y-91258016D01*
X136775780Y-91231409D01*
X136840104Y-91185527D01*
X136954860Y-91103673D01*
X136968430Y-91090151D01*
X137105089Y-90953968D01*
X137113096Y-90945989D01*
X137181436Y-90850884D01*
X137240435Y-90768777D01*
X137243453Y-90764577D01*
X137262438Y-90726165D01*
X137340136Y-90568953D01*
X137340137Y-90568951D01*
X137342430Y-90564311D01*
X137407370Y-90350569D01*
X137436529Y-90129090D01*
X137436656Y-90123912D01*
X137438074Y-90065865D01*
X137438074Y-90065861D01*
X137438156Y-90062500D01*
X137419852Y-89839861D01*
X137365431Y-89623202D01*
X137276354Y-89418340D01*
X137213608Y-89321350D01*
X137157822Y-89235117D01*
X137157820Y-89235114D01*
X137155014Y-89230777D01*
X137004670Y-89065551D01*
X137000619Y-89062352D01*
X137000615Y-89062348D01*
X136833414Y-88930300D01*
X136833410Y-88930298D01*
X136829359Y-88927098D01*
X136788053Y-88904296D01*
X136738084Y-88853864D01*
X136723312Y-88784421D01*
X136748428Y-88718016D01*
X136775780Y-88691409D01*
X136891128Y-88609132D01*
X136954860Y-88563673D01*
X136968430Y-88550151D01*
X137100038Y-88419001D01*
X137113096Y-88405989D01*
X137200491Y-88284366D01*
X137240435Y-88228777D01*
X137243453Y-88224577D01*
X137262438Y-88186165D01*
X137340136Y-88028953D01*
X137340137Y-88028951D01*
X137342430Y-88024311D01*
X137407370Y-87810569D01*
X137436529Y-87589090D01*
X137438156Y-87522500D01*
X137419852Y-87299861D01*
X137365431Y-87083202D01*
X137276354Y-86878340D01*
X137216191Y-86785342D01*
X137157822Y-86695117D01*
X137157820Y-86695114D01*
X137155014Y-86690777D01*
X137004670Y-86525551D01*
X137000619Y-86522352D01*
X137000615Y-86522348D01*
X136833414Y-86390300D01*
X136833410Y-86390298D01*
X136829359Y-86387098D01*
X136788053Y-86364296D01*
X136738084Y-86313864D01*
X136723312Y-86244421D01*
X136748428Y-86178016D01*
X136775780Y-86151409D01*
X136831387Y-86111745D01*
X136954860Y-86023673D01*
X136966431Y-86012143D01*
X137079006Y-85899960D01*
X137113096Y-85865989D01*
X137118575Y-85858365D01*
X137240435Y-85688777D01*
X137243453Y-85684577D01*
X137291331Y-85587704D01*
X137340136Y-85488953D01*
X137340137Y-85488951D01*
X137342430Y-85484311D01*
X137396253Y-85307158D01*
X137405865Y-85275523D01*
X137405865Y-85275521D01*
X137407370Y-85270569D01*
X137436529Y-85049090D01*
X137437262Y-85019090D01*
X137438074Y-84985865D01*
X137438074Y-84985861D01*
X137438156Y-84982500D01*
X137419852Y-84759861D01*
X137365431Y-84543202D01*
X137276354Y-84338340D01*
X137228681Y-84264649D01*
X137157822Y-84155117D01*
X137157820Y-84155114D01*
X137155014Y-84150777D01*
X137004670Y-83985551D01*
X136937978Y-83932881D01*
X136896917Y-83874964D01*
X136893685Y-83804041D01*
X136929311Y-83742630D01*
X136992482Y-83710228D01*
X137016072Y-83708000D01*
X147892482Y-83708000D01*
X147960603Y-83728002D01*
G37*
G04 #@! TD.AperFunction*
G04 #@! TA.AperFunction,Conductor*
G36*
X152438040Y-83728002D02*
G01*
X152484533Y-83781658D01*
X152494637Y-83851932D01*
X152465143Y-83916512D01*
X152423169Y-83948195D01*
X152263559Y-84022623D01*
X152254068Y-84028103D01*
X152210235Y-84058794D01*
X152201860Y-84069271D01*
X152208928Y-84082718D01*
X152883188Y-84756978D01*
X152897132Y-84764592D01*
X152898965Y-84764461D01*
X152905580Y-84760210D01*
X153583793Y-84081997D01*
X153590223Y-84070223D01*
X153580926Y-84058207D01*
X153537931Y-84028102D01*
X153528445Y-84022624D01*
X153368831Y-83948195D01*
X153315546Y-83901278D01*
X153296085Y-83833000D01*
X153316627Y-83765040D01*
X153370650Y-83718975D01*
X153422081Y-83708000D01*
X154327958Y-83708000D01*
X154396079Y-83728002D01*
X154442572Y-83781658D01*
X154452676Y-83851932D01*
X154423182Y-83916512D01*
X154403523Y-83934826D01*
X154318276Y-83998715D01*
X154305715Y-84011276D01*
X154229214Y-84113351D01*
X154220676Y-84128946D01*
X154175522Y-84249394D01*
X154171895Y-84264649D01*
X154166369Y-84315514D01*
X154166000Y-84322328D01*
X154166000Y-84340915D01*
X154145998Y-84409036D01*
X154092342Y-84455529D01*
X154022068Y-84465633D01*
X153961327Y-84439335D01*
X153955729Y-84434860D01*
X153942282Y-84441928D01*
X153268022Y-85116188D01*
X153260408Y-85130132D01*
X153260539Y-85131965D01*
X153264790Y-85138580D01*
X153943003Y-85816793D01*
X153954778Y-85823223D01*
X153962900Y-85816939D01*
X154029018Y-85791075D01*
X154098623Y-85805062D01*
X154149616Y-85854461D01*
X154166001Y-85916595D01*
X154166001Y-85935669D01*
X154166371Y-85942490D01*
X154171895Y-85993352D01*
X154175521Y-86008604D01*
X154220676Y-86129054D01*
X154229214Y-86144649D01*
X154305715Y-86246724D01*
X154318276Y-86259285D01*
X154420351Y-86335786D01*
X154435946Y-86344324D01*
X154556394Y-86389478D01*
X154571649Y-86393105D01*
X154622514Y-86398631D01*
X154629328Y-86399000D01*
X155163885Y-86399000D01*
X155179124Y-86394525D01*
X155180329Y-86393135D01*
X155182000Y-86385452D01*
X155182000Y-86380884D01*
X155690000Y-86380884D01*
X155694475Y-86396123D01*
X155695865Y-86397328D01*
X155703548Y-86398999D01*
X156242669Y-86398999D01*
X156249490Y-86398629D01*
X156300352Y-86393105D01*
X156315604Y-86389479D01*
X156436054Y-86344324D01*
X156451649Y-86335786D01*
X156553724Y-86259285D01*
X156566285Y-86246724D01*
X156642786Y-86144649D01*
X156651324Y-86129054D01*
X156696478Y-86008606D01*
X156700105Y-85993351D01*
X156705631Y-85942486D01*
X156706000Y-85935672D01*
X156706000Y-85401115D01*
X156701525Y-85385876D01*
X156700135Y-85384671D01*
X156692452Y-85383000D01*
X155708115Y-85383000D01*
X155692876Y-85387475D01*
X155691671Y-85388865D01*
X155690000Y-85396548D01*
X155690000Y-86380884D01*
X155182000Y-86380884D01*
X155182000Y-85001000D01*
X155202002Y-84932879D01*
X155255658Y-84886386D01*
X155308000Y-84875000D01*
X156687884Y-84875000D01*
X156703123Y-84870525D01*
X156704328Y-84869135D01*
X156705999Y-84861452D01*
X156705999Y-84322331D01*
X156705629Y-84315510D01*
X156700105Y-84264648D01*
X156696479Y-84249396D01*
X156651324Y-84128946D01*
X156642786Y-84113351D01*
X156566285Y-84011276D01*
X156553724Y-83998715D01*
X156468477Y-83934826D01*
X156425962Y-83877967D01*
X156420936Y-83807148D01*
X156454996Y-83744855D01*
X156517327Y-83710865D01*
X156544042Y-83708000D01*
X163036736Y-83708000D01*
X163104857Y-83728002D01*
X163151350Y-83781658D01*
X163161454Y-83851932D01*
X163131960Y-83916512D01*
X163089986Y-83948195D01*
X162931311Y-84022186D01*
X162931306Y-84022189D01*
X162926324Y-84024512D01*
X162921817Y-84027668D01*
X162921815Y-84027669D01*
X162748730Y-84148864D01*
X162748727Y-84148866D01*
X162744219Y-84152023D01*
X162587023Y-84309219D01*
X162583866Y-84313727D01*
X162583864Y-84313730D01*
X162466177Y-84481805D01*
X162459512Y-84491324D01*
X162457189Y-84496306D01*
X162457186Y-84496311D01*
X162406725Y-84604525D01*
X162365560Y-84692804D01*
X162364138Y-84698112D01*
X162364137Y-84698114D01*
X162355002Y-84732207D01*
X162308022Y-84907537D01*
X162288647Y-85129000D01*
X162308022Y-85350463D01*
X162311897Y-85364925D01*
X162318486Y-85389516D01*
X162316796Y-85460493D01*
X162285874Y-85511222D01*
X156540939Y-91256156D01*
X150815000Y-96982095D01*
X150752688Y-97016121D01*
X150725905Y-97019000D01*
X150359500Y-97019000D01*
X150291379Y-96998998D01*
X150244886Y-96945342D01*
X150233500Y-96893000D01*
X150233500Y-96754366D01*
X150226745Y-96692184D01*
X150175615Y-96555795D01*
X150088261Y-96439239D01*
X149971705Y-96351885D01*
X149852687Y-96307267D01*
X149795923Y-96264625D01*
X149771223Y-96198064D01*
X149786430Y-96128715D01*
X149807977Y-96100035D01*
X149909052Y-95999312D01*
X149915730Y-95991465D01*
X150040003Y-95818520D01*
X150045313Y-95809683D01*
X150139670Y-95618767D01*
X150143469Y-95609172D01*
X150205377Y-95405410D01*
X150207555Y-95395337D01*
X150208986Y-95384462D01*
X150206775Y-95370278D01*
X150193617Y-95366500D01*
X147558225Y-95366500D01*
X147544694Y-95370473D01*
X147543257Y-95380466D01*
X147573565Y-95514946D01*
X147576645Y-95524775D01*
X147656770Y-95722103D01*
X147661413Y-95731294D01*
X147772694Y-95912888D01*
X147778777Y-95921199D01*
X147918213Y-96082167D01*
X147925577Y-96089379D01*
X147930522Y-96093485D01*
X147970156Y-96152389D01*
X147971653Y-96223370D01*
X147934537Y-96283892D01*
X147894264Y-96308410D01*
X147868434Y-96318093D01*
X147797626Y-96323276D01*
X147735110Y-96289206D01*
X145637700Y-94191795D01*
X145603674Y-94129483D01*
X145608739Y-94058667D01*
X145651286Y-94001832D01*
X145717806Y-93977021D01*
X145739634Y-93977356D01*
X145799600Y-93983500D01*
X146700400Y-93983500D01*
X146703646Y-93983163D01*
X146703650Y-93983163D01*
X146799308Y-93973238D01*
X146799312Y-93973237D01*
X146806166Y-93972526D01*
X146812702Y-93970345D01*
X146812704Y-93970345D01*
X146966998Y-93918868D01*
X146973946Y-93916550D01*
X147124348Y-93823478D01*
X147249305Y-93698303D01*
X147305889Y-93606507D01*
X147338275Y-93553968D01*
X147338276Y-93553966D01*
X147342115Y-93547738D01*
X147380264Y-93432722D01*
X147395632Y-93386389D01*
X147395632Y-93386387D01*
X147397797Y-93379861D01*
X147404017Y-93319157D01*
X147430859Y-93253430D01*
X147488974Y-93212648D01*
X147529361Y-93206000D01*
X147599274Y-93206000D01*
X147667395Y-93226002D01*
X147706707Y-93266165D01*
X147774987Y-93377588D01*
X147921250Y-93546438D01*
X148093126Y-93689132D01*
X148110609Y-93699348D01*
X148166955Y-93732274D01*
X148215679Y-93783912D01*
X148228750Y-93853695D01*
X148202019Y-93919467D01*
X148161562Y-93952827D01*
X148153457Y-93957046D01*
X148144738Y-93962536D01*
X147974433Y-94090405D01*
X147966726Y-94097248D01*
X147819590Y-94251217D01*
X147813104Y-94259227D01*
X147693098Y-94435149D01*
X147688000Y-94444123D01*
X147598338Y-94637283D01*
X147594775Y-94646970D01*
X147539389Y-94846683D01*
X147540912Y-94855107D01*
X147553292Y-94858500D01*
X150193344Y-94858500D01*
X150206875Y-94854527D01*
X150208180Y-94845447D01*
X150166214Y-94678375D01*
X150162894Y-94668624D01*
X150077972Y-94473314D01*
X150073105Y-94464239D01*
X149957426Y-94285426D01*
X149951136Y-94277257D01*
X149807806Y-94119740D01*
X149800273Y-94112715D01*
X149633139Y-93980722D01*
X149624556Y-93975020D01*
X149587602Y-93954620D01*
X149537631Y-93904187D01*
X149522859Y-93834745D01*
X149547975Y-93768339D01*
X149575327Y-93741732D01*
X149644948Y-93692072D01*
X149754860Y-93613673D01*
X149801418Y-93567278D01*
X149909435Y-93459637D01*
X149913096Y-93455989D01*
X149916305Y-93451524D01*
X150040435Y-93278777D01*
X150043453Y-93274577D01*
X150047611Y-93266165D01*
X150140136Y-93078953D01*
X150140137Y-93078951D01*
X150142430Y-93074311D01*
X150207370Y-92860569D01*
X150236529Y-92639090D01*
X150237505Y-92599146D01*
X150238074Y-92575865D01*
X150238074Y-92575861D01*
X150238156Y-92572500D01*
X150219852Y-92349861D01*
X150165431Y-92133202D01*
X150076354Y-91928340D01*
X150010554Y-91826629D01*
X149957822Y-91745117D01*
X149957820Y-91745114D01*
X149955014Y-91740777D01*
X149804670Y-91575551D01*
X149800619Y-91572352D01*
X149800615Y-91572348D01*
X149633414Y-91440300D01*
X149633410Y-91440298D01*
X149629359Y-91437098D01*
X149588053Y-91414296D01*
X149538084Y-91363864D01*
X149523312Y-91294421D01*
X149548428Y-91228016D01*
X149575780Y-91201409D01*
X149619603Y-91170150D01*
X149754860Y-91073673D01*
X149791373Y-91037288D01*
X149879825Y-90949144D01*
X149913096Y-90915989D01*
X149959879Y-90850884D01*
X150040435Y-90738777D01*
X150043453Y-90734577D01*
X150047611Y-90726165D01*
X150140136Y-90538953D01*
X150140137Y-90538951D01*
X150142430Y-90534311D01*
X150207370Y-90320569D01*
X150236529Y-90099090D01*
X150238156Y-90032500D01*
X150219852Y-89809861D01*
X150165431Y-89593202D01*
X150076354Y-89388340D01*
X150010149Y-89286003D01*
X149957822Y-89205117D01*
X149957820Y-89205114D01*
X149955014Y-89200777D01*
X149804670Y-89035551D01*
X149800619Y-89032352D01*
X149800615Y-89032348D01*
X149633414Y-88900300D01*
X149633410Y-88900298D01*
X149629359Y-88897098D01*
X149588053Y-88874296D01*
X149538084Y-88823864D01*
X149523312Y-88754421D01*
X149548428Y-88688016D01*
X149575780Y-88661409D01*
X149619603Y-88630150D01*
X149754860Y-88533673D01*
X149801418Y-88487278D01*
X149909435Y-88379637D01*
X149913096Y-88375989D01*
X149978934Y-88284366D01*
X150040435Y-88198777D01*
X150043453Y-88194577D01*
X150047611Y-88186165D01*
X150140136Y-87998953D01*
X150140137Y-87998951D01*
X150142430Y-87994311D01*
X150207370Y-87780569D01*
X150236529Y-87559090D01*
X150238156Y-87492500D01*
X150219852Y-87269861D01*
X150165431Y-87053202D01*
X150076354Y-86848340D01*
X150010149Y-86746003D01*
X149957822Y-86665117D01*
X149957820Y-86665114D01*
X149955014Y-86660777D01*
X149804670Y-86495551D01*
X149800619Y-86492352D01*
X149800615Y-86492348D01*
X149633414Y-86360300D01*
X149633410Y-86360298D01*
X149629359Y-86357098D01*
X149588053Y-86334296D01*
X149538084Y-86283864D01*
X149523312Y-86214421D01*
X149533389Y-86187777D01*
X152201777Y-86187777D01*
X152211074Y-86199793D01*
X152254069Y-86229898D01*
X152263555Y-86235376D01*
X152454993Y-86324645D01*
X152465285Y-86328391D01*
X152669309Y-86383059D01*
X152680104Y-86384962D01*
X152890525Y-86403372D01*
X152901475Y-86403372D01*
X153111896Y-86384962D01*
X153122691Y-86383059D01*
X153326715Y-86328391D01*
X153337007Y-86324645D01*
X153528445Y-86235376D01*
X153537931Y-86229898D01*
X153581764Y-86199207D01*
X153590139Y-86188729D01*
X153583071Y-86175281D01*
X152908812Y-85501022D01*
X152894868Y-85493408D01*
X152893035Y-85493539D01*
X152886420Y-85497790D01*
X152208207Y-86176003D01*
X152201777Y-86187777D01*
X149533389Y-86187777D01*
X149548428Y-86148016D01*
X149575780Y-86121409D01*
X149630129Y-86082642D01*
X149754860Y-85993673D01*
X149775344Y-85973261D01*
X149887203Y-85861792D01*
X149913096Y-85835989D01*
X149947876Y-85787588D01*
X150040435Y-85658777D01*
X150043453Y-85654577D01*
X150071420Y-85597991D01*
X150140136Y-85458953D01*
X150140137Y-85458951D01*
X150142430Y-85454311D01*
X150207370Y-85240569D01*
X150221338Y-85134475D01*
X151621628Y-85134475D01*
X151640038Y-85344896D01*
X151641941Y-85355691D01*
X151696609Y-85559715D01*
X151700355Y-85570007D01*
X151789623Y-85761441D01*
X151795103Y-85770932D01*
X151825794Y-85814765D01*
X151836271Y-85823140D01*
X151849718Y-85816072D01*
X152523978Y-85141812D01*
X152531592Y-85127868D01*
X152531461Y-85126035D01*
X152527210Y-85119420D01*
X151848997Y-84441207D01*
X151837223Y-84434777D01*
X151825207Y-84444074D01*
X151795103Y-84487068D01*
X151789623Y-84496559D01*
X151700355Y-84687993D01*
X151696609Y-84698285D01*
X151641941Y-84902309D01*
X151640038Y-84913104D01*
X151621628Y-85123525D01*
X151621628Y-85134475D01*
X150221338Y-85134475D01*
X150236529Y-85019090D01*
X150238156Y-84952500D01*
X150219852Y-84729861D01*
X150165431Y-84513202D01*
X150076354Y-84308340D01*
X150036906Y-84247362D01*
X149957822Y-84125117D01*
X149957820Y-84125114D01*
X149955014Y-84120777D01*
X149804670Y-83955551D01*
X149775966Y-83932882D01*
X149734903Y-83874965D01*
X149731671Y-83804042D01*
X149767296Y-83742630D01*
X149830467Y-83710228D01*
X149854058Y-83708000D01*
X152369919Y-83708000D01*
X152438040Y-83728002D01*
G37*
G04 #@! TD.AperFunction*
M02*
