G04 #@! TF.GenerationSoftware,KiCad,Pcbnew,6.0.2+dfsg-1*
G04 #@! TF.CreationDate,2022-08-21T17:24:24+02:00*
G04 #@! TF.ProjectId,EspFanPwm,45737046-616e-4507-976d-2e6b69636164,rev?*
G04 #@! TF.SameCoordinates,Original*
G04 #@! TF.FileFunction,Copper,L2,Bot*
G04 #@! TF.FilePolarity,Positive*
%FSLAX46Y46*%
G04 Gerber Fmt 4.6, Leading zero omitted, Abs format (unit mm)*
G04 Created by KiCad (PCBNEW 6.0.2+dfsg-1) date 2022-08-21 17:24:24*
%MOMM*%
%LPD*%
G01*
G04 APERTURE LIST*
G04 #@! TA.AperFunction,ComponentPad*
%ADD10R,1.700000X1.700000*%
G04 #@! TD*
G04 #@! TA.AperFunction,ComponentPad*
%ADD11O,1.700000X1.700000*%
G04 #@! TD*
G04 #@! TA.AperFunction,ComponentPad*
%ADD12C,5.600000*%
G04 #@! TD*
G04 #@! TA.AperFunction,ComponentPad*
%ADD13R,1.600000X1.600000*%
G04 #@! TD*
G04 #@! TA.AperFunction,ComponentPad*
%ADD14C,1.600000*%
G04 #@! TD*
G04 #@! TA.AperFunction,ComponentPad*
%ADD15R,3.000000X3.000000*%
G04 #@! TD*
G04 #@! TA.AperFunction,ComponentPad*
%ADD16C,3.000000*%
G04 #@! TD*
G04 #@! TA.AperFunction,ComponentPad*
%ADD17R,2.000000X2.000000*%
G04 #@! TD*
G04 #@! TA.AperFunction,ComponentPad*
%ADD18O,2.000000X1.600000*%
G04 #@! TD*
G04 #@! TA.AperFunction,ComponentPad*
%ADD19R,1.524000X1.524000*%
G04 #@! TD*
G04 #@! TA.AperFunction,ComponentPad*
%ADD20C,1.524000*%
G04 #@! TD*
G04 #@! TA.AperFunction,Conductor*
%ADD21C,0.250000*%
G04 #@! TD*
G04 APERTURE END LIST*
D10*
X106300000Y-84600000D03*
D11*
X106300000Y-87140000D03*
X106300000Y-89680000D03*
X106300000Y-92220000D03*
X106300000Y-94760000D03*
X106300000Y-97300000D03*
X106300000Y-99840000D03*
X106300000Y-102380000D03*
X106300000Y-104920000D03*
D10*
X148875000Y-97652500D03*
D11*
X148875000Y-95112500D03*
X148875000Y-92572500D03*
X148875000Y-90032500D03*
X148875000Y-87492500D03*
X148875000Y-84952500D03*
X136075000Y-84982500D03*
X136075000Y-87522500D03*
X136075000Y-90062500D03*
X136075000Y-92602500D03*
X136075000Y-95142500D03*
D10*
X136075000Y-97682500D03*
X148925000Y-101100000D03*
D11*
X146385000Y-101100000D03*
X143845000Y-101100000D03*
D12*
X120000000Y-108100000D03*
D13*
X160600000Y-98900000D03*
D14*
X158600000Y-98900000D03*
D10*
X135675000Y-101075000D03*
D11*
X138215000Y-101075000D03*
X140755000Y-101075000D03*
D15*
X148200000Y-107000000D03*
D16*
X143120000Y-107000000D03*
D17*
X109655000Y-84610000D03*
D18*
X109655000Y-87150000D03*
X109655000Y-89690000D03*
X109655000Y-92230000D03*
X109655000Y-94770000D03*
X109655000Y-97310000D03*
X109655000Y-99850000D03*
X109655000Y-102390000D03*
X132515000Y-102390000D03*
X132515000Y-99850000D03*
X132515000Y-97310000D03*
X132515000Y-94770000D03*
X132515000Y-92230000D03*
X132515000Y-89690000D03*
X132515000Y-87150000D03*
X132515000Y-84610000D03*
D10*
X138400000Y-105000000D03*
D11*
X135860000Y-105000000D03*
D10*
X138500000Y-109000000D03*
D11*
X135960000Y-109000000D03*
D12*
X160000000Y-108100000D03*
D19*
X166104000Y-103671000D03*
D20*
X163564000Y-103671000D03*
D19*
X155436000Y-103671000D03*
D20*
X152896000Y-103671000D03*
D19*
X155436000Y-85129000D03*
D20*
X152896000Y-85129000D03*
D19*
X166104000Y-85129000D03*
D20*
X163564000Y-85129000D03*
D12*
X120000000Y-88100000D03*
D21*
X148925000Y-101100000D02*
X150049511Y-99975489D01*
X150049511Y-93747011D02*
X148875000Y-92572500D01*
X150049511Y-99975489D02*
X150049511Y-93747011D01*
X146385000Y-101100000D02*
X146385000Y-92522500D01*
X146385000Y-92522500D02*
X148875000Y-90032500D01*
X143845000Y-92522500D02*
X148875000Y-87492500D01*
X143845000Y-101100000D02*
X143845000Y-92522500D01*
X138215000Y-95612500D02*
X148875000Y-84952500D01*
X138215000Y-101075000D02*
X138215000Y-95612500D01*
X109655000Y-102390000D02*
X113319520Y-98725480D01*
X113319520Y-98725480D02*
X135032020Y-98725480D01*
X135032020Y-98725480D02*
X136075000Y-97682500D01*
G04 #@! TA.AperFunction,Conductor*
G36*
X108088621Y-83728002D02*
G01*
X108135114Y-83781658D01*
X108146500Y-83834000D01*
X108146500Y-85658134D01*
X108153255Y-85720316D01*
X108204385Y-85856705D01*
X108291739Y-85973261D01*
X108408295Y-86060615D01*
X108416704Y-86063767D01*
X108416707Y-86063769D01*
X108432768Y-86069790D01*
X108489533Y-86112431D01*
X108514234Y-86178992D01*
X108499027Y-86248341D01*
X108477635Y-86276867D01*
X108448802Y-86305700D01*
X108445645Y-86310208D01*
X108445643Y-86310211D01*
X108394634Y-86383059D01*
X108317477Y-86493251D01*
X108315154Y-86498233D01*
X108315151Y-86498238D01*
X108241140Y-86656957D01*
X108220716Y-86700757D01*
X108219294Y-86706065D01*
X108219293Y-86706067D01*
X108162881Y-86916598D01*
X108161457Y-86921913D01*
X108141502Y-87150000D01*
X108161457Y-87378087D01*
X108162881Y-87383400D01*
X108162881Y-87383402D01*
X108218885Y-87592408D01*
X108220716Y-87599243D01*
X108223039Y-87604224D01*
X108223039Y-87604225D01*
X108315151Y-87801762D01*
X108315154Y-87801767D01*
X108317477Y-87806749D01*
X108448802Y-87994300D01*
X108610700Y-88156198D01*
X108615208Y-88159355D01*
X108615211Y-88159357D01*
X108665511Y-88194577D01*
X108798251Y-88287523D01*
X108803233Y-88289846D01*
X108803238Y-88289849D01*
X108837457Y-88305805D01*
X108890742Y-88352722D01*
X108910203Y-88420999D01*
X108889661Y-88488959D01*
X108837457Y-88534195D01*
X108803238Y-88550151D01*
X108803233Y-88550154D01*
X108798251Y-88552477D01*
X108787466Y-88560029D01*
X108615211Y-88680643D01*
X108615208Y-88680645D01*
X108610700Y-88683802D01*
X108448802Y-88845700D01*
X108445645Y-88850208D01*
X108445643Y-88850211D01*
X108409011Y-88902527D01*
X108317477Y-89033251D01*
X108315154Y-89038233D01*
X108315151Y-89038238D01*
X108263563Y-89148871D01*
X108220716Y-89240757D01*
X108219294Y-89246065D01*
X108219293Y-89246067D01*
X108162881Y-89456598D01*
X108161457Y-89461913D01*
X108141502Y-89690000D01*
X108161457Y-89918087D01*
X108162881Y-89923400D01*
X108162881Y-89923402D01*
X108218885Y-90132408D01*
X108220716Y-90139243D01*
X108223039Y-90144224D01*
X108223039Y-90144225D01*
X108315151Y-90341762D01*
X108315154Y-90341767D01*
X108317477Y-90346749D01*
X108448802Y-90534300D01*
X108610700Y-90696198D01*
X108615208Y-90699355D01*
X108615211Y-90699357D01*
X108665511Y-90734577D01*
X108798251Y-90827523D01*
X108803233Y-90829846D01*
X108803238Y-90829849D01*
X108837457Y-90845805D01*
X108890742Y-90892722D01*
X108910203Y-90960999D01*
X108889661Y-91028959D01*
X108837457Y-91074195D01*
X108803238Y-91090151D01*
X108803233Y-91090154D01*
X108798251Y-91092477D01*
X108787466Y-91100029D01*
X108615211Y-91220643D01*
X108615208Y-91220645D01*
X108610700Y-91223802D01*
X108448802Y-91385700D01*
X108445645Y-91390208D01*
X108445643Y-91390211D01*
X108409011Y-91442527D01*
X108317477Y-91573251D01*
X108315154Y-91578233D01*
X108315151Y-91578238D01*
X108241140Y-91736957D01*
X108220716Y-91780757D01*
X108219294Y-91786065D01*
X108219293Y-91786067D01*
X108162881Y-91996598D01*
X108161457Y-92001913D01*
X108141502Y-92230000D01*
X108161457Y-92458087D01*
X108162881Y-92463400D01*
X108162881Y-92463402D01*
X108218885Y-92672408D01*
X108220716Y-92679243D01*
X108223039Y-92684224D01*
X108223039Y-92684225D01*
X108315151Y-92881762D01*
X108315154Y-92881767D01*
X108317477Y-92886749D01*
X108448802Y-93074300D01*
X108610700Y-93236198D01*
X108615208Y-93239355D01*
X108615211Y-93239357D01*
X108646368Y-93261173D01*
X108798251Y-93367523D01*
X108803233Y-93369846D01*
X108803238Y-93369849D01*
X108837457Y-93385805D01*
X108890742Y-93432722D01*
X108910203Y-93500999D01*
X108889661Y-93568959D01*
X108837457Y-93614195D01*
X108803238Y-93630151D01*
X108803233Y-93630154D01*
X108798251Y-93632477D01*
X108764991Y-93655766D01*
X108615211Y-93760643D01*
X108615208Y-93760645D01*
X108610700Y-93763802D01*
X108448802Y-93925700D01*
X108445645Y-93930208D01*
X108445643Y-93930211D01*
X108426853Y-93957046D01*
X108317477Y-94113251D01*
X108315154Y-94118233D01*
X108315151Y-94118238D01*
X108227011Y-94307257D01*
X108220716Y-94320757D01*
X108219294Y-94326065D01*
X108219293Y-94326067D01*
X108162881Y-94536598D01*
X108161457Y-94541913D01*
X108141502Y-94770000D01*
X108161457Y-94998087D01*
X108162881Y-95003400D01*
X108162881Y-95003402D01*
X108195806Y-95126277D01*
X108220716Y-95219243D01*
X108223039Y-95224224D01*
X108223039Y-95224225D01*
X108315151Y-95421762D01*
X108315154Y-95421767D01*
X108317477Y-95426749D01*
X108338966Y-95457438D01*
X108433498Y-95592443D01*
X108448802Y-95614300D01*
X108610700Y-95776198D01*
X108615208Y-95779355D01*
X108615211Y-95779357D01*
X108646368Y-95801173D01*
X108798251Y-95907523D01*
X108803233Y-95909846D01*
X108803238Y-95909849D01*
X108837457Y-95925805D01*
X108890742Y-95972722D01*
X108910203Y-96040999D01*
X108889661Y-96108959D01*
X108837457Y-96154195D01*
X108803238Y-96170151D01*
X108803233Y-96170154D01*
X108798251Y-96172477D01*
X108718865Y-96228064D01*
X108615211Y-96300643D01*
X108615208Y-96300645D01*
X108610700Y-96303802D01*
X108448802Y-96465700D01*
X108445645Y-96470208D01*
X108445643Y-96470211D01*
X108441296Y-96476419D01*
X108317477Y-96653251D01*
X108315154Y-96658233D01*
X108315151Y-96658238D01*
X108256337Y-96784366D01*
X108220716Y-96860757D01*
X108219294Y-96866065D01*
X108219293Y-96866067D01*
X108162881Y-97076598D01*
X108161457Y-97081913D01*
X108141502Y-97310000D01*
X108161457Y-97538087D01*
X108162881Y-97543400D01*
X108162881Y-97543402D01*
X108218312Y-97750270D01*
X108220716Y-97759243D01*
X108223039Y-97764224D01*
X108223039Y-97764225D01*
X108315151Y-97961762D01*
X108315154Y-97961767D01*
X108317477Y-97966749D01*
X108338966Y-97997438D01*
X108429775Y-98127126D01*
X108448802Y-98154300D01*
X108610700Y-98316198D01*
X108615208Y-98319355D01*
X108615211Y-98319357D01*
X108646368Y-98341173D01*
X108798251Y-98447523D01*
X108803233Y-98449846D01*
X108803238Y-98449849D01*
X108837457Y-98465805D01*
X108890742Y-98512722D01*
X108910203Y-98580999D01*
X108889661Y-98648959D01*
X108837457Y-98694195D01*
X108803238Y-98710151D01*
X108803233Y-98710154D01*
X108798251Y-98712477D01*
X108723768Y-98764631D01*
X108615211Y-98840643D01*
X108615208Y-98840645D01*
X108610700Y-98843802D01*
X108448802Y-99005700D01*
X108445645Y-99010208D01*
X108445643Y-99010211D01*
X108398243Y-99077905D01*
X108317477Y-99193251D01*
X108315154Y-99198233D01*
X108315151Y-99198238D01*
X108240197Y-99358980D01*
X108220716Y-99400757D01*
X108219294Y-99406065D01*
X108219293Y-99406067D01*
X108163832Y-99613048D01*
X108161457Y-99621913D01*
X108141502Y-99850000D01*
X108161457Y-100078087D01*
X108162881Y-100083400D01*
X108162881Y-100083402D01*
X108213582Y-100272617D01*
X108220716Y-100299243D01*
X108223039Y-100304224D01*
X108223039Y-100304225D01*
X108315151Y-100501762D01*
X108315154Y-100501767D01*
X108317477Y-100506749D01*
X108320634Y-100511257D01*
X108445507Y-100689594D01*
X108448802Y-100694300D01*
X108610700Y-100856198D01*
X108615208Y-100859355D01*
X108615211Y-100859357D01*
X108646368Y-100881173D01*
X108798251Y-100987523D01*
X108803233Y-100989846D01*
X108803238Y-100989849D01*
X108837457Y-101005805D01*
X108890742Y-101052722D01*
X108910203Y-101120999D01*
X108889661Y-101188959D01*
X108837457Y-101234195D01*
X108803238Y-101250151D01*
X108803233Y-101250154D01*
X108798251Y-101252477D01*
X108745070Y-101289715D01*
X108615211Y-101380643D01*
X108615208Y-101380645D01*
X108610700Y-101383802D01*
X108448802Y-101545700D01*
X108445645Y-101550208D01*
X108445643Y-101550211D01*
X108390902Y-101628389D01*
X108317477Y-101733251D01*
X108315154Y-101738233D01*
X108315151Y-101738238D01*
X108235529Y-101908990D01*
X108220716Y-101940757D01*
X108219294Y-101946065D01*
X108219293Y-101946067D01*
X108162881Y-102156598D01*
X108161457Y-102161913D01*
X108141502Y-102390000D01*
X108161457Y-102618087D01*
X108162881Y-102623400D01*
X108162881Y-102623402D01*
X108207866Y-102791285D01*
X108220716Y-102839243D01*
X108223039Y-102844224D01*
X108223039Y-102844225D01*
X108315151Y-103041762D01*
X108315154Y-103041767D01*
X108317477Y-103046749D01*
X108448802Y-103234300D01*
X108610700Y-103396198D01*
X108615208Y-103399355D01*
X108615211Y-103399357D01*
X108646368Y-103421173D01*
X108798251Y-103527523D01*
X108803233Y-103529846D01*
X108803238Y-103529849D01*
X108973705Y-103609338D01*
X109005757Y-103624284D01*
X109011065Y-103625706D01*
X109011067Y-103625707D01*
X109221598Y-103682119D01*
X109221600Y-103682119D01*
X109226913Y-103683543D01*
X109326480Y-103692254D01*
X109395149Y-103698262D01*
X109395156Y-103698262D01*
X109397873Y-103698500D01*
X109912127Y-103698500D01*
X109914844Y-103698262D01*
X109914851Y-103698262D01*
X109983520Y-103692254D01*
X110083087Y-103683543D01*
X110088400Y-103682119D01*
X110088402Y-103682119D01*
X110298933Y-103625707D01*
X110298935Y-103625706D01*
X110304243Y-103624284D01*
X110336295Y-103609338D01*
X110506762Y-103529849D01*
X110506767Y-103529846D01*
X110511749Y-103527523D01*
X110663632Y-103421173D01*
X110694789Y-103399357D01*
X110694792Y-103399355D01*
X110699300Y-103396198D01*
X110861198Y-103234300D01*
X110992523Y-103046749D01*
X110994846Y-103041767D01*
X110994849Y-103041762D01*
X111086961Y-102844225D01*
X111086961Y-102844224D01*
X111089284Y-102839243D01*
X111102135Y-102791285D01*
X111147119Y-102623402D01*
X111147119Y-102623400D01*
X111148543Y-102618087D01*
X111168498Y-102390000D01*
X131001502Y-102390000D01*
X131021457Y-102618087D01*
X131022881Y-102623400D01*
X131022881Y-102623402D01*
X131067866Y-102791285D01*
X131080716Y-102839243D01*
X131083039Y-102844224D01*
X131083039Y-102844225D01*
X131175151Y-103041762D01*
X131175154Y-103041767D01*
X131177477Y-103046749D01*
X131308802Y-103234300D01*
X131470700Y-103396198D01*
X131475208Y-103399355D01*
X131475211Y-103399357D01*
X131506368Y-103421173D01*
X131658251Y-103527523D01*
X131663233Y-103529846D01*
X131663238Y-103529849D01*
X131833705Y-103609338D01*
X131865757Y-103624284D01*
X131871065Y-103625706D01*
X131871067Y-103625707D01*
X132081598Y-103682119D01*
X132081600Y-103682119D01*
X132086913Y-103683543D01*
X132186480Y-103692254D01*
X132255149Y-103698262D01*
X132255156Y-103698262D01*
X132257873Y-103698500D01*
X132772127Y-103698500D01*
X132774844Y-103698262D01*
X132774851Y-103698262D01*
X132843520Y-103692254D01*
X132943087Y-103683543D01*
X132948400Y-103682119D01*
X132948402Y-103682119D01*
X133158933Y-103625707D01*
X133158935Y-103625706D01*
X133164243Y-103624284D01*
X133196295Y-103609338D01*
X133366762Y-103529849D01*
X133366767Y-103529846D01*
X133371749Y-103527523D01*
X133523632Y-103421173D01*
X133554789Y-103399357D01*
X133554792Y-103399355D01*
X133559300Y-103396198D01*
X133721198Y-103234300D01*
X133852523Y-103046749D01*
X133854846Y-103041767D01*
X133854849Y-103041762D01*
X133946961Y-102844225D01*
X133946961Y-102844224D01*
X133949284Y-102839243D01*
X133962135Y-102791285D01*
X134007119Y-102623402D01*
X134007119Y-102623400D01*
X134008543Y-102618087D01*
X134009139Y-102611271D01*
X152201860Y-102611271D01*
X152208928Y-102624718D01*
X152883188Y-103298978D01*
X152897132Y-103306592D01*
X152898965Y-103306461D01*
X152905580Y-103302210D01*
X153583793Y-102623997D01*
X153590223Y-102612223D01*
X153580926Y-102600207D01*
X153537931Y-102570102D01*
X153528445Y-102564624D01*
X153337007Y-102475355D01*
X153326715Y-102471609D01*
X153122691Y-102416941D01*
X153111896Y-102415038D01*
X152901475Y-102396628D01*
X152890525Y-102396628D01*
X152680104Y-102415038D01*
X152669309Y-102416941D01*
X152465285Y-102471609D01*
X152454993Y-102475355D01*
X152263559Y-102564623D01*
X152254068Y-102570103D01*
X152210235Y-102600794D01*
X152201860Y-102611271D01*
X134009139Y-102611271D01*
X134028498Y-102390000D01*
X134008543Y-102161913D01*
X134007119Y-102156598D01*
X133950707Y-101946067D01*
X133950706Y-101946065D01*
X133949284Y-101940757D01*
X133934471Y-101908990D01*
X133854849Y-101738238D01*
X133854846Y-101738233D01*
X133852523Y-101733251D01*
X133779098Y-101628389D01*
X133724357Y-101550211D01*
X133724355Y-101550208D01*
X133721198Y-101545700D01*
X133559300Y-101383802D01*
X133554792Y-101380645D01*
X133554789Y-101380643D01*
X133424930Y-101289715D01*
X133371749Y-101252477D01*
X133366767Y-101250154D01*
X133366762Y-101250151D01*
X133331951Y-101233919D01*
X133278666Y-101187002D01*
X133259205Y-101118725D01*
X133279747Y-101050765D01*
X133331951Y-101005529D01*
X133366511Y-100989414D01*
X133376007Y-100983931D01*
X133554467Y-100858972D01*
X133562875Y-100851916D01*
X133716916Y-100697875D01*
X133723972Y-100689467D01*
X133848931Y-100511007D01*
X133854414Y-100501511D01*
X133946490Y-100304053D01*
X133950236Y-100293761D01*
X133996394Y-100121497D01*
X133996058Y-100107401D01*
X133988116Y-100104000D01*
X131047033Y-100104000D01*
X131033502Y-100107973D01*
X131032273Y-100116522D01*
X131079764Y-100293761D01*
X131083510Y-100304053D01*
X131175586Y-100501511D01*
X131181069Y-100511007D01*
X131306028Y-100689467D01*
X131313084Y-100697875D01*
X131467125Y-100851916D01*
X131475533Y-100858972D01*
X131653993Y-100983931D01*
X131663489Y-100989414D01*
X131698049Y-101005529D01*
X131751334Y-101052446D01*
X131770795Y-101120723D01*
X131750253Y-101188683D01*
X131698049Y-101233919D01*
X131663238Y-101250151D01*
X131663233Y-101250154D01*
X131658251Y-101252477D01*
X131605070Y-101289715D01*
X131475211Y-101380643D01*
X131475208Y-101380645D01*
X131470700Y-101383802D01*
X131308802Y-101545700D01*
X131305645Y-101550208D01*
X131305643Y-101550211D01*
X131250902Y-101628389D01*
X131177477Y-101733251D01*
X131175154Y-101738233D01*
X131175151Y-101738238D01*
X131095529Y-101908990D01*
X131080716Y-101940757D01*
X131079294Y-101946065D01*
X131079293Y-101946067D01*
X131022881Y-102156598D01*
X131021457Y-102161913D01*
X131001502Y-102390000D01*
X111168498Y-102390000D01*
X111148543Y-102161913D01*
X111145979Y-102152342D01*
X111089284Y-101940757D01*
X111091418Y-101940185D01*
X111088594Y-101878151D01*
X111121885Y-101819019D01*
X112329499Y-100611406D01*
X113545020Y-99395885D01*
X113607332Y-99361859D01*
X113634115Y-99358980D01*
X130928221Y-99358980D01*
X130996342Y-99378982D01*
X131042835Y-99432638D01*
X131052939Y-99502912D01*
X131049928Y-99517592D01*
X131033606Y-99578504D01*
X131033942Y-99592599D01*
X131041884Y-99596000D01*
X133982967Y-99596000D01*
X133996498Y-99592027D01*
X133997727Y-99583479D01*
X133980072Y-99517592D01*
X133981762Y-99446615D01*
X134021556Y-99387819D01*
X134086820Y-99359871D01*
X134101779Y-99358980D01*
X134953253Y-99358980D01*
X134964436Y-99359507D01*
X134971929Y-99361182D01*
X134979855Y-99360933D01*
X134979856Y-99360933D01*
X135040006Y-99359042D01*
X135043965Y-99358980D01*
X135071876Y-99358980D01*
X135075811Y-99358483D01*
X135075876Y-99358475D01*
X135087713Y-99357542D01*
X135119971Y-99356528D01*
X135123990Y-99356402D01*
X135131909Y-99356153D01*
X135151363Y-99350501D01*
X135170720Y-99346493D01*
X135182950Y-99344948D01*
X135182951Y-99344948D01*
X135190817Y-99343954D01*
X135198188Y-99341035D01*
X135198190Y-99341035D01*
X135231932Y-99327676D01*
X135243162Y-99323831D01*
X135278003Y-99313709D01*
X135278004Y-99313709D01*
X135285613Y-99311498D01*
X135292432Y-99307465D01*
X135292437Y-99307463D01*
X135303048Y-99301187D01*
X135320796Y-99292492D01*
X135339637Y-99285032D01*
X135375407Y-99259044D01*
X135385327Y-99252528D01*
X135416555Y-99234060D01*
X135416558Y-99234058D01*
X135423382Y-99230022D01*
X135437703Y-99215701D01*
X135452737Y-99202860D01*
X135469127Y-99190952D01*
X135497318Y-99156875D01*
X135505308Y-99148096D01*
X135575499Y-99077905D01*
X135637811Y-99043879D01*
X135664594Y-99041000D01*
X136973134Y-99041000D01*
X137035316Y-99034245D01*
X137171705Y-98983115D01*
X137288261Y-98895761D01*
X137354675Y-98807145D01*
X137411533Y-98764631D01*
X137482351Y-98759605D01*
X137544645Y-98793665D01*
X137578635Y-98855996D01*
X137581500Y-98882711D01*
X137581500Y-99796692D01*
X137561498Y-99864813D01*
X137513683Y-99908453D01*
X137488607Y-99921507D01*
X137484474Y-99924610D01*
X137484471Y-99924612D01*
X137316226Y-100050934D01*
X137309965Y-100055635D01*
X137233897Y-100135236D01*
X137229283Y-100140064D01*
X137167759Y-100175494D01*
X137096846Y-100172037D01*
X137039060Y-100130791D01*
X137020207Y-100097243D01*
X136978767Y-99986703D01*
X136975615Y-99978295D01*
X136888261Y-99861739D01*
X136771705Y-99774385D01*
X136635316Y-99723255D01*
X136573134Y-99716500D01*
X134776866Y-99716500D01*
X134714684Y-99723255D01*
X134578295Y-99774385D01*
X134461739Y-99861739D01*
X134374385Y-99978295D01*
X134323255Y-100114684D01*
X134316500Y-100176866D01*
X134316500Y-101973134D01*
X134323255Y-102035316D01*
X134374385Y-102171705D01*
X134461739Y-102288261D01*
X134578295Y-102375615D01*
X134714684Y-102426745D01*
X134776866Y-102433500D01*
X136573134Y-102433500D01*
X136635316Y-102426745D01*
X136771705Y-102375615D01*
X136888261Y-102288261D01*
X136975615Y-102171705D01*
X137010616Y-102078341D01*
X137019598Y-102054382D01*
X137062240Y-101997618D01*
X137128802Y-101972918D01*
X137198150Y-101988126D01*
X137232817Y-102016114D01*
X137261250Y-102048938D01*
X137433126Y-102191632D01*
X137626000Y-102304338D01*
X137834692Y-102384030D01*
X137839760Y-102385061D01*
X137839763Y-102385062D01*
X137940097Y-102405475D01*
X138053597Y-102428567D01*
X138058772Y-102428757D01*
X138058774Y-102428757D01*
X138271673Y-102436564D01*
X138271677Y-102436564D01*
X138276837Y-102436753D01*
X138281957Y-102436097D01*
X138281959Y-102436097D01*
X138493288Y-102409025D01*
X138493289Y-102409025D01*
X138498416Y-102408368D01*
X138521745Y-102401369D01*
X138707429Y-102345661D01*
X138707434Y-102345659D01*
X138712384Y-102344174D01*
X138912994Y-102245896D01*
X139094860Y-102116173D01*
X139132825Y-102078341D01*
X139238616Y-101972918D01*
X139253096Y-101958489D01*
X139262272Y-101945720D01*
X139383453Y-101777077D01*
X139384776Y-101778028D01*
X139431645Y-101734857D01*
X139501580Y-101722625D01*
X139567026Y-101750144D01*
X139594875Y-101781994D01*
X139654987Y-101880088D01*
X139801250Y-102048938D01*
X139973126Y-102191632D01*
X140166000Y-102304338D01*
X140374692Y-102384030D01*
X140379760Y-102385061D01*
X140379763Y-102385062D01*
X140480097Y-102405475D01*
X140593597Y-102428567D01*
X140598772Y-102428757D01*
X140598774Y-102428757D01*
X140811673Y-102436564D01*
X140811677Y-102436564D01*
X140816837Y-102436753D01*
X140821957Y-102436097D01*
X140821959Y-102436097D01*
X141033288Y-102409025D01*
X141033289Y-102409025D01*
X141038416Y-102408368D01*
X141061745Y-102401369D01*
X141247429Y-102345661D01*
X141247434Y-102345659D01*
X141252384Y-102344174D01*
X141452994Y-102245896D01*
X141634860Y-102116173D01*
X141672825Y-102078341D01*
X141778616Y-101972918D01*
X141793096Y-101958489D01*
X141802272Y-101945720D01*
X141920435Y-101781277D01*
X141923453Y-101777077D01*
X141942649Y-101738238D01*
X142020136Y-101581453D01*
X142020137Y-101581451D01*
X142022430Y-101576811D01*
X142087370Y-101363069D01*
X142116529Y-101141590D01*
X142116650Y-101136638D01*
X142118074Y-101078365D01*
X142118074Y-101078361D01*
X142118156Y-101075000D01*
X142099852Y-100852361D01*
X142045431Y-100635702D01*
X141956354Y-100430840D01*
X141882403Y-100316529D01*
X141837822Y-100247617D01*
X141837820Y-100247614D01*
X141835014Y-100243277D01*
X141684670Y-100078051D01*
X141680619Y-100074852D01*
X141680615Y-100074848D01*
X141513414Y-99942800D01*
X141513410Y-99942798D01*
X141509359Y-99939598D01*
X141504831Y-99937098D01*
X141419173Y-99889813D01*
X141313789Y-99831638D01*
X141308920Y-99829914D01*
X141308916Y-99829912D01*
X141108087Y-99758795D01*
X141108083Y-99758794D01*
X141103212Y-99757069D01*
X141098119Y-99756162D01*
X141098116Y-99756161D01*
X140888373Y-99718800D01*
X140888367Y-99718799D01*
X140883284Y-99717894D01*
X140809452Y-99716992D01*
X140665081Y-99715228D01*
X140665079Y-99715228D01*
X140659911Y-99715165D01*
X140439091Y-99748955D01*
X140226756Y-99818357D01*
X140196443Y-99834137D01*
X140052975Y-99908822D01*
X140028607Y-99921507D01*
X140024474Y-99924610D01*
X140024471Y-99924612D01*
X139856226Y-100050934D01*
X139849965Y-100055635D01*
X139824894Y-100081870D01*
X139701926Y-100210549D01*
X139695629Y-100217138D01*
X139588201Y-100374621D01*
X139533293Y-100419621D01*
X139462768Y-100427792D01*
X139399021Y-100396538D01*
X139378324Y-100372054D01*
X139297822Y-100247617D01*
X139297820Y-100247614D01*
X139295014Y-100243277D01*
X139144670Y-100078051D01*
X139140619Y-100074852D01*
X139140615Y-100074848D01*
X138973414Y-99942800D01*
X138973410Y-99942798D01*
X138969359Y-99939598D01*
X138964835Y-99937101D01*
X138964831Y-99937098D01*
X138913608Y-99908822D01*
X138863636Y-99858390D01*
X138848500Y-99798513D01*
X138848500Y-95927094D01*
X138868502Y-95858973D01*
X138885405Y-95837999D01*
X147300019Y-87423385D01*
X147362331Y-87389359D01*
X147433146Y-87394424D01*
X147489982Y-87436971D01*
X147514905Y-87505227D01*
X147519932Y-87592408D01*
X147525110Y-87682215D01*
X147526247Y-87687261D01*
X147526248Y-87687267D01*
X147537139Y-87735592D01*
X147555153Y-87815523D01*
X147558453Y-87830168D01*
X147553917Y-87901020D01*
X147524631Y-87946964D01*
X143452747Y-92018848D01*
X143444461Y-92026388D01*
X143437982Y-92030500D01*
X143432557Y-92036277D01*
X143391357Y-92080151D01*
X143388602Y-92082993D01*
X143368865Y-92102730D01*
X143366385Y-92105927D01*
X143358682Y-92114947D01*
X143328414Y-92147179D01*
X143324595Y-92154125D01*
X143324593Y-92154128D01*
X143318652Y-92164934D01*
X143307801Y-92181453D01*
X143295386Y-92197459D01*
X143292241Y-92204728D01*
X143292238Y-92204732D01*
X143277826Y-92238037D01*
X143272609Y-92248687D01*
X143251305Y-92287440D01*
X143249334Y-92295115D01*
X143249334Y-92295116D01*
X143246267Y-92307062D01*
X143239863Y-92325766D01*
X143231819Y-92344355D01*
X143230580Y-92352178D01*
X143230577Y-92352188D01*
X143224901Y-92388024D01*
X143222495Y-92399644D01*
X143211500Y-92442470D01*
X143211500Y-92462724D01*
X143209949Y-92482434D01*
X143206780Y-92502443D01*
X143207526Y-92510335D01*
X143210941Y-92546461D01*
X143211500Y-92558319D01*
X143211500Y-99821692D01*
X143191498Y-99889813D01*
X143143683Y-99933453D01*
X143118607Y-99946507D01*
X143114474Y-99949610D01*
X143114471Y-99949612D01*
X142944100Y-100077530D01*
X142939965Y-100080635D01*
X142914498Y-100107285D01*
X142809520Y-100217138D01*
X142785629Y-100242138D01*
X142782720Y-100246403D01*
X142782714Y-100246411D01*
X142777196Y-100254500D01*
X142659743Y-100426680D01*
X142565688Y-100629305D01*
X142505989Y-100844570D01*
X142482251Y-101066695D01*
X142482548Y-101071848D01*
X142482548Y-101071851D01*
X142491893Y-101233919D01*
X142495110Y-101289715D01*
X142496247Y-101294761D01*
X142496248Y-101294767D01*
X142510485Y-101357939D01*
X142544222Y-101507639D01*
X142628266Y-101714616D01*
X142665685Y-101775678D01*
X142742291Y-101900688D01*
X142744987Y-101905088D01*
X142891250Y-102073938D01*
X143063126Y-102216632D01*
X143256000Y-102329338D01*
X143260825Y-102331180D01*
X143260826Y-102331181D01*
X143333612Y-102358975D01*
X143464692Y-102409030D01*
X143469760Y-102410061D01*
X143469763Y-102410062D01*
X143577017Y-102431883D01*
X143683597Y-102453567D01*
X143688772Y-102453757D01*
X143688774Y-102453757D01*
X143901673Y-102461564D01*
X143901677Y-102461564D01*
X143906837Y-102461753D01*
X143911957Y-102461097D01*
X143911959Y-102461097D01*
X144123288Y-102434025D01*
X144123289Y-102434025D01*
X144128416Y-102433368D01*
X144143785Y-102428757D01*
X144337429Y-102370661D01*
X144337434Y-102370659D01*
X144342384Y-102369174D01*
X144542994Y-102270896D01*
X144724860Y-102141173D01*
X144883096Y-101983489D01*
X144913842Y-101940702D01*
X145013453Y-101802077D01*
X145014776Y-101803028D01*
X145061645Y-101759857D01*
X145131580Y-101747625D01*
X145197026Y-101775144D01*
X145224875Y-101806994D01*
X145284987Y-101905088D01*
X145431250Y-102073938D01*
X145603126Y-102216632D01*
X145796000Y-102329338D01*
X145800825Y-102331180D01*
X145800826Y-102331181D01*
X145873612Y-102358975D01*
X146004692Y-102409030D01*
X146009760Y-102410061D01*
X146009763Y-102410062D01*
X146117017Y-102431883D01*
X146223597Y-102453567D01*
X146228772Y-102453757D01*
X146228774Y-102453757D01*
X146441673Y-102461564D01*
X146441677Y-102461564D01*
X146446837Y-102461753D01*
X146451957Y-102461097D01*
X146451959Y-102461097D01*
X146663288Y-102434025D01*
X146663289Y-102434025D01*
X146668416Y-102433368D01*
X146683785Y-102428757D01*
X146877429Y-102370661D01*
X146877434Y-102370659D01*
X146882384Y-102369174D01*
X147082994Y-102270896D01*
X147264860Y-102141173D01*
X147373091Y-102033319D01*
X147435462Y-101999404D01*
X147506268Y-102004592D01*
X147563030Y-102047238D01*
X147580012Y-102078341D01*
X147609636Y-102157361D01*
X147624385Y-102196705D01*
X147711739Y-102313261D01*
X147828295Y-102400615D01*
X147964684Y-102451745D01*
X148026866Y-102458500D01*
X149823134Y-102458500D01*
X149885316Y-102451745D01*
X150021705Y-102400615D01*
X150138261Y-102313261D01*
X150225615Y-102196705D01*
X150276745Y-102060316D01*
X150283500Y-101998134D01*
X150283500Y-100689594D01*
X150303502Y-100621473D01*
X150320405Y-100600499D01*
X150441758Y-100479146D01*
X150450048Y-100471602D01*
X150456529Y-100467489D01*
X150503170Y-100417821D01*
X150505924Y-100414980D01*
X150525646Y-100395258D01*
X150528130Y-100392056D01*
X150535828Y-100383044D01*
X150560672Y-100356587D01*
X150566097Y-100350810D01*
X150575858Y-100333055D01*
X150586709Y-100316536D01*
X150599125Y-100300530D01*
X150616685Y-100259952D01*
X150621902Y-100249302D01*
X150643206Y-100210549D01*
X150645248Y-100202598D01*
X150648244Y-100190927D01*
X150654648Y-100172223D01*
X150659544Y-100160909D01*
X150659544Y-100160908D01*
X150662692Y-100153634D01*
X150663931Y-100145811D01*
X150663934Y-100145801D01*
X150669610Y-100109965D01*
X150672016Y-100098345D01*
X150681039Y-100063200D01*
X150681039Y-100063199D01*
X150683011Y-100055519D01*
X150683011Y-100035265D01*
X150684562Y-100015554D01*
X150686491Y-100003375D01*
X150687731Y-99995546D01*
X150686835Y-99986062D01*
X157878493Y-99986062D01*
X157887789Y-99998077D01*
X157938994Y-100033931D01*
X157948489Y-100039414D01*
X158145947Y-100131490D01*
X158156239Y-100135236D01*
X158366688Y-100191625D01*
X158377481Y-100193528D01*
X158594525Y-100212517D01*
X158605475Y-100212517D01*
X158822519Y-100193528D01*
X158833312Y-100191625D01*
X159043761Y-100135236D01*
X159054053Y-100131490D01*
X159251511Y-100039414D01*
X159261011Y-100033929D01*
X159261910Y-100033299D01*
X159262370Y-100033144D01*
X159265768Y-100031182D01*
X159266162Y-100031865D01*
X159329184Y-100010612D01*
X159398044Y-100027898D01*
X159423803Y-100050934D01*
X159425007Y-100049730D01*
X159431358Y-100056081D01*
X159436739Y-100063261D01*
X159443919Y-100068642D01*
X159443922Y-100068645D01*
X159491097Y-100104000D01*
X159553295Y-100150615D01*
X159689684Y-100201745D01*
X159751866Y-100208500D01*
X161448134Y-100208500D01*
X161510316Y-100201745D01*
X161646705Y-100150615D01*
X161763261Y-100063261D01*
X161850615Y-99946705D01*
X161901745Y-99810316D01*
X161908500Y-99748134D01*
X161908500Y-98051866D01*
X161901745Y-97989684D01*
X161850615Y-97853295D01*
X161763261Y-97736739D01*
X161646705Y-97649385D01*
X161510316Y-97598255D01*
X161448134Y-97591500D01*
X159751866Y-97591500D01*
X159689684Y-97598255D01*
X159553295Y-97649385D01*
X159532775Y-97664764D01*
X159443922Y-97731355D01*
X159443919Y-97731358D01*
X159436739Y-97736739D01*
X159431358Y-97743919D01*
X159425007Y-97750270D01*
X159422865Y-97748128D01*
X159378154Y-97781564D01*
X159307336Y-97786594D01*
X159265965Y-97768477D01*
X159265768Y-97768818D01*
X159262702Y-97767048D01*
X159261910Y-97766701D01*
X159261011Y-97766071D01*
X159251511Y-97760586D01*
X159054053Y-97668510D01*
X159043761Y-97664764D01*
X158833312Y-97608375D01*
X158822519Y-97606472D01*
X158605475Y-97587483D01*
X158594525Y-97587483D01*
X158377481Y-97606472D01*
X158366688Y-97608375D01*
X158156239Y-97664764D01*
X158145947Y-97668510D01*
X157948489Y-97760586D01*
X157938994Y-97766069D01*
X157886952Y-97802509D01*
X157878576Y-97812988D01*
X157885644Y-97826434D01*
X158870115Y-98810905D01*
X158904141Y-98873217D01*
X158899076Y-98944032D01*
X158870115Y-98989095D01*
X157884923Y-99974287D01*
X157878493Y-99986062D01*
X150686835Y-99986062D01*
X150683570Y-99951528D01*
X150683011Y-99939670D01*
X150683011Y-98905475D01*
X157287483Y-98905475D01*
X157306472Y-99122519D01*
X157308375Y-99133312D01*
X157364764Y-99343761D01*
X157368510Y-99354053D01*
X157460586Y-99551511D01*
X157466069Y-99561006D01*
X157502509Y-99613048D01*
X157512988Y-99621424D01*
X157526434Y-99614356D01*
X158227978Y-98912812D01*
X158235592Y-98898868D01*
X158235461Y-98897035D01*
X158231210Y-98890420D01*
X157525713Y-98184923D01*
X157513938Y-98178493D01*
X157501923Y-98187789D01*
X157466069Y-98238994D01*
X157460586Y-98248489D01*
X157368510Y-98445947D01*
X157364764Y-98456239D01*
X157308375Y-98666688D01*
X157306472Y-98677481D01*
X157287483Y-98894525D01*
X157287483Y-98905475D01*
X150683011Y-98905475D01*
X150683011Y-93825774D01*
X150683538Y-93814590D01*
X150685212Y-93807102D01*
X150683073Y-93739043D01*
X150683011Y-93735086D01*
X150683011Y-93707155D01*
X150682505Y-93703149D01*
X150681572Y-93691303D01*
X150680433Y-93655048D01*
X150680184Y-93647121D01*
X150674533Y-93627669D01*
X150670525Y-93608317D01*
X150668979Y-93596079D01*
X150668978Y-93596077D01*
X150667985Y-93588214D01*
X150651705Y-93547097D01*
X150647870Y-93535896D01*
X150635529Y-93493417D01*
X150631496Y-93486598D01*
X150631494Y-93486593D01*
X150625218Y-93475982D01*
X150616521Y-93458232D01*
X150609063Y-93439394D01*
X150604216Y-93432722D01*
X150583083Y-93403636D01*
X150576564Y-93393712D01*
X150558089Y-93362471D01*
X150558085Y-93362466D01*
X150554053Y-93355648D01*
X150539729Y-93341324D01*
X150526887Y-93326289D01*
X150514983Y-93309904D01*
X150480917Y-93281722D01*
X150472138Y-93273733D01*
X150226218Y-93027813D01*
X150192192Y-92965501D01*
X150194755Y-92902089D01*
X150205865Y-92865522D01*
X150207370Y-92860569D01*
X150236529Y-92639090D01*
X150238156Y-92572500D01*
X150219852Y-92349861D01*
X150165431Y-92133202D01*
X150076354Y-91928340D01*
X150036906Y-91867362D01*
X149957822Y-91745117D01*
X149957820Y-91745114D01*
X149955014Y-91740777D01*
X149804670Y-91575551D01*
X149800619Y-91572352D01*
X149800615Y-91572348D01*
X149633414Y-91440300D01*
X149633410Y-91440298D01*
X149629359Y-91437098D01*
X149588053Y-91414296D01*
X149538084Y-91363864D01*
X149523312Y-91294421D01*
X149548428Y-91228016D01*
X149575780Y-91201409D01*
X149712801Y-91103673D01*
X149754860Y-91073673D01*
X149791373Y-91037288D01*
X149909435Y-90919637D01*
X149913096Y-90915989D01*
X149947876Y-90867588D01*
X150040435Y-90738777D01*
X150043453Y-90734577D01*
X150092438Y-90635464D01*
X150140136Y-90538953D01*
X150140137Y-90538951D01*
X150142430Y-90534311D01*
X150207370Y-90320569D01*
X150236529Y-90099090D01*
X150238156Y-90032500D01*
X150219852Y-89809861D01*
X150165431Y-89593202D01*
X150076354Y-89388340D01*
X150036906Y-89327362D01*
X149957822Y-89205117D01*
X149957820Y-89205114D01*
X149955014Y-89200777D01*
X149804670Y-89035551D01*
X149800619Y-89032352D01*
X149800615Y-89032348D01*
X149633414Y-88900300D01*
X149633410Y-88900298D01*
X149629359Y-88897098D01*
X149588053Y-88874296D01*
X149538084Y-88823864D01*
X149523312Y-88754421D01*
X149548428Y-88688016D01*
X149575780Y-88661409D01*
X149712801Y-88563673D01*
X149754860Y-88533673D01*
X149801418Y-88487278D01*
X149909435Y-88379637D01*
X149913096Y-88375989D01*
X149947876Y-88327588D01*
X150040435Y-88198777D01*
X150043453Y-88194577D01*
X150091662Y-88097034D01*
X150140136Y-87998953D01*
X150140137Y-87998951D01*
X150142430Y-87994311D01*
X150207370Y-87780569D01*
X150236529Y-87559090D01*
X150238156Y-87492500D01*
X150219852Y-87269861D01*
X150165431Y-87053202D01*
X150076354Y-86848340D01*
X149989173Y-86713578D01*
X149957822Y-86665117D01*
X149957820Y-86665114D01*
X149955014Y-86660777D01*
X149804670Y-86495551D01*
X149800619Y-86492352D01*
X149800615Y-86492348D01*
X149633414Y-86360300D01*
X149633410Y-86360298D01*
X149629359Y-86357098D01*
X149588053Y-86334296D01*
X149538084Y-86283864D01*
X149523312Y-86214421D01*
X149533389Y-86187777D01*
X152201777Y-86187777D01*
X152211074Y-86199793D01*
X152254069Y-86229898D01*
X152263555Y-86235376D01*
X152454993Y-86324645D01*
X152465285Y-86328391D01*
X152669309Y-86383059D01*
X152680104Y-86384962D01*
X152890525Y-86403372D01*
X152901475Y-86403372D01*
X153111896Y-86384962D01*
X153122691Y-86383059D01*
X153326715Y-86328391D01*
X153337007Y-86324645D01*
X153528445Y-86235376D01*
X153537931Y-86229898D01*
X153581764Y-86199207D01*
X153590139Y-86188729D01*
X153583071Y-86175281D01*
X152908812Y-85501022D01*
X152894868Y-85493408D01*
X152893035Y-85493539D01*
X152886420Y-85497790D01*
X152208207Y-86176003D01*
X152201777Y-86187777D01*
X149533389Y-86187777D01*
X149548428Y-86148016D01*
X149575780Y-86121409D01*
X149712801Y-86023673D01*
X149754860Y-85993673D01*
X149775344Y-85973261D01*
X149887203Y-85861792D01*
X149913096Y-85835989D01*
X149947876Y-85787588D01*
X150040435Y-85658777D01*
X150043453Y-85654577D01*
X150071420Y-85597991D01*
X150140136Y-85458953D01*
X150140137Y-85458951D01*
X150142430Y-85454311D01*
X150207370Y-85240569D01*
X150221338Y-85134475D01*
X151621628Y-85134475D01*
X151640038Y-85344896D01*
X151641941Y-85355691D01*
X151696609Y-85559715D01*
X151700355Y-85570007D01*
X151789623Y-85761441D01*
X151795103Y-85770932D01*
X151825794Y-85814765D01*
X151836271Y-85823140D01*
X151849718Y-85816072D01*
X152523978Y-85141812D01*
X152531592Y-85127868D01*
X152531461Y-85126035D01*
X152527210Y-85119420D01*
X151848997Y-84441207D01*
X151837223Y-84434777D01*
X151825207Y-84444074D01*
X151795103Y-84487068D01*
X151789623Y-84496559D01*
X151700355Y-84687993D01*
X151696609Y-84698285D01*
X151641941Y-84902309D01*
X151640038Y-84913104D01*
X151621628Y-85123525D01*
X151621628Y-85134475D01*
X150221338Y-85134475D01*
X150236529Y-85019090D01*
X150238156Y-84952500D01*
X150219852Y-84729861D01*
X150165431Y-84513202D01*
X150076354Y-84308340D01*
X150036906Y-84247362D01*
X149957822Y-84125117D01*
X149957820Y-84125114D01*
X149955014Y-84120777D01*
X149804670Y-83955551D01*
X149775966Y-83932882D01*
X149734903Y-83874965D01*
X149731671Y-83804042D01*
X149767296Y-83742630D01*
X149830467Y-83710228D01*
X149854058Y-83708000D01*
X152369919Y-83708000D01*
X152438040Y-83728002D01*
X152484533Y-83781658D01*
X152494637Y-83851932D01*
X152465143Y-83916512D01*
X152423169Y-83948195D01*
X152263559Y-84022623D01*
X152254068Y-84028103D01*
X152210235Y-84058794D01*
X152201860Y-84069271D01*
X152208928Y-84082718D01*
X152883188Y-84756978D01*
X152897132Y-84764592D01*
X152898965Y-84764461D01*
X152905580Y-84760210D01*
X153583793Y-84081997D01*
X153590223Y-84070223D01*
X153580926Y-84058207D01*
X153537931Y-84028102D01*
X153528445Y-84022624D01*
X153368831Y-83948195D01*
X153315546Y-83901278D01*
X153296085Y-83833000D01*
X153316627Y-83765040D01*
X153370650Y-83718975D01*
X153422081Y-83708000D01*
X154327958Y-83708000D01*
X154396079Y-83728002D01*
X154442572Y-83781658D01*
X154452676Y-83851932D01*
X154423182Y-83916512D01*
X154403523Y-83934826D01*
X154318276Y-83998715D01*
X154305715Y-84011276D01*
X154229214Y-84113351D01*
X154220676Y-84128946D01*
X154175522Y-84249394D01*
X154171895Y-84264649D01*
X154166369Y-84315514D01*
X154166000Y-84322328D01*
X154166000Y-84340915D01*
X154145998Y-84409036D01*
X154092342Y-84455529D01*
X154022068Y-84465633D01*
X153961327Y-84439335D01*
X153955729Y-84434860D01*
X153942282Y-84441928D01*
X153268022Y-85116188D01*
X153260408Y-85130132D01*
X153260539Y-85131965D01*
X153264790Y-85138580D01*
X153943003Y-85816793D01*
X153954778Y-85823223D01*
X153962900Y-85816939D01*
X154029018Y-85791075D01*
X154098623Y-85805062D01*
X154149616Y-85854461D01*
X154166001Y-85916595D01*
X154166001Y-85935669D01*
X154166371Y-85942490D01*
X154171895Y-85993352D01*
X154175521Y-86008604D01*
X154220676Y-86129054D01*
X154229214Y-86144649D01*
X154305715Y-86246724D01*
X154318276Y-86259285D01*
X154420351Y-86335786D01*
X154435946Y-86344324D01*
X154556394Y-86389478D01*
X154571649Y-86393105D01*
X154622514Y-86398631D01*
X154629328Y-86399000D01*
X155163885Y-86399000D01*
X155179124Y-86394525D01*
X155180329Y-86393135D01*
X155182000Y-86385452D01*
X155182000Y-86380884D01*
X155690000Y-86380884D01*
X155694475Y-86396123D01*
X155695865Y-86397328D01*
X155703548Y-86398999D01*
X156242669Y-86398999D01*
X156249490Y-86398629D01*
X156300352Y-86393105D01*
X156315604Y-86389479D01*
X156436054Y-86344324D01*
X156451649Y-86335786D01*
X156553724Y-86259285D01*
X156566285Y-86246724D01*
X156642786Y-86144649D01*
X156651324Y-86129054D01*
X156696478Y-86008606D01*
X156700105Y-85993351D01*
X156705631Y-85942486D01*
X156706000Y-85935672D01*
X156706000Y-85401115D01*
X156701525Y-85385876D01*
X156700135Y-85384671D01*
X156692452Y-85383000D01*
X155708115Y-85383000D01*
X155692876Y-85387475D01*
X155691671Y-85388865D01*
X155690000Y-85396548D01*
X155690000Y-86380884D01*
X155182000Y-86380884D01*
X155182000Y-85001000D01*
X155202002Y-84932879D01*
X155255658Y-84886386D01*
X155308000Y-84875000D01*
X156687884Y-84875000D01*
X156703123Y-84870525D01*
X156704328Y-84869135D01*
X156705999Y-84861452D01*
X156705999Y-84322331D01*
X156705629Y-84315510D01*
X156700105Y-84264648D01*
X156696479Y-84249396D01*
X156651324Y-84128946D01*
X156642786Y-84113351D01*
X156566285Y-84011276D01*
X156553724Y-83998715D01*
X156468477Y-83934826D01*
X156425962Y-83877967D01*
X156420936Y-83807148D01*
X156454996Y-83744855D01*
X156517327Y-83710865D01*
X156544042Y-83708000D01*
X163036736Y-83708000D01*
X163104857Y-83728002D01*
X163151350Y-83781658D01*
X163161454Y-83851932D01*
X163131960Y-83916512D01*
X163089986Y-83948195D01*
X162931311Y-84022186D01*
X162931306Y-84022189D01*
X162926324Y-84024512D01*
X162921817Y-84027668D01*
X162921815Y-84027669D01*
X162748730Y-84148864D01*
X162748727Y-84148866D01*
X162744219Y-84152023D01*
X162587023Y-84309219D01*
X162583866Y-84313727D01*
X162583864Y-84313730D01*
X162466177Y-84481805D01*
X162459512Y-84491324D01*
X162457189Y-84496306D01*
X162457186Y-84496311D01*
X162406725Y-84604525D01*
X162365560Y-84692804D01*
X162364138Y-84698112D01*
X162364137Y-84698114D01*
X162355002Y-84732207D01*
X162308022Y-84907537D01*
X162288647Y-85129000D01*
X162308022Y-85350463D01*
X162365560Y-85565196D01*
X162367882Y-85570177D01*
X162367883Y-85570178D01*
X162457186Y-85761689D01*
X162457189Y-85761694D01*
X162459512Y-85766676D01*
X162462668Y-85771183D01*
X162462669Y-85771185D01*
X162582647Y-85942531D01*
X162587023Y-85948781D01*
X162744219Y-86105977D01*
X162748727Y-86109134D01*
X162748730Y-86109136D01*
X162803804Y-86147699D01*
X162926323Y-86233488D01*
X162931305Y-86235811D01*
X162931310Y-86235814D01*
X163090856Y-86310211D01*
X163127804Y-86327440D01*
X163133112Y-86328862D01*
X163133114Y-86328863D01*
X163180705Y-86341615D01*
X163342537Y-86384978D01*
X163564000Y-86404353D01*
X163785463Y-86384978D01*
X163947295Y-86341615D01*
X163994886Y-86328863D01*
X163994888Y-86328862D01*
X164000196Y-86327440D01*
X164037144Y-86310211D01*
X164196690Y-86235814D01*
X164196695Y-86235811D01*
X164201677Y-86233488D01*
X164324196Y-86147699D01*
X164379270Y-86109136D01*
X164379273Y-86109134D01*
X164383781Y-86105977D01*
X164540977Y-85948781D01*
X164545354Y-85942531D01*
X164604287Y-85858365D01*
X164659744Y-85814037D01*
X164730363Y-85806728D01*
X164793724Y-85838759D01*
X164829709Y-85899960D01*
X164833500Y-85930636D01*
X164833500Y-85939134D01*
X164840255Y-86001316D01*
X164891385Y-86137705D01*
X164978739Y-86254261D01*
X165095295Y-86341615D01*
X165231684Y-86392745D01*
X165293866Y-86399500D01*
X166914134Y-86399500D01*
X166976316Y-86392745D01*
X167112705Y-86341615D01*
X167229261Y-86254261D01*
X167265176Y-86206340D01*
X167322033Y-86163827D01*
X167392851Y-86158801D01*
X167455145Y-86192861D01*
X167489135Y-86255192D01*
X167492000Y-86281907D01*
X167492000Y-102518093D01*
X167471998Y-102586214D01*
X167418342Y-102632707D01*
X167348068Y-102642811D01*
X167283488Y-102613317D01*
X167265180Y-102593665D01*
X167229261Y-102545739D01*
X167112705Y-102458385D01*
X166976316Y-102407255D01*
X166914134Y-102400500D01*
X165293866Y-102400500D01*
X165231684Y-102407255D01*
X165095295Y-102458385D01*
X164978739Y-102545739D01*
X164891385Y-102662295D01*
X164840255Y-102798684D01*
X164833500Y-102860866D01*
X164833500Y-102869364D01*
X164813498Y-102937485D01*
X164759842Y-102983978D01*
X164689568Y-102994082D01*
X164624988Y-102964588D01*
X164604287Y-102941635D01*
X164544136Y-102855730D01*
X164544134Y-102855727D01*
X164540977Y-102851219D01*
X164383781Y-102694023D01*
X164379273Y-102690866D01*
X164379270Y-102690864D01*
X164296213Y-102632707D01*
X164201677Y-102566512D01*
X164196695Y-102564189D01*
X164196690Y-102564186D01*
X164005178Y-102474883D01*
X164005177Y-102474882D01*
X164000196Y-102472560D01*
X163994888Y-102471138D01*
X163994886Y-102471137D01*
X163890773Y-102443240D01*
X163785463Y-102415022D01*
X163564000Y-102395647D01*
X163342537Y-102415022D01*
X163237227Y-102443240D01*
X163133114Y-102471137D01*
X163133112Y-102471138D01*
X163127804Y-102472560D01*
X163122823Y-102474882D01*
X163122822Y-102474883D01*
X162931311Y-102564186D01*
X162931306Y-102564189D01*
X162926324Y-102566512D01*
X162921817Y-102569668D01*
X162921815Y-102569669D01*
X162748730Y-102690864D01*
X162748727Y-102690866D01*
X162744219Y-102694023D01*
X162587023Y-102851219D01*
X162583866Y-102855727D01*
X162583864Y-102855730D01*
X162486989Y-102994082D01*
X162459512Y-103033324D01*
X162457189Y-103038306D01*
X162457186Y-103038311D01*
X162367883Y-103229822D01*
X162365560Y-103234804D01*
X162308022Y-103449537D01*
X162288647Y-103671000D01*
X162308022Y-103892463D01*
X162336796Y-103999848D01*
X162363233Y-104098510D01*
X162365560Y-104107196D01*
X162367882Y-104112177D01*
X162367883Y-104112178D01*
X162457186Y-104303689D01*
X162457189Y-104303694D01*
X162459512Y-104308676D01*
X162462668Y-104313183D01*
X162462669Y-104313185D01*
X162583588Y-104485875D01*
X162587023Y-104490781D01*
X162744219Y-104647977D01*
X162748727Y-104651134D01*
X162748730Y-104651136D01*
X162764284Y-104662027D01*
X162926323Y-104775488D01*
X162931305Y-104777811D01*
X162931310Y-104777814D01*
X163121810Y-104866645D01*
X163127804Y-104869440D01*
X163133112Y-104870862D01*
X163133114Y-104870863D01*
X163180705Y-104883615D01*
X163342537Y-104926978D01*
X163564000Y-104946353D01*
X163785463Y-104926978D01*
X163947295Y-104883615D01*
X163994886Y-104870863D01*
X163994888Y-104870862D01*
X164000196Y-104869440D01*
X164006190Y-104866645D01*
X164196690Y-104777814D01*
X164196695Y-104777811D01*
X164201677Y-104775488D01*
X164363716Y-104662027D01*
X164379270Y-104651136D01*
X164379273Y-104651134D01*
X164383781Y-104647977D01*
X164540977Y-104490781D01*
X164544413Y-104485875D01*
X164604287Y-104400365D01*
X164659744Y-104356037D01*
X164730363Y-104348728D01*
X164793724Y-104380759D01*
X164829709Y-104441960D01*
X164833500Y-104472636D01*
X164833500Y-104481134D01*
X164840255Y-104543316D01*
X164891385Y-104679705D01*
X164978739Y-104796261D01*
X165095295Y-104883615D01*
X165231684Y-104934745D01*
X165293866Y-104941500D01*
X166914134Y-104941500D01*
X166976316Y-104934745D01*
X167112705Y-104883615D01*
X167229261Y-104796261D01*
X167265176Y-104748340D01*
X167322033Y-104705827D01*
X167392851Y-104700801D01*
X167455145Y-104734861D01*
X167489135Y-104797192D01*
X167492000Y-104823907D01*
X167492000Y-110566000D01*
X167471998Y-110634121D01*
X167418342Y-110680614D01*
X167366000Y-110692000D01*
X162269361Y-110692000D01*
X162201240Y-110671998D01*
X162162248Y-110632354D01*
X162144511Y-110603722D01*
X160012810Y-108472020D01*
X159998869Y-108464408D01*
X159997034Y-108464539D01*
X159990420Y-108468790D01*
X157856773Y-110602438D01*
X157843696Y-110626386D01*
X157793493Y-110676588D01*
X157733109Y-110692000D01*
X122269361Y-110692000D01*
X122201240Y-110671998D01*
X122162248Y-110632354D01*
X122144511Y-110603722D01*
X120012810Y-108472020D01*
X119998869Y-108464408D01*
X119997034Y-108464539D01*
X119990420Y-108468790D01*
X117856773Y-110602438D01*
X117843696Y-110626386D01*
X117793493Y-110676588D01*
X117733109Y-110692000D01*
X105634000Y-110692000D01*
X105565879Y-110671998D01*
X105519386Y-110618342D01*
X105508000Y-110566000D01*
X105508000Y-108091832D01*
X116687333Y-108091832D01*
X116705117Y-108442893D01*
X116705827Y-108449649D01*
X116761420Y-108796723D01*
X116762859Y-108803378D01*
X116855608Y-109142410D01*
X116857757Y-109148871D01*
X116986581Y-109475912D01*
X116989412Y-109482095D01*
X117152803Y-109793310D01*
X117156286Y-109799152D01*
X117352330Y-110090896D01*
X117356433Y-110096340D01*
X117476425Y-110238836D01*
X117489164Y-110247279D01*
X117499608Y-110241181D01*
X119627980Y-108112810D01*
X119634357Y-108101131D01*
X120364408Y-108101131D01*
X120364539Y-108102966D01*
X120368790Y-108109580D01*
X122499009Y-110239798D01*
X122512605Y-110247223D01*
X122522218Y-110240522D01*
X122622518Y-110123912D01*
X122626676Y-110118514D01*
X122825762Y-109828840D01*
X122829310Y-109823029D01*
X122995942Y-109513559D01*
X122998849Y-109507381D01*
X123131090Y-109181713D01*
X123133304Y-109175283D01*
X123192721Y-108966695D01*
X134597251Y-108966695D01*
X134597548Y-108971848D01*
X134597548Y-108971851D01*
X134599743Y-109009918D01*
X134610110Y-109189715D01*
X134611247Y-109194761D01*
X134611248Y-109194767D01*
X134625606Y-109258475D01*
X134659222Y-109407639D01*
X134743266Y-109614616D01*
X134859987Y-109805088D01*
X135006250Y-109973938D01*
X135178126Y-110116632D01*
X135371000Y-110229338D01*
X135375825Y-110231180D01*
X135375826Y-110231181D01*
X135417836Y-110247223D01*
X135579692Y-110309030D01*
X135584760Y-110310061D01*
X135584763Y-110310062D01*
X135692017Y-110331883D01*
X135798597Y-110353567D01*
X135803772Y-110353757D01*
X135803774Y-110353757D01*
X136016673Y-110361564D01*
X136016677Y-110361564D01*
X136021837Y-110361753D01*
X136026957Y-110361097D01*
X136026959Y-110361097D01*
X136238288Y-110334025D01*
X136238289Y-110334025D01*
X136243416Y-110333368D01*
X136248366Y-110331883D01*
X136452429Y-110270661D01*
X136452434Y-110270659D01*
X136457384Y-110269174D01*
X136657994Y-110170896D01*
X136839860Y-110041173D01*
X136907331Y-109973938D01*
X136948479Y-109932933D01*
X137010851Y-109899017D01*
X137081658Y-109904205D01*
X137138419Y-109946851D01*
X137155401Y-109977954D01*
X137196676Y-110088054D01*
X137205214Y-110103649D01*
X137281715Y-110205724D01*
X137294276Y-110218285D01*
X137396351Y-110294786D01*
X137411946Y-110303324D01*
X137532394Y-110348478D01*
X137547649Y-110352105D01*
X137598514Y-110357631D01*
X137605328Y-110358000D01*
X138227885Y-110358000D01*
X138243124Y-110353525D01*
X138244329Y-110352135D01*
X138246000Y-110344452D01*
X138246000Y-110339884D01*
X138754000Y-110339884D01*
X138758475Y-110355123D01*
X138759865Y-110356328D01*
X138767548Y-110357999D01*
X139394669Y-110357999D01*
X139401490Y-110357629D01*
X139452352Y-110352105D01*
X139467604Y-110348479D01*
X139588054Y-110303324D01*
X139603649Y-110294786D01*
X139705724Y-110218285D01*
X139718285Y-110205724D01*
X139794786Y-110103649D01*
X139803324Y-110088054D01*
X139848478Y-109967606D01*
X139852105Y-109952351D01*
X139857631Y-109901486D01*
X139858000Y-109894672D01*
X139858000Y-109272115D01*
X139853525Y-109256876D01*
X139852135Y-109255671D01*
X139844452Y-109254000D01*
X138772115Y-109254000D01*
X138756876Y-109258475D01*
X138755671Y-109259865D01*
X138754000Y-109267548D01*
X138754000Y-110339884D01*
X138246000Y-110339884D01*
X138246000Y-108727885D01*
X138754000Y-108727885D01*
X138758475Y-108743124D01*
X138759865Y-108744329D01*
X138767548Y-108746000D01*
X139839884Y-108746000D01*
X139855123Y-108741525D01*
X139856328Y-108740135D01*
X139857999Y-108732452D01*
X139857999Y-108105331D01*
X139857629Y-108098510D01*
X139852105Y-108047648D01*
X139848479Y-108032396D01*
X139803324Y-107911946D01*
X139794786Y-107896351D01*
X139718285Y-107794276D01*
X139705724Y-107781715D01*
X139603649Y-107705214D01*
X139588054Y-107696676D01*
X139467606Y-107651522D01*
X139452351Y-107647895D01*
X139401486Y-107642369D01*
X139394672Y-107642000D01*
X138772115Y-107642000D01*
X138756876Y-107646475D01*
X138755671Y-107647865D01*
X138754000Y-107655548D01*
X138754000Y-108727885D01*
X138246000Y-108727885D01*
X138246000Y-107660116D01*
X138241525Y-107644877D01*
X138240135Y-107643672D01*
X138232452Y-107642001D01*
X137605331Y-107642001D01*
X137598510Y-107642371D01*
X137547648Y-107647895D01*
X137532396Y-107651521D01*
X137411946Y-107696676D01*
X137396351Y-107705214D01*
X137294276Y-107781715D01*
X137281715Y-107794276D01*
X137205214Y-107896351D01*
X137196676Y-107911946D01*
X137155297Y-108022322D01*
X137112655Y-108079087D01*
X137046093Y-108103786D01*
X136976744Y-108088578D01*
X136944121Y-108062891D01*
X136893151Y-108006876D01*
X136893148Y-108006873D01*
X136889670Y-108003051D01*
X136885619Y-107999852D01*
X136885615Y-107999848D01*
X136718414Y-107867800D01*
X136718410Y-107867798D01*
X136714359Y-107864598D01*
X136518789Y-107756638D01*
X136513920Y-107754914D01*
X136513916Y-107754912D01*
X136313087Y-107683795D01*
X136313083Y-107683794D01*
X136308212Y-107682069D01*
X136303119Y-107681162D01*
X136303116Y-107681161D01*
X136093373Y-107643800D01*
X136093367Y-107643799D01*
X136088284Y-107642894D01*
X136014452Y-107641992D01*
X135870081Y-107640228D01*
X135870079Y-107640228D01*
X135864911Y-107640165D01*
X135644091Y-107673955D01*
X135431756Y-107743357D01*
X135401443Y-107759137D01*
X135257564Y-107834036D01*
X135233607Y-107846507D01*
X135229474Y-107849610D01*
X135229471Y-107849612D01*
X135146450Y-107911946D01*
X135054965Y-107980635D01*
X135016422Y-108020968D01*
X134928656Y-108112810D01*
X134900629Y-108142138D01*
X134774743Y-108326680D01*
X134727715Y-108427993D01*
X134697536Y-108493010D01*
X134680688Y-108529305D01*
X134620989Y-108744570D01*
X134597251Y-108966695D01*
X123192721Y-108966695D01*
X123229598Y-108837237D01*
X123231105Y-108830607D01*
X123290332Y-108484118D01*
X123291112Y-108477378D01*
X123312668Y-108124925D01*
X123312784Y-108121323D01*
X123312853Y-108101819D01*
X123312761Y-108098194D01*
X123293666Y-107745615D01*
X123292931Y-107738849D01*
X123236130Y-107391985D01*
X123234663Y-107385313D01*
X123140736Y-107046627D01*
X123138562Y-107040163D01*
X123114190Y-106978918D01*
X141106917Y-106978918D01*
X141122682Y-107252320D01*
X141123507Y-107256525D01*
X141123508Y-107256533D01*
X141134127Y-107310657D01*
X141175405Y-107521053D01*
X141176792Y-107525103D01*
X141176793Y-107525108D01*
X141262723Y-107776088D01*
X141264112Y-107780144D01*
X141387160Y-108024799D01*
X141389586Y-108028328D01*
X141389589Y-108028334D01*
X141453499Y-108121323D01*
X141542274Y-108250490D01*
X141545161Y-108253663D01*
X141545162Y-108253664D01*
X141717346Y-108442893D01*
X141726582Y-108453043D01*
X141729877Y-108455798D01*
X141729878Y-108455799D01*
X141763747Y-108484118D01*
X141936675Y-108628707D01*
X141940316Y-108630991D01*
X142165024Y-108771951D01*
X142165028Y-108771953D01*
X142168664Y-108774234D01*
X142233211Y-108803378D01*
X142414345Y-108885164D01*
X142414349Y-108885166D01*
X142418257Y-108886930D01*
X142422377Y-108888150D01*
X142422376Y-108888150D01*
X142676723Y-108963491D01*
X142676727Y-108963492D01*
X142680836Y-108964709D01*
X142685070Y-108965357D01*
X142685075Y-108965358D01*
X142947298Y-109005483D01*
X142947300Y-109005483D01*
X142951540Y-109006132D01*
X143090912Y-109008322D01*
X143221071Y-109010367D01*
X143221077Y-109010367D01*
X143225362Y-109010434D01*
X143497235Y-108977534D01*
X143762127Y-108908041D01*
X143766087Y-108906401D01*
X143766092Y-108906399D01*
X143888632Y-108855641D01*
X144015136Y-108803241D01*
X144251582Y-108665073D01*
X144405139Y-108544669D01*
X146192001Y-108544669D01*
X146192371Y-108551490D01*
X146197895Y-108602352D01*
X146201521Y-108617604D01*
X146246676Y-108738054D01*
X146255214Y-108753649D01*
X146331715Y-108855724D01*
X146344276Y-108868285D01*
X146446351Y-108944786D01*
X146461946Y-108953324D01*
X146582394Y-108998478D01*
X146597649Y-109002105D01*
X146648514Y-109007631D01*
X146655328Y-109008000D01*
X147927885Y-109008000D01*
X147943124Y-109003525D01*
X147944329Y-109002135D01*
X147946000Y-108994452D01*
X147946000Y-108989884D01*
X148454000Y-108989884D01*
X148458475Y-109005123D01*
X148459865Y-109006328D01*
X148467548Y-109007999D01*
X149744669Y-109007999D01*
X149751490Y-109007629D01*
X149802352Y-109002105D01*
X149817604Y-108998479D01*
X149938054Y-108953324D01*
X149953649Y-108944786D01*
X150055724Y-108868285D01*
X150068285Y-108855724D01*
X150144786Y-108753649D01*
X150153324Y-108738054D01*
X150198478Y-108617606D01*
X150202105Y-108602351D01*
X150207631Y-108551486D01*
X150208000Y-108544672D01*
X150208000Y-108091832D01*
X156687333Y-108091832D01*
X156705117Y-108442893D01*
X156705827Y-108449649D01*
X156761420Y-108796723D01*
X156762859Y-108803378D01*
X156855608Y-109142410D01*
X156857757Y-109148871D01*
X156986581Y-109475912D01*
X156989412Y-109482095D01*
X157152803Y-109793310D01*
X157156286Y-109799152D01*
X157352330Y-110090896D01*
X157356433Y-110096340D01*
X157476425Y-110238836D01*
X157489164Y-110247279D01*
X157499608Y-110241181D01*
X159627980Y-108112810D01*
X159634357Y-108101131D01*
X160364408Y-108101131D01*
X160364539Y-108102966D01*
X160368790Y-108109580D01*
X162499009Y-110239798D01*
X162512605Y-110247223D01*
X162522218Y-110240522D01*
X162622518Y-110123912D01*
X162626676Y-110118514D01*
X162825762Y-109828840D01*
X162829310Y-109823029D01*
X162995942Y-109513559D01*
X162998849Y-109507381D01*
X163131090Y-109181713D01*
X163133304Y-109175283D01*
X163229598Y-108837237D01*
X163231105Y-108830607D01*
X163290332Y-108484118D01*
X163291112Y-108477378D01*
X163312668Y-108124925D01*
X163312784Y-108121323D01*
X163312853Y-108101819D01*
X163312761Y-108098194D01*
X163293666Y-107745615D01*
X163292931Y-107738849D01*
X163236130Y-107391985D01*
X163234663Y-107385313D01*
X163140736Y-107046627D01*
X163138562Y-107040163D01*
X163008598Y-106713578D01*
X163005742Y-106707398D01*
X162841269Y-106396763D01*
X162837769Y-106390937D01*
X162640697Y-106099862D01*
X162636590Y-106094453D01*
X162523565Y-105961179D01*
X162510740Y-105952743D01*
X162500416Y-105958795D01*
X160372020Y-108087190D01*
X160364408Y-108101131D01*
X159634357Y-108101131D01*
X159635592Y-108098869D01*
X159635461Y-108097034D01*
X159631210Y-108090420D01*
X157500992Y-105960203D01*
X157487455Y-105952811D01*
X157477753Y-105959599D01*
X157370430Y-106085257D01*
X157366296Y-106090664D01*
X157168215Y-106381041D01*
X157164697Y-106386851D01*
X156999134Y-106696922D01*
X156996259Y-106703087D01*
X156865155Y-107029218D01*
X156862962Y-107035658D01*
X156767846Y-107374044D01*
X156766363Y-107380679D01*
X156708350Y-107727354D01*
X156707591Y-107734126D01*
X156687357Y-108085037D01*
X156687333Y-108091832D01*
X150208000Y-108091832D01*
X150208000Y-107272115D01*
X150203525Y-107256876D01*
X150202135Y-107255671D01*
X150194452Y-107254000D01*
X148472115Y-107254000D01*
X148456876Y-107258475D01*
X148455671Y-107259865D01*
X148454000Y-107267548D01*
X148454000Y-108989884D01*
X147946000Y-108989884D01*
X147946000Y-107272115D01*
X147941525Y-107256876D01*
X147940135Y-107255671D01*
X147932452Y-107254000D01*
X146210116Y-107254000D01*
X146194877Y-107258475D01*
X146193672Y-107259865D01*
X146192001Y-107267548D01*
X146192001Y-108544669D01*
X144405139Y-108544669D01*
X144467089Y-108496094D01*
X144490419Y-108472020D01*
X144654686Y-108302509D01*
X144657669Y-108299431D01*
X144660202Y-108295983D01*
X144660206Y-108295978D01*
X144817257Y-108082178D01*
X144819795Y-108078723D01*
X144828391Y-108062891D01*
X144948418Y-107841830D01*
X144948419Y-107841828D01*
X144950468Y-107838054D01*
X145003890Y-107696676D01*
X145045751Y-107585895D01*
X145045752Y-107585891D01*
X145047269Y-107581877D01*
X145108407Y-107314933D01*
X145112229Y-107272115D01*
X145132531Y-107044627D01*
X145132531Y-107044625D01*
X145132751Y-107042161D01*
X145133193Y-107000000D01*
X145131465Y-106974648D01*
X145114859Y-106731055D01*
X145114858Y-106731049D01*
X145114642Y-106727885D01*
X146192000Y-106727885D01*
X146196475Y-106743124D01*
X146197865Y-106744329D01*
X146205548Y-106746000D01*
X147927885Y-106746000D01*
X147943124Y-106741525D01*
X147944329Y-106740135D01*
X147946000Y-106732452D01*
X147946000Y-106727885D01*
X148454000Y-106727885D01*
X148458475Y-106743124D01*
X148459865Y-106744329D01*
X148467548Y-106746000D01*
X150189884Y-106746000D01*
X150205123Y-106741525D01*
X150206328Y-106740135D01*
X150207999Y-106732452D01*
X150207999Y-105586862D01*
X157849950Y-105586862D01*
X157849986Y-105587704D01*
X157855037Y-105595826D01*
X159987190Y-107727980D01*
X160001131Y-107735592D01*
X160002966Y-107735461D01*
X160009580Y-107731210D01*
X162142798Y-105597991D01*
X162150412Y-105584047D01*
X162150344Y-105583089D01*
X162145836Y-105576272D01*
X162144418Y-105575065D01*
X161864813Y-105362064D01*
X161859187Y-105358240D01*
X161558214Y-105176681D01*
X161552202Y-105173484D01*
X161233370Y-105025487D01*
X161227070Y-105022967D01*
X160894129Y-104910273D01*
X160887551Y-104908437D01*
X160544417Y-104832367D01*
X160537678Y-104831251D01*
X160188310Y-104792680D01*
X160181529Y-104792301D01*
X159830015Y-104791687D01*
X159823242Y-104792042D01*
X159473720Y-104829395D01*
X159467010Y-104830482D01*
X159123586Y-104905361D01*
X159117011Y-104907172D01*
X158783683Y-105018702D01*
X158777361Y-105021205D01*
X158458034Y-105168079D01*
X158451991Y-105171265D01*
X158150401Y-105351763D01*
X158144755Y-105355571D01*
X157864408Y-105567596D01*
X157859211Y-105571987D01*
X157857972Y-105573155D01*
X157849950Y-105586862D01*
X150207999Y-105586862D01*
X150207999Y-105455331D01*
X150207629Y-105448510D01*
X150202105Y-105397648D01*
X150198479Y-105382396D01*
X150153324Y-105261946D01*
X150144786Y-105246351D01*
X150068285Y-105144276D01*
X150055724Y-105131715D01*
X149953649Y-105055214D01*
X149938054Y-105046676D01*
X149817606Y-105001522D01*
X149802351Y-104997895D01*
X149751486Y-104992369D01*
X149744672Y-104992000D01*
X148472115Y-104992000D01*
X148456876Y-104996475D01*
X148455671Y-104997865D01*
X148454000Y-105005548D01*
X148454000Y-106727885D01*
X147946000Y-106727885D01*
X147946000Y-105010116D01*
X147941525Y-104994877D01*
X147940135Y-104993672D01*
X147932452Y-104992001D01*
X146655331Y-104992001D01*
X146648510Y-104992371D01*
X146597648Y-104997895D01*
X146582396Y-105001521D01*
X146461946Y-105046676D01*
X146446351Y-105055214D01*
X146344276Y-105131715D01*
X146331715Y-105144276D01*
X146255214Y-105246351D01*
X146246676Y-105261946D01*
X146201522Y-105382394D01*
X146197895Y-105397649D01*
X146192369Y-105448514D01*
X146192000Y-105455328D01*
X146192000Y-106727885D01*
X145114642Y-106727885D01*
X145114567Y-106726778D01*
X145111834Y-106713578D01*
X145059901Y-106462809D01*
X145059032Y-106458612D01*
X144967617Y-106200465D01*
X144842013Y-105957112D01*
X144838991Y-105952811D01*
X144687008Y-105736562D01*
X144684545Y-105733057D01*
X144549475Y-105587704D01*
X144501046Y-105535588D01*
X144501043Y-105535585D01*
X144498125Y-105532445D01*
X144494810Y-105529731D01*
X144494806Y-105529728D01*
X144314799Y-105382394D01*
X144286205Y-105358990D01*
X144052704Y-105215901D01*
X144048768Y-105214173D01*
X143805873Y-105107549D01*
X143805869Y-105107548D01*
X143801945Y-105105825D01*
X143538566Y-105030800D01*
X143534324Y-105030196D01*
X143534318Y-105030195D01*
X143332844Y-105001521D01*
X143267443Y-104992213D01*
X143123589Y-104991460D01*
X142997877Y-104990802D01*
X142997871Y-104990802D01*
X142993591Y-104990780D01*
X142989347Y-104991339D01*
X142989343Y-104991339D01*
X142881416Y-105005548D01*
X142722078Y-105026525D01*
X142717938Y-105027658D01*
X142717936Y-105027658D01*
X142648418Y-105046676D01*
X142457928Y-105098788D01*
X142453980Y-105100472D01*
X142209982Y-105204546D01*
X142209978Y-105204548D01*
X142206030Y-105206232D01*
X142186125Y-105218145D01*
X141974725Y-105344664D01*
X141974721Y-105344667D01*
X141971043Y-105346868D01*
X141757318Y-105518094D01*
X141705067Y-105573155D01*
X141582725Y-105702077D01*
X141568808Y-105716742D01*
X141409002Y-105939136D01*
X141280857Y-106181161D01*
X141279385Y-106185184D01*
X141279383Y-106185188D01*
X141205584Y-106386851D01*
X141186743Y-106438337D01*
X141128404Y-106705907D01*
X141106917Y-106978918D01*
X123114190Y-106978918D01*
X123008598Y-106713578D01*
X123005742Y-106707398D01*
X122841269Y-106396763D01*
X122837769Y-106390937D01*
X122640697Y-106099862D01*
X122636590Y-106094453D01*
X122523565Y-105961179D01*
X122510740Y-105952743D01*
X122500416Y-105958795D01*
X120372020Y-108087190D01*
X120364408Y-108101131D01*
X119634357Y-108101131D01*
X119635592Y-108098869D01*
X119635461Y-108097034D01*
X119631210Y-108090420D01*
X117500992Y-105960203D01*
X117487455Y-105952811D01*
X117477753Y-105959599D01*
X117370430Y-106085257D01*
X117366296Y-106090664D01*
X117168215Y-106381041D01*
X117164697Y-106386851D01*
X116999134Y-106696922D01*
X116996259Y-106703087D01*
X116865155Y-107029218D01*
X116862962Y-107035658D01*
X116767846Y-107374044D01*
X116766363Y-107380679D01*
X116708350Y-107727354D01*
X116707591Y-107734126D01*
X116687357Y-108085037D01*
X116687333Y-108091832D01*
X105508000Y-108091832D01*
X105508000Y-106249699D01*
X105528002Y-106181578D01*
X105581658Y-106135085D01*
X105651932Y-106124981D01*
X105697572Y-106140912D01*
X105706758Y-106146280D01*
X105716042Y-106150729D01*
X105915001Y-106226703D01*
X105924899Y-106229579D01*
X106028250Y-106250606D01*
X106042299Y-106249410D01*
X106046000Y-106239065D01*
X106046000Y-106238517D01*
X106554000Y-106238517D01*
X106558064Y-106252359D01*
X106571478Y-106254393D01*
X106578184Y-106253534D01*
X106588262Y-106251392D01*
X106792255Y-106190191D01*
X106801842Y-106186433D01*
X106993095Y-106092739D01*
X107001945Y-106087464D01*
X107175328Y-105963792D01*
X107183200Y-105957139D01*
X107334052Y-105806812D01*
X107340730Y-105798965D01*
X107465003Y-105626020D01*
X107470313Y-105617183D01*
X107485299Y-105586862D01*
X117849950Y-105586862D01*
X117849986Y-105587704D01*
X117855037Y-105595826D01*
X119987190Y-107727980D01*
X120001131Y-107735592D01*
X120002966Y-107735461D01*
X120009580Y-107731210D01*
X122142798Y-105597991D01*
X122150412Y-105584047D01*
X122150344Y-105583089D01*
X122145836Y-105576272D01*
X122144418Y-105575065D01*
X121864813Y-105362064D01*
X121859187Y-105358240D01*
X121558214Y-105176681D01*
X121552202Y-105173484D01*
X121233370Y-105025487D01*
X121227070Y-105022967D01*
X121060821Y-104966695D01*
X134497251Y-104966695D01*
X134497548Y-104971848D01*
X134497548Y-104971851D01*
X134509046Y-105171265D01*
X134510110Y-105189715D01*
X134511247Y-105194761D01*
X134511248Y-105194767D01*
X134525606Y-105258475D01*
X134559222Y-105407639D01*
X134643266Y-105614616D01*
X134759987Y-105805088D01*
X134906250Y-105973938D01*
X135078126Y-106116632D01*
X135271000Y-106229338D01*
X135275825Y-106231180D01*
X135275826Y-106231181D01*
X135331286Y-106252359D01*
X135479692Y-106309030D01*
X135484760Y-106310061D01*
X135484763Y-106310062D01*
X135592017Y-106331883D01*
X135698597Y-106353567D01*
X135703772Y-106353757D01*
X135703774Y-106353757D01*
X135916673Y-106361564D01*
X135916677Y-106361564D01*
X135921837Y-106361753D01*
X135926957Y-106361097D01*
X135926959Y-106361097D01*
X136138288Y-106334025D01*
X136138289Y-106334025D01*
X136143416Y-106333368D01*
X136148366Y-106331883D01*
X136352429Y-106270661D01*
X136352434Y-106270659D01*
X136357384Y-106269174D01*
X136557994Y-106170896D01*
X136739860Y-106041173D01*
X136807331Y-105973938D01*
X136848479Y-105932933D01*
X136910851Y-105899017D01*
X136981658Y-105904205D01*
X137038419Y-105946851D01*
X137055401Y-105977954D01*
X137096676Y-106088054D01*
X137105214Y-106103649D01*
X137181715Y-106205724D01*
X137194276Y-106218285D01*
X137296351Y-106294786D01*
X137311946Y-106303324D01*
X137432394Y-106348478D01*
X137447649Y-106352105D01*
X137498514Y-106357631D01*
X137505328Y-106358000D01*
X138127885Y-106358000D01*
X138143124Y-106353525D01*
X138144329Y-106352135D01*
X138146000Y-106344452D01*
X138146000Y-106339884D01*
X138654000Y-106339884D01*
X138658475Y-106355123D01*
X138659865Y-106356328D01*
X138667548Y-106357999D01*
X139294669Y-106357999D01*
X139301490Y-106357629D01*
X139352352Y-106352105D01*
X139367604Y-106348479D01*
X139488054Y-106303324D01*
X139503649Y-106294786D01*
X139605724Y-106218285D01*
X139618285Y-106205724D01*
X139694786Y-106103649D01*
X139703324Y-106088054D01*
X139748478Y-105967606D01*
X139752105Y-105952351D01*
X139757631Y-105901486D01*
X139758000Y-105894672D01*
X139758000Y-105272115D01*
X139753525Y-105256876D01*
X139752135Y-105255671D01*
X139744452Y-105254000D01*
X138672115Y-105254000D01*
X138656876Y-105258475D01*
X138655671Y-105259865D01*
X138654000Y-105267548D01*
X138654000Y-106339884D01*
X138146000Y-106339884D01*
X138146000Y-104727885D01*
X138654000Y-104727885D01*
X138658475Y-104743124D01*
X138659865Y-104744329D01*
X138667548Y-104746000D01*
X139739884Y-104746000D01*
X139755123Y-104741525D01*
X139756328Y-104740135D01*
X139757999Y-104732452D01*
X139757999Y-104729777D01*
X152201777Y-104729777D01*
X152211074Y-104741793D01*
X152254069Y-104771898D01*
X152263555Y-104777376D01*
X152454993Y-104866645D01*
X152465285Y-104870391D01*
X152669309Y-104925059D01*
X152680104Y-104926962D01*
X152890525Y-104945372D01*
X152901475Y-104945372D01*
X153111896Y-104926962D01*
X153122691Y-104925059D01*
X153326715Y-104870391D01*
X153337007Y-104866645D01*
X153528445Y-104777376D01*
X153537931Y-104771898D01*
X153581764Y-104741207D01*
X153590139Y-104730729D01*
X153583071Y-104717281D01*
X152908812Y-104043022D01*
X152894868Y-104035408D01*
X152893035Y-104035539D01*
X152886420Y-104039790D01*
X152208207Y-104718003D01*
X152201777Y-104729777D01*
X139757999Y-104729777D01*
X139757999Y-104105331D01*
X139757629Y-104098510D01*
X139752105Y-104047648D01*
X139748479Y-104032396D01*
X139703324Y-103911946D01*
X139694786Y-103896351D01*
X139618285Y-103794276D01*
X139605724Y-103781715D01*
X139503649Y-103705214D01*
X139488054Y-103696676D01*
X139434168Y-103676475D01*
X151621628Y-103676475D01*
X151640038Y-103886896D01*
X151641941Y-103897691D01*
X151696609Y-104101715D01*
X151700355Y-104112007D01*
X151789623Y-104303441D01*
X151795103Y-104312932D01*
X151825794Y-104356765D01*
X151836271Y-104365140D01*
X151849718Y-104358072D01*
X152523978Y-103683812D01*
X152530356Y-103672132D01*
X153260408Y-103672132D01*
X153260539Y-103673965D01*
X153264790Y-103680580D01*
X153943003Y-104358793D01*
X153954778Y-104365223D01*
X153962900Y-104358939D01*
X154029018Y-104333075D01*
X154098623Y-104347062D01*
X154149616Y-104396461D01*
X154166001Y-104458595D01*
X154166001Y-104477669D01*
X154166371Y-104484490D01*
X154171895Y-104535352D01*
X154175521Y-104550604D01*
X154220676Y-104671054D01*
X154229214Y-104686649D01*
X154305715Y-104788724D01*
X154318276Y-104801285D01*
X154420351Y-104877786D01*
X154435946Y-104886324D01*
X154556394Y-104931478D01*
X154571649Y-104935105D01*
X154622514Y-104940631D01*
X154629328Y-104941000D01*
X155163885Y-104941000D01*
X155179124Y-104936525D01*
X155180329Y-104935135D01*
X155182000Y-104927452D01*
X155182000Y-104922884D01*
X155690000Y-104922884D01*
X155694475Y-104938123D01*
X155695865Y-104939328D01*
X155703548Y-104940999D01*
X156242669Y-104940999D01*
X156249490Y-104940629D01*
X156300352Y-104935105D01*
X156315604Y-104931479D01*
X156436054Y-104886324D01*
X156451649Y-104877786D01*
X156553724Y-104801285D01*
X156566285Y-104788724D01*
X156642786Y-104686649D01*
X156651324Y-104671054D01*
X156696478Y-104550606D01*
X156700105Y-104535351D01*
X156705631Y-104484486D01*
X156706000Y-104477672D01*
X156706000Y-103943115D01*
X156701525Y-103927876D01*
X156700135Y-103926671D01*
X156692452Y-103925000D01*
X155708115Y-103925000D01*
X155692876Y-103929475D01*
X155691671Y-103930865D01*
X155690000Y-103938548D01*
X155690000Y-104922884D01*
X155182000Y-104922884D01*
X155182000Y-103398885D01*
X155690000Y-103398885D01*
X155694475Y-103414124D01*
X155695865Y-103415329D01*
X155703548Y-103417000D01*
X156687884Y-103417000D01*
X156703123Y-103412525D01*
X156704328Y-103411135D01*
X156705999Y-103403452D01*
X156705999Y-102864331D01*
X156705629Y-102857510D01*
X156700105Y-102806648D01*
X156696479Y-102791396D01*
X156651324Y-102670946D01*
X156642786Y-102655351D01*
X156566285Y-102553276D01*
X156553724Y-102540715D01*
X156451649Y-102464214D01*
X156436054Y-102455676D01*
X156315606Y-102410522D01*
X156300351Y-102406895D01*
X156249486Y-102401369D01*
X156242672Y-102401000D01*
X155708115Y-102401000D01*
X155692876Y-102405475D01*
X155691671Y-102406865D01*
X155690000Y-102414548D01*
X155690000Y-103398885D01*
X155182000Y-103398885D01*
X155182000Y-102419116D01*
X155177525Y-102403877D01*
X155176135Y-102402672D01*
X155168452Y-102401001D01*
X154629331Y-102401001D01*
X154622510Y-102401371D01*
X154571648Y-102406895D01*
X154556396Y-102410521D01*
X154435946Y-102455676D01*
X154420351Y-102464214D01*
X154318276Y-102540715D01*
X154305715Y-102553276D01*
X154229214Y-102655351D01*
X154220676Y-102670946D01*
X154175522Y-102791394D01*
X154171895Y-102806649D01*
X154166369Y-102857514D01*
X154166000Y-102864328D01*
X154166000Y-102882915D01*
X154145998Y-102951036D01*
X154092342Y-102997529D01*
X154022068Y-103007633D01*
X153961327Y-102981335D01*
X153955729Y-102976860D01*
X153942282Y-102983928D01*
X153268022Y-103658188D01*
X153260408Y-103672132D01*
X152530356Y-103672132D01*
X152531592Y-103669868D01*
X152531461Y-103668035D01*
X152527210Y-103661420D01*
X151848997Y-102983207D01*
X151837223Y-102976777D01*
X151825207Y-102986074D01*
X151795103Y-103029068D01*
X151789623Y-103038559D01*
X151700355Y-103229993D01*
X151696609Y-103240285D01*
X151641941Y-103444309D01*
X151640038Y-103455104D01*
X151621628Y-103665525D01*
X151621628Y-103676475D01*
X139434168Y-103676475D01*
X139367606Y-103651522D01*
X139352351Y-103647895D01*
X139301486Y-103642369D01*
X139294672Y-103642000D01*
X138672115Y-103642000D01*
X138656876Y-103646475D01*
X138655671Y-103647865D01*
X138654000Y-103655548D01*
X138654000Y-104727885D01*
X138146000Y-104727885D01*
X138146000Y-103660116D01*
X138141525Y-103644877D01*
X138140135Y-103643672D01*
X138132452Y-103642001D01*
X137505331Y-103642001D01*
X137498510Y-103642371D01*
X137447648Y-103647895D01*
X137432396Y-103651521D01*
X137311946Y-103696676D01*
X137296351Y-103705214D01*
X137194276Y-103781715D01*
X137181715Y-103794276D01*
X137105214Y-103896351D01*
X137096676Y-103911946D01*
X137055297Y-104022322D01*
X137012655Y-104079087D01*
X136946093Y-104103786D01*
X136876744Y-104088578D01*
X136844121Y-104062891D01*
X136793151Y-104006876D01*
X136793148Y-104006873D01*
X136789670Y-104003051D01*
X136785619Y-103999852D01*
X136785615Y-103999848D01*
X136618414Y-103867800D01*
X136618410Y-103867798D01*
X136614359Y-103864598D01*
X136418789Y-103756638D01*
X136413920Y-103754914D01*
X136413916Y-103754912D01*
X136213087Y-103683795D01*
X136213083Y-103683794D01*
X136208212Y-103682069D01*
X136203119Y-103681162D01*
X136203116Y-103681161D01*
X135993373Y-103643800D01*
X135993367Y-103643799D01*
X135988284Y-103642894D01*
X135914452Y-103641992D01*
X135770081Y-103640228D01*
X135770079Y-103640228D01*
X135764911Y-103640165D01*
X135544091Y-103673955D01*
X135331756Y-103743357D01*
X135133607Y-103846507D01*
X135129474Y-103849610D01*
X135129471Y-103849612D01*
X135004937Y-103943115D01*
X134954965Y-103980635D01*
X134800629Y-104142138D01*
X134674743Y-104326680D01*
X134642352Y-104396461D01*
X134604657Y-104477669D01*
X134580688Y-104529305D01*
X134520989Y-104744570D01*
X134497251Y-104966695D01*
X121060821Y-104966695D01*
X120894129Y-104910273D01*
X120887551Y-104908437D01*
X120544417Y-104832367D01*
X120537678Y-104831251D01*
X120188310Y-104792680D01*
X120181529Y-104792301D01*
X119830015Y-104791687D01*
X119823242Y-104792042D01*
X119473720Y-104829395D01*
X119467010Y-104830482D01*
X119123586Y-104905361D01*
X119117011Y-104907172D01*
X118783683Y-105018702D01*
X118777361Y-105021205D01*
X118458034Y-105168079D01*
X118451991Y-105171265D01*
X118150401Y-105351763D01*
X118144755Y-105355571D01*
X117864408Y-105567596D01*
X117859211Y-105571987D01*
X117857972Y-105573155D01*
X117849950Y-105586862D01*
X107485299Y-105586862D01*
X107564670Y-105426267D01*
X107568469Y-105416672D01*
X107630377Y-105212910D01*
X107632555Y-105202837D01*
X107633986Y-105191962D01*
X107631775Y-105177778D01*
X107618617Y-105174000D01*
X106572115Y-105174000D01*
X106556876Y-105178475D01*
X106555671Y-105179865D01*
X106554000Y-105187548D01*
X106554000Y-106238517D01*
X106046000Y-106238517D01*
X106046000Y-104792000D01*
X106066002Y-104723879D01*
X106119658Y-104677386D01*
X106172000Y-104666000D01*
X107618344Y-104666000D01*
X107631875Y-104662027D01*
X107633180Y-104652947D01*
X107591214Y-104485875D01*
X107587894Y-104476124D01*
X107502972Y-104280814D01*
X107498105Y-104271739D01*
X107382426Y-104092926D01*
X107376136Y-104084757D01*
X107232806Y-103927240D01*
X107225273Y-103920215D01*
X107058139Y-103788222D01*
X107049556Y-103782520D01*
X107012602Y-103762120D01*
X106962631Y-103711687D01*
X106947859Y-103642245D01*
X106972975Y-103575839D01*
X107000327Y-103549232D01*
X107035188Y-103524366D01*
X107179860Y-103421173D01*
X107185725Y-103415329D01*
X107294842Y-103306592D01*
X107338096Y-103263489D01*
X107468453Y-103082077D01*
X107490084Y-103038311D01*
X107565136Y-102886453D01*
X107565137Y-102886451D01*
X107567430Y-102881811D01*
X107632370Y-102668069D01*
X107661529Y-102446590D01*
X107661611Y-102443240D01*
X107663074Y-102383365D01*
X107663074Y-102383361D01*
X107663156Y-102380000D01*
X107644852Y-102157361D01*
X107590431Y-101940702D01*
X107501354Y-101735840D01*
X107401477Y-101581453D01*
X107382822Y-101552617D01*
X107382820Y-101552614D01*
X107380014Y-101548277D01*
X107229670Y-101383051D01*
X107225619Y-101379852D01*
X107225615Y-101379848D01*
X107058414Y-101247800D01*
X107058410Y-101247798D01*
X107054359Y-101244598D01*
X107013053Y-101221796D01*
X106963084Y-101171364D01*
X106948312Y-101101921D01*
X106973428Y-101035516D01*
X107000780Y-101008909D01*
X107085856Y-100948225D01*
X107179860Y-100881173D01*
X107201753Y-100859357D01*
X107334435Y-100727137D01*
X107338096Y-100723489D01*
X107356502Y-100697875D01*
X107465435Y-100546277D01*
X107468453Y-100542077D01*
X107505317Y-100467489D01*
X107565136Y-100346453D01*
X107565137Y-100346451D01*
X107567430Y-100341811D01*
X107618955Y-100172223D01*
X107630865Y-100133023D01*
X107630865Y-100133021D01*
X107632370Y-100128069D01*
X107661529Y-99906590D01*
X107662096Y-99883390D01*
X107663074Y-99843365D01*
X107663074Y-99843361D01*
X107663156Y-99840000D01*
X107644852Y-99617361D01*
X107590431Y-99400702D01*
X107501354Y-99195840D01*
X107460903Y-99133312D01*
X107382822Y-99012617D01*
X107382820Y-99012614D01*
X107380014Y-99008277D01*
X107229670Y-98843051D01*
X107225619Y-98839852D01*
X107225615Y-98839848D01*
X107058414Y-98707800D01*
X107058410Y-98707798D01*
X107054359Y-98704598D01*
X107013053Y-98681796D01*
X106963084Y-98631364D01*
X106948312Y-98561921D01*
X106973428Y-98495516D01*
X107000780Y-98468909D01*
X107085856Y-98408225D01*
X107179860Y-98341173D01*
X107201753Y-98319357D01*
X107304568Y-98216900D01*
X107338096Y-98183489D01*
X107369733Y-98139462D01*
X107465435Y-98006277D01*
X107468453Y-98002077D01*
X107567430Y-97801811D01*
X107626779Y-97606472D01*
X107630865Y-97593023D01*
X107630865Y-97593021D01*
X107632370Y-97588069D01*
X107661529Y-97366590D01*
X107662912Y-97310000D01*
X107663074Y-97303365D01*
X107663074Y-97303361D01*
X107663156Y-97300000D01*
X107644852Y-97077361D01*
X107590431Y-96860702D01*
X107501354Y-96655840D01*
X107389079Y-96482289D01*
X107382822Y-96472617D01*
X107382820Y-96472614D01*
X107380014Y-96468277D01*
X107229670Y-96303051D01*
X107225619Y-96299852D01*
X107225615Y-96299848D01*
X107058414Y-96167800D01*
X107058410Y-96167798D01*
X107054359Y-96164598D01*
X107013053Y-96141796D01*
X106963084Y-96091364D01*
X106948312Y-96021921D01*
X106973428Y-95955516D01*
X107000780Y-95928909D01*
X107098827Y-95858973D01*
X107179860Y-95801173D01*
X107201753Y-95779357D01*
X107334435Y-95647137D01*
X107338096Y-95643489D01*
X107468453Y-95462077D01*
X107482892Y-95432863D01*
X107565136Y-95266453D01*
X107565137Y-95266451D01*
X107567430Y-95261811D01*
X107611477Y-95116837D01*
X107630865Y-95053023D01*
X107630865Y-95053021D01*
X107632370Y-95048069D01*
X107661529Y-94826590D01*
X107662912Y-94770000D01*
X107663074Y-94763365D01*
X107663074Y-94763361D01*
X107663156Y-94760000D01*
X107644852Y-94537361D01*
X107590431Y-94320702D01*
X107501354Y-94115840D01*
X107421585Y-93992536D01*
X107382822Y-93932617D01*
X107382820Y-93932614D01*
X107380014Y-93928277D01*
X107229670Y-93763051D01*
X107225619Y-93759852D01*
X107225615Y-93759848D01*
X107058414Y-93627800D01*
X107058410Y-93627798D01*
X107054359Y-93624598D01*
X107013053Y-93601796D01*
X106963084Y-93551364D01*
X106948312Y-93481921D01*
X106973428Y-93415516D01*
X107000780Y-93388909D01*
X107047410Y-93355648D01*
X107179860Y-93261173D01*
X107201753Y-93239357D01*
X107334435Y-93107137D01*
X107338096Y-93103489D01*
X107392475Y-93027813D01*
X107465435Y-92926277D01*
X107468453Y-92922077D01*
X107501388Y-92855439D01*
X107565136Y-92726453D01*
X107565137Y-92726451D01*
X107567430Y-92721811D01*
X107612794Y-92572500D01*
X107630865Y-92513023D01*
X107630865Y-92513021D01*
X107632370Y-92508069D01*
X107661529Y-92286590D01*
X107662582Y-92243489D01*
X107663074Y-92223365D01*
X107663074Y-92223361D01*
X107663156Y-92220000D01*
X107644852Y-91997361D01*
X107590431Y-91780702D01*
X107501354Y-91575840D01*
X107411598Y-91437098D01*
X107382822Y-91392617D01*
X107382820Y-91392614D01*
X107380014Y-91388277D01*
X107229670Y-91223051D01*
X107225619Y-91219852D01*
X107225615Y-91219848D01*
X107058414Y-91087800D01*
X107058410Y-91087798D01*
X107054359Y-91084598D01*
X107013053Y-91061796D01*
X106963084Y-91011364D01*
X106948312Y-90941921D01*
X106973428Y-90875516D01*
X107000780Y-90848909D01*
X107125513Y-90759938D01*
X107179860Y-90721173D01*
X107201753Y-90699357D01*
X107285019Y-90616381D01*
X107338096Y-90563489D01*
X107359063Y-90534311D01*
X107465435Y-90386277D01*
X107468453Y-90382077D01*
X107501388Y-90315439D01*
X107565136Y-90186453D01*
X107565137Y-90186451D01*
X107567430Y-90181811D01*
X107612794Y-90032500D01*
X107630865Y-89973023D01*
X107630865Y-89973021D01*
X107632370Y-89968069D01*
X107661529Y-89746590D01*
X107662912Y-89690000D01*
X107663074Y-89683365D01*
X107663074Y-89683361D01*
X107663156Y-89680000D01*
X107644852Y-89457361D01*
X107590431Y-89240702D01*
X107501354Y-89035840D01*
X107411598Y-88897098D01*
X107382822Y-88852617D01*
X107382820Y-88852614D01*
X107380014Y-88848277D01*
X107229670Y-88683051D01*
X107225619Y-88679852D01*
X107225615Y-88679848D01*
X107058414Y-88547800D01*
X107058410Y-88547798D01*
X107054359Y-88544598D01*
X107013053Y-88521796D01*
X106963084Y-88471364D01*
X106948312Y-88401921D01*
X106973428Y-88335516D01*
X107000780Y-88308909D01*
X107125513Y-88219938D01*
X107179860Y-88181173D01*
X107201753Y-88159357D01*
X107274172Y-88087190D01*
X107338096Y-88023489D01*
X107359063Y-87994311D01*
X107465435Y-87846277D01*
X107468453Y-87842077D01*
X107501388Y-87775439D01*
X107565136Y-87646453D01*
X107565137Y-87646451D01*
X107567430Y-87641811D01*
X107612794Y-87492500D01*
X107630865Y-87433023D01*
X107630865Y-87433021D01*
X107632370Y-87428069D01*
X107661529Y-87206590D01*
X107662912Y-87150000D01*
X107663074Y-87143365D01*
X107663074Y-87143361D01*
X107663156Y-87140000D01*
X107644852Y-86917361D01*
X107590431Y-86700702D01*
X107501354Y-86495840D01*
X107411598Y-86357098D01*
X107382822Y-86312617D01*
X107382820Y-86312614D01*
X107380014Y-86308277D01*
X107341415Y-86265857D01*
X107232798Y-86146488D01*
X107201746Y-86082642D01*
X107210141Y-86012143D01*
X107255317Y-85957375D01*
X107281761Y-85943706D01*
X107388297Y-85903767D01*
X107396705Y-85900615D01*
X107513261Y-85813261D01*
X107600615Y-85696705D01*
X107651745Y-85560316D01*
X107658500Y-85498134D01*
X107658500Y-83834000D01*
X107678502Y-83765879D01*
X107732158Y-83719386D01*
X107784500Y-83708000D01*
X108020500Y-83708000D01*
X108088621Y-83728002D01*
G37*
G04 #@! TD.AperFunction*
G04 #@! TA.AperFunction,Conductor*
G36*
X147433146Y-92474424D02*
G01*
X147489982Y-92516971D01*
X147514905Y-92585227D01*
X147519932Y-92672408D01*
X147525110Y-92762215D01*
X147526247Y-92767261D01*
X147526248Y-92767267D01*
X147533009Y-92797267D01*
X147574222Y-92980139D01*
X147658266Y-93187116D01*
X147676650Y-93217116D01*
X147770245Y-93369849D01*
X147774987Y-93377588D01*
X147921250Y-93546438D01*
X148093126Y-93689132D01*
X148123969Y-93707155D01*
X148166955Y-93732274D01*
X148215679Y-93783912D01*
X148228750Y-93853695D01*
X148202019Y-93919467D01*
X148161562Y-93952827D01*
X148153457Y-93957046D01*
X148144738Y-93962536D01*
X147974433Y-94090405D01*
X147966726Y-94097248D01*
X147819590Y-94251217D01*
X147813104Y-94259227D01*
X147693098Y-94435149D01*
X147688000Y-94444123D01*
X147598338Y-94637283D01*
X147594775Y-94646970D01*
X147539389Y-94846683D01*
X147540912Y-94855107D01*
X147553292Y-94858500D01*
X149003000Y-94858500D01*
X149071121Y-94878502D01*
X149117614Y-94932158D01*
X149129000Y-94984500D01*
X149129000Y-95240500D01*
X149108998Y-95308621D01*
X149055342Y-95355114D01*
X149003000Y-95366500D01*
X147558225Y-95366500D01*
X147544694Y-95370473D01*
X147543257Y-95380466D01*
X147573565Y-95514946D01*
X147576645Y-95524775D01*
X147656770Y-95722103D01*
X147661413Y-95731294D01*
X147772694Y-95912888D01*
X147778777Y-95921199D01*
X147918213Y-96082167D01*
X147925577Y-96089379D01*
X147930522Y-96093485D01*
X147970156Y-96152389D01*
X147971653Y-96223370D01*
X147934537Y-96283892D01*
X147894264Y-96308410D01*
X147786705Y-96348732D01*
X147786704Y-96348733D01*
X147778295Y-96351885D01*
X147661739Y-96439239D01*
X147574385Y-96555795D01*
X147523255Y-96692184D01*
X147516500Y-96754366D01*
X147516500Y-98550634D01*
X147523255Y-98612816D01*
X147574385Y-98749205D01*
X147661739Y-98865761D01*
X147778295Y-98953115D01*
X147914684Y-99004245D01*
X147976866Y-99011000D01*
X149290011Y-99011000D01*
X149358132Y-99031002D01*
X149404625Y-99084658D01*
X149416011Y-99137000D01*
X149416011Y-99615500D01*
X149396009Y-99683621D01*
X149342353Y-99730114D01*
X149290011Y-99741500D01*
X148026866Y-99741500D01*
X147964684Y-99748255D01*
X147828295Y-99799385D01*
X147711739Y-99886739D01*
X147624385Y-100003295D01*
X147621233Y-100011703D01*
X147579919Y-100121907D01*
X147537277Y-100178671D01*
X147470716Y-100203371D01*
X147401367Y-100188163D01*
X147368743Y-100162476D01*
X147318151Y-100106875D01*
X147318142Y-100106866D01*
X147314670Y-100103051D01*
X147310619Y-100099852D01*
X147310615Y-100099848D01*
X147143414Y-99967800D01*
X147143410Y-99967798D01*
X147139359Y-99964598D01*
X147134835Y-99962101D01*
X147134831Y-99962098D01*
X147083608Y-99933822D01*
X147033636Y-99883390D01*
X147018500Y-99823513D01*
X147018500Y-92837094D01*
X147038502Y-92768973D01*
X147055405Y-92747999D01*
X147300019Y-92503385D01*
X147362331Y-92469359D01*
X147433146Y-92474424D01*
G37*
G04 #@! TD.AperFunction*
G04 #@! TA.AperFunction,Conductor*
G36*
X131175281Y-83728002D02*
G01*
X131221774Y-83781658D01*
X131231878Y-83851932D01*
X131210373Y-83906270D01*
X131177477Y-83953251D01*
X131175154Y-83958233D01*
X131175151Y-83958238D01*
X131087151Y-84146957D01*
X131080716Y-84160757D01*
X131079294Y-84166065D01*
X131079293Y-84166067D01*
X131037435Y-84322283D01*
X131021457Y-84381913D01*
X131001502Y-84610000D01*
X131021457Y-84838087D01*
X131022881Y-84843400D01*
X131022881Y-84843402D01*
X131078885Y-85052408D01*
X131080716Y-85059243D01*
X131083039Y-85064224D01*
X131083039Y-85064225D01*
X131175151Y-85261762D01*
X131175154Y-85261767D01*
X131177477Y-85266749D01*
X131308802Y-85454300D01*
X131470700Y-85616198D01*
X131475208Y-85619355D01*
X131475211Y-85619357D01*
X131531509Y-85658777D01*
X131658251Y-85747523D01*
X131663233Y-85749846D01*
X131663238Y-85749849D01*
X131697457Y-85765805D01*
X131750742Y-85812722D01*
X131770203Y-85880999D01*
X131749661Y-85948959D01*
X131697457Y-85994195D01*
X131663238Y-86010151D01*
X131663233Y-86010154D01*
X131658251Y-86012477D01*
X131647466Y-86020029D01*
X131475211Y-86140643D01*
X131475208Y-86140645D01*
X131470700Y-86143802D01*
X131308802Y-86305700D01*
X131305645Y-86310208D01*
X131305643Y-86310211D01*
X131254634Y-86383059D01*
X131177477Y-86493251D01*
X131175154Y-86498233D01*
X131175151Y-86498238D01*
X131101140Y-86656957D01*
X131080716Y-86700757D01*
X131079294Y-86706065D01*
X131079293Y-86706067D01*
X131022881Y-86916598D01*
X131021457Y-86921913D01*
X131001502Y-87150000D01*
X131021457Y-87378087D01*
X131022881Y-87383400D01*
X131022881Y-87383402D01*
X131078885Y-87592408D01*
X131080716Y-87599243D01*
X131083039Y-87604224D01*
X131083039Y-87604225D01*
X131175151Y-87801762D01*
X131175154Y-87801767D01*
X131177477Y-87806749D01*
X131308802Y-87994300D01*
X131470700Y-88156198D01*
X131475208Y-88159355D01*
X131475211Y-88159357D01*
X131525511Y-88194577D01*
X131658251Y-88287523D01*
X131663233Y-88289846D01*
X131663238Y-88289849D01*
X131697457Y-88305805D01*
X131750742Y-88352722D01*
X131770203Y-88420999D01*
X131749661Y-88488959D01*
X131697457Y-88534195D01*
X131663238Y-88550151D01*
X131663233Y-88550154D01*
X131658251Y-88552477D01*
X131647466Y-88560029D01*
X131475211Y-88680643D01*
X131475208Y-88680645D01*
X131470700Y-88683802D01*
X131308802Y-88845700D01*
X131305645Y-88850208D01*
X131305643Y-88850211D01*
X131269011Y-88902527D01*
X131177477Y-89033251D01*
X131175154Y-89038233D01*
X131175151Y-89038238D01*
X131123563Y-89148871D01*
X131080716Y-89240757D01*
X131079294Y-89246065D01*
X131079293Y-89246067D01*
X131022881Y-89456598D01*
X131021457Y-89461913D01*
X131001502Y-89690000D01*
X131021457Y-89918087D01*
X131022881Y-89923400D01*
X131022881Y-89923402D01*
X131078885Y-90132408D01*
X131080716Y-90139243D01*
X131083039Y-90144224D01*
X131083039Y-90144225D01*
X131175151Y-90341762D01*
X131175154Y-90341767D01*
X131177477Y-90346749D01*
X131308802Y-90534300D01*
X131470700Y-90696198D01*
X131475208Y-90699355D01*
X131475211Y-90699357D01*
X131525511Y-90734577D01*
X131658251Y-90827523D01*
X131663233Y-90829846D01*
X131663238Y-90829849D01*
X131697457Y-90845805D01*
X131750742Y-90892722D01*
X131770203Y-90960999D01*
X131749661Y-91028959D01*
X131697457Y-91074195D01*
X131663238Y-91090151D01*
X131663233Y-91090154D01*
X131658251Y-91092477D01*
X131647466Y-91100029D01*
X131475211Y-91220643D01*
X131475208Y-91220645D01*
X131470700Y-91223802D01*
X131308802Y-91385700D01*
X131305645Y-91390208D01*
X131305643Y-91390211D01*
X131269011Y-91442527D01*
X131177477Y-91573251D01*
X131175154Y-91578233D01*
X131175151Y-91578238D01*
X131101140Y-91736957D01*
X131080716Y-91780757D01*
X131079294Y-91786065D01*
X131079293Y-91786067D01*
X131022881Y-91996598D01*
X131021457Y-92001913D01*
X131001502Y-92230000D01*
X131021457Y-92458087D01*
X131022881Y-92463400D01*
X131022881Y-92463402D01*
X131078885Y-92672408D01*
X131080716Y-92679243D01*
X131083039Y-92684224D01*
X131083039Y-92684225D01*
X131175151Y-92881762D01*
X131175154Y-92881767D01*
X131177477Y-92886749D01*
X131308802Y-93074300D01*
X131470700Y-93236198D01*
X131475208Y-93239355D01*
X131475211Y-93239357D01*
X131506368Y-93261173D01*
X131658251Y-93367523D01*
X131663233Y-93369846D01*
X131663238Y-93369849D01*
X131697457Y-93385805D01*
X131750742Y-93432722D01*
X131770203Y-93500999D01*
X131749661Y-93568959D01*
X131697457Y-93614195D01*
X131663238Y-93630151D01*
X131663233Y-93630154D01*
X131658251Y-93632477D01*
X131624991Y-93655766D01*
X131475211Y-93760643D01*
X131475208Y-93760645D01*
X131470700Y-93763802D01*
X131308802Y-93925700D01*
X131305645Y-93930208D01*
X131305643Y-93930211D01*
X131286853Y-93957046D01*
X131177477Y-94113251D01*
X131175154Y-94118233D01*
X131175151Y-94118238D01*
X131087011Y-94307257D01*
X131080716Y-94320757D01*
X131079294Y-94326065D01*
X131079293Y-94326067D01*
X131022881Y-94536598D01*
X131021457Y-94541913D01*
X131001502Y-94770000D01*
X131021457Y-94998087D01*
X131022881Y-95003400D01*
X131022881Y-95003402D01*
X131055806Y-95126277D01*
X131080716Y-95219243D01*
X131083039Y-95224224D01*
X131083039Y-95224225D01*
X131175151Y-95421762D01*
X131175154Y-95421767D01*
X131177477Y-95426749D01*
X131198966Y-95457438D01*
X131293498Y-95592443D01*
X131308802Y-95614300D01*
X131470700Y-95776198D01*
X131475208Y-95779355D01*
X131475211Y-95779357D01*
X131506368Y-95801173D01*
X131658251Y-95907523D01*
X131663233Y-95909846D01*
X131663238Y-95909849D01*
X131697457Y-95925805D01*
X131750742Y-95972722D01*
X131770203Y-96040999D01*
X131749661Y-96108959D01*
X131697457Y-96154195D01*
X131663238Y-96170151D01*
X131663233Y-96170154D01*
X131658251Y-96172477D01*
X131578865Y-96228064D01*
X131475211Y-96300643D01*
X131475208Y-96300645D01*
X131470700Y-96303802D01*
X131308802Y-96465700D01*
X131305645Y-96470208D01*
X131305643Y-96470211D01*
X131301296Y-96476419D01*
X131177477Y-96653251D01*
X131175154Y-96658233D01*
X131175151Y-96658238D01*
X131116337Y-96784366D01*
X131080716Y-96860757D01*
X131079294Y-96866065D01*
X131079293Y-96866067D01*
X131022881Y-97076598D01*
X131021457Y-97081913D01*
X131001502Y-97310000D01*
X131021457Y-97538087D01*
X131022881Y-97543400D01*
X131022881Y-97543402D01*
X131078312Y-97750270D01*
X131080716Y-97759243D01*
X131083039Y-97764224D01*
X131083039Y-97764225D01*
X131085022Y-97768477D01*
X131112048Y-97826434D01*
X131152288Y-97912730D01*
X131162949Y-97982922D01*
X131133969Y-98047735D01*
X131074549Y-98086591D01*
X131038093Y-98091980D01*
X113398287Y-98091980D01*
X113387104Y-98091453D01*
X113379611Y-98089778D01*
X113371685Y-98090027D01*
X113371684Y-98090027D01*
X113311521Y-98091918D01*
X113307563Y-98091980D01*
X113279664Y-98091980D01*
X113275674Y-98092484D01*
X113263840Y-98093416D01*
X113219631Y-98094806D01*
X113212017Y-98097018D01*
X113212012Y-98097019D01*
X113200179Y-98100457D01*
X113180816Y-98104468D01*
X113160723Y-98107006D01*
X113153356Y-98109923D01*
X113153351Y-98109924D01*
X113119612Y-98123282D01*
X113108385Y-98127126D01*
X113065927Y-98139462D01*
X113059101Y-98143499D01*
X113048492Y-98149773D01*
X113030744Y-98158468D01*
X113011903Y-98165928D01*
X113005487Y-98170590D01*
X113005486Y-98170590D01*
X112976133Y-98191916D01*
X112966213Y-98198432D01*
X112934985Y-98216900D01*
X112934982Y-98216902D01*
X112928158Y-98220938D01*
X112913837Y-98235259D01*
X112898804Y-98248099D01*
X112882413Y-98260008D01*
X112877362Y-98266114D01*
X112854222Y-98294085D01*
X112846232Y-98302864D01*
X111370071Y-99779025D01*
X111307759Y-99813051D01*
X111236944Y-99807986D01*
X111180108Y-99765439D01*
X111155456Y-99700912D01*
X111149024Y-99627405D01*
X111149022Y-99627393D01*
X111148543Y-99621913D01*
X111146168Y-99613048D01*
X111090707Y-99406067D01*
X111090706Y-99406065D01*
X111089284Y-99400757D01*
X111069803Y-99358980D01*
X110994849Y-99198238D01*
X110994846Y-99198233D01*
X110992523Y-99193251D01*
X110911757Y-99077905D01*
X110864357Y-99010211D01*
X110864355Y-99010208D01*
X110861198Y-99005700D01*
X110699300Y-98843802D01*
X110694792Y-98840645D01*
X110694789Y-98840643D01*
X110586232Y-98764631D01*
X110511749Y-98712477D01*
X110506767Y-98710154D01*
X110506762Y-98710151D01*
X110472543Y-98694195D01*
X110419258Y-98647278D01*
X110399797Y-98579001D01*
X110420339Y-98511041D01*
X110472543Y-98465805D01*
X110506762Y-98449849D01*
X110506767Y-98449846D01*
X110511749Y-98447523D01*
X110663632Y-98341173D01*
X110694789Y-98319357D01*
X110694792Y-98319355D01*
X110699300Y-98316198D01*
X110861198Y-98154300D01*
X110880226Y-98127126D01*
X110971034Y-97997438D01*
X110992523Y-97966749D01*
X110994846Y-97961767D01*
X110994849Y-97961762D01*
X111086961Y-97764225D01*
X111086961Y-97764224D01*
X111089284Y-97759243D01*
X111091689Y-97750270D01*
X111147119Y-97543402D01*
X111147119Y-97543400D01*
X111148543Y-97538087D01*
X111168498Y-97310000D01*
X111148543Y-97081913D01*
X111147119Y-97076598D01*
X111090707Y-96866067D01*
X111090706Y-96866065D01*
X111089284Y-96860757D01*
X111053663Y-96784366D01*
X110994849Y-96658238D01*
X110994846Y-96658233D01*
X110992523Y-96653251D01*
X110868704Y-96476419D01*
X110864357Y-96470211D01*
X110864355Y-96470208D01*
X110861198Y-96465700D01*
X110699300Y-96303802D01*
X110694792Y-96300645D01*
X110694789Y-96300643D01*
X110591135Y-96228064D01*
X110511749Y-96172477D01*
X110506767Y-96170154D01*
X110506762Y-96170151D01*
X110472543Y-96154195D01*
X110419258Y-96107278D01*
X110399797Y-96039001D01*
X110420339Y-95971041D01*
X110472543Y-95925805D01*
X110506762Y-95909849D01*
X110506767Y-95909846D01*
X110511749Y-95907523D01*
X110663632Y-95801173D01*
X110694789Y-95779357D01*
X110694792Y-95779355D01*
X110699300Y-95776198D01*
X110861198Y-95614300D01*
X110876503Y-95592443D01*
X110971034Y-95457438D01*
X110992523Y-95426749D01*
X110994846Y-95421767D01*
X110994849Y-95421762D01*
X111086961Y-95224225D01*
X111086961Y-95224224D01*
X111089284Y-95219243D01*
X111114195Y-95126277D01*
X111147119Y-95003402D01*
X111147119Y-95003400D01*
X111148543Y-94998087D01*
X111168498Y-94770000D01*
X111148543Y-94541913D01*
X111147119Y-94536598D01*
X111090707Y-94326067D01*
X111090706Y-94326065D01*
X111089284Y-94320757D01*
X111082989Y-94307257D01*
X110994849Y-94118238D01*
X110994846Y-94118233D01*
X110992523Y-94113251D01*
X110883147Y-93957046D01*
X110864357Y-93930211D01*
X110864355Y-93930208D01*
X110861198Y-93925700D01*
X110699300Y-93763802D01*
X110694792Y-93760645D01*
X110694789Y-93760643D01*
X110545009Y-93655766D01*
X110511749Y-93632477D01*
X110506767Y-93630154D01*
X110506762Y-93630151D01*
X110472543Y-93614195D01*
X110419258Y-93567278D01*
X110399797Y-93499001D01*
X110420339Y-93431041D01*
X110472543Y-93385805D01*
X110506762Y-93369849D01*
X110506767Y-93369846D01*
X110511749Y-93367523D01*
X110663632Y-93261173D01*
X110694789Y-93239357D01*
X110694792Y-93239355D01*
X110699300Y-93236198D01*
X110861198Y-93074300D01*
X110992523Y-92886749D01*
X110994846Y-92881767D01*
X110994849Y-92881762D01*
X111086961Y-92684225D01*
X111086961Y-92684224D01*
X111089284Y-92679243D01*
X111091116Y-92672408D01*
X111147119Y-92463402D01*
X111147119Y-92463400D01*
X111148543Y-92458087D01*
X111168498Y-92230000D01*
X111148543Y-92001913D01*
X111147119Y-91996598D01*
X111090707Y-91786067D01*
X111090706Y-91786065D01*
X111089284Y-91780757D01*
X111068860Y-91736957D01*
X110994849Y-91578238D01*
X110994846Y-91578233D01*
X110992523Y-91573251D01*
X110900989Y-91442527D01*
X110864357Y-91390211D01*
X110864355Y-91390208D01*
X110861198Y-91385700D01*
X110699300Y-91223802D01*
X110694792Y-91220645D01*
X110694789Y-91220643D01*
X110522534Y-91100029D01*
X110511749Y-91092477D01*
X110506767Y-91090154D01*
X110506762Y-91090151D01*
X110472543Y-91074195D01*
X110419258Y-91027278D01*
X110399797Y-90959001D01*
X110420339Y-90891041D01*
X110472543Y-90845805D01*
X110506762Y-90829849D01*
X110506767Y-90829846D01*
X110511749Y-90827523D01*
X110644489Y-90734577D01*
X110694789Y-90699357D01*
X110694792Y-90699355D01*
X110699300Y-90696198D01*
X110779117Y-90616381D01*
X117849160Y-90616381D01*
X117849237Y-90617470D01*
X117851698Y-90621206D01*
X118125632Y-90831404D01*
X118131262Y-90835259D01*
X118431591Y-91017862D01*
X118437593Y-91021080D01*
X118755897Y-91170184D01*
X118762202Y-91172732D01*
X119094743Y-91286587D01*
X119101313Y-91288446D01*
X119444183Y-91365714D01*
X119450912Y-91366853D01*
X119800143Y-91406643D01*
X119806933Y-91407046D01*
X120158419Y-91408886D01*
X120165220Y-91408554D01*
X120514853Y-91372423D01*
X120521581Y-91371357D01*
X120865274Y-91297676D01*
X120871822Y-91295897D01*
X121205549Y-91185527D01*
X121211891Y-91183041D01*
X121531718Y-91037288D01*
X121537777Y-91034121D01*
X121839995Y-90854676D01*
X121845659Y-90850884D01*
X122126732Y-90639849D01*
X122131958Y-90635464D01*
X122141613Y-90626428D01*
X122149682Y-90612750D01*
X122149654Y-90612024D01*
X122144512Y-90603723D01*
X120012810Y-88472020D01*
X119998869Y-88464408D01*
X119997034Y-88464539D01*
X119990420Y-88468790D01*
X117856774Y-90602437D01*
X117849160Y-90616381D01*
X110779117Y-90616381D01*
X110861198Y-90534300D01*
X110992523Y-90346749D01*
X110994846Y-90341767D01*
X110994849Y-90341762D01*
X111086961Y-90144225D01*
X111086961Y-90144224D01*
X111089284Y-90139243D01*
X111091116Y-90132408D01*
X111147119Y-89923402D01*
X111147119Y-89923400D01*
X111148543Y-89918087D01*
X111168498Y-89690000D01*
X111148543Y-89461913D01*
X111147119Y-89456598D01*
X111090707Y-89246067D01*
X111090706Y-89246065D01*
X111089284Y-89240757D01*
X111046437Y-89148871D01*
X110994849Y-89038238D01*
X110994846Y-89038233D01*
X110992523Y-89033251D01*
X110900989Y-88902527D01*
X110864357Y-88850211D01*
X110864355Y-88850208D01*
X110861198Y-88845700D01*
X110699300Y-88683802D01*
X110694792Y-88680645D01*
X110694789Y-88680643D01*
X110522534Y-88560029D01*
X110511749Y-88552477D01*
X110506767Y-88550154D01*
X110506762Y-88550151D01*
X110472543Y-88534195D01*
X110419258Y-88487278D01*
X110399797Y-88419001D01*
X110420339Y-88351041D01*
X110472543Y-88305805D01*
X110506762Y-88289849D01*
X110506767Y-88289846D01*
X110511749Y-88287523D01*
X110644489Y-88194577D01*
X110694789Y-88159357D01*
X110694792Y-88159355D01*
X110699300Y-88156198D01*
X110763666Y-88091832D01*
X116687333Y-88091832D01*
X116705117Y-88442893D01*
X116705827Y-88449649D01*
X116761420Y-88796723D01*
X116762859Y-88803378D01*
X116855608Y-89142410D01*
X116857757Y-89148871D01*
X116986581Y-89475912D01*
X116989412Y-89482095D01*
X117152803Y-89793310D01*
X117156286Y-89799152D01*
X117352330Y-90090896D01*
X117356433Y-90096340D01*
X117476425Y-90238836D01*
X117489164Y-90247279D01*
X117499608Y-90241181D01*
X119627980Y-88112810D01*
X119634357Y-88101131D01*
X120364408Y-88101131D01*
X120364539Y-88102966D01*
X120368790Y-88109580D01*
X122499009Y-90239798D01*
X122512605Y-90247223D01*
X122522218Y-90240522D01*
X122622518Y-90123912D01*
X122626676Y-90118514D01*
X122825762Y-89828840D01*
X122829310Y-89823029D01*
X122995942Y-89513559D01*
X122998849Y-89507381D01*
X123131090Y-89181713D01*
X123133304Y-89175283D01*
X123229598Y-88837237D01*
X123231105Y-88830607D01*
X123290332Y-88484118D01*
X123291112Y-88477378D01*
X123312668Y-88124925D01*
X123312784Y-88121323D01*
X123312853Y-88101819D01*
X123312761Y-88098194D01*
X123293666Y-87745615D01*
X123292931Y-87738849D01*
X123236130Y-87391985D01*
X123234663Y-87385313D01*
X123140736Y-87046627D01*
X123138562Y-87040163D01*
X123008598Y-86713578D01*
X123005742Y-86707398D01*
X122841269Y-86396763D01*
X122837769Y-86390937D01*
X122640697Y-86099862D01*
X122636590Y-86094453D01*
X122523565Y-85961179D01*
X122510740Y-85952743D01*
X122500416Y-85958795D01*
X120372020Y-88087190D01*
X120364408Y-88101131D01*
X119634357Y-88101131D01*
X119635592Y-88098869D01*
X119635461Y-88097034D01*
X119631210Y-88090420D01*
X117500992Y-85960203D01*
X117487455Y-85952811D01*
X117477753Y-85959599D01*
X117370430Y-86085257D01*
X117366296Y-86090664D01*
X117168215Y-86381041D01*
X117164697Y-86386851D01*
X116999134Y-86696922D01*
X116996259Y-86703087D01*
X116865155Y-87029218D01*
X116862962Y-87035658D01*
X116767846Y-87374044D01*
X116766363Y-87380679D01*
X116708350Y-87727354D01*
X116707591Y-87734126D01*
X116687357Y-88085037D01*
X116687333Y-88091832D01*
X110763666Y-88091832D01*
X110861198Y-87994300D01*
X110992523Y-87806749D01*
X110994846Y-87801767D01*
X110994849Y-87801762D01*
X111086961Y-87604225D01*
X111086961Y-87604224D01*
X111089284Y-87599243D01*
X111091116Y-87592408D01*
X111147119Y-87383402D01*
X111147119Y-87383400D01*
X111148543Y-87378087D01*
X111168498Y-87150000D01*
X111148543Y-86921913D01*
X111147119Y-86916598D01*
X111090707Y-86706067D01*
X111090706Y-86706065D01*
X111089284Y-86700757D01*
X111068860Y-86656957D01*
X110994849Y-86498238D01*
X110994846Y-86498233D01*
X110992523Y-86493251D01*
X110915366Y-86383059D01*
X110864357Y-86310211D01*
X110864355Y-86310208D01*
X110861198Y-86305700D01*
X110832365Y-86276867D01*
X110798339Y-86214555D01*
X110803404Y-86143740D01*
X110845951Y-86086904D01*
X110877232Y-86069790D01*
X110893293Y-86063769D01*
X110893296Y-86063767D01*
X110901705Y-86060615D01*
X111018261Y-85973261D01*
X111105615Y-85856705D01*
X111156745Y-85720316D01*
X111163500Y-85658134D01*
X111163500Y-85586862D01*
X117849950Y-85586862D01*
X117849986Y-85587704D01*
X117855037Y-85595826D01*
X119987190Y-87727980D01*
X120001131Y-87735592D01*
X120002966Y-87735461D01*
X120009580Y-87731210D01*
X122142798Y-85597991D01*
X122150412Y-85584047D01*
X122150344Y-85583089D01*
X122145836Y-85576272D01*
X122144418Y-85575065D01*
X121864813Y-85362064D01*
X121859187Y-85358240D01*
X121558214Y-85176681D01*
X121552202Y-85173484D01*
X121233370Y-85025487D01*
X121227070Y-85022967D01*
X120894129Y-84910273D01*
X120887551Y-84908437D01*
X120544417Y-84832367D01*
X120537678Y-84831251D01*
X120188310Y-84792680D01*
X120181529Y-84792301D01*
X119830015Y-84791687D01*
X119823242Y-84792042D01*
X119473720Y-84829395D01*
X119467010Y-84830482D01*
X119123586Y-84905361D01*
X119117011Y-84907172D01*
X118783683Y-85018702D01*
X118777361Y-85021205D01*
X118458034Y-85168079D01*
X118451991Y-85171265D01*
X118150401Y-85351763D01*
X118144755Y-85355571D01*
X117864408Y-85567596D01*
X117859211Y-85571987D01*
X117857972Y-85573155D01*
X117849950Y-85586862D01*
X111163500Y-85586862D01*
X111163500Y-83834000D01*
X111183502Y-83765879D01*
X111237158Y-83719386D01*
X111289500Y-83708000D01*
X131107160Y-83708000D01*
X131175281Y-83728002D01*
G37*
G04 #@! TD.AperFunction*
G04 #@! TA.AperFunction,Conductor*
G36*
X135200225Y-83728002D02*
G01*
X135246718Y-83781658D01*
X135256822Y-83851932D01*
X135227328Y-83916512D01*
X135207757Y-83934760D01*
X135174980Y-83959370D01*
X135169965Y-83963135D01*
X135113117Y-84022623D01*
X135019319Y-84120777D01*
X135015629Y-84124638D01*
X134889743Y-84309180D01*
X134875012Y-84340915D01*
X134827128Y-84444074D01*
X134795688Y-84511805D01*
X134735989Y-84727070D01*
X134712251Y-84949195D01*
X134712548Y-84954348D01*
X134712548Y-84954351D01*
X134724812Y-85167047D01*
X134725110Y-85172215D01*
X134726247Y-85177261D01*
X134726248Y-85177267D01*
X134746119Y-85265439D01*
X134774222Y-85390139D01*
X134817934Y-85497790D01*
X134848537Y-85573155D01*
X134858266Y-85597116D01*
X134871895Y-85619357D01*
X134951861Y-85749849D01*
X134974987Y-85787588D01*
X135121250Y-85956438D01*
X135293126Y-86099132D01*
X135359136Y-86137705D01*
X135366445Y-86141976D01*
X135415169Y-86193614D01*
X135428240Y-86263397D01*
X135401509Y-86329169D01*
X135361055Y-86362527D01*
X135348607Y-86369007D01*
X135344474Y-86372110D01*
X135344471Y-86372112D01*
X135174100Y-86500030D01*
X135169965Y-86503135D01*
X135166393Y-86506873D01*
X135019319Y-86660777D01*
X135015629Y-86664638D01*
X134889743Y-86849180D01*
X134874003Y-86883090D01*
X134798092Y-87046627D01*
X134795688Y-87051805D01*
X134735989Y-87267070D01*
X134712251Y-87489195D01*
X134712548Y-87494348D01*
X134712548Y-87494351D01*
X134724812Y-87707047D01*
X134725110Y-87712215D01*
X134726247Y-87717261D01*
X134726248Y-87717267D01*
X134746119Y-87805439D01*
X134774222Y-87930139D01*
X134812127Y-88023489D01*
X134842462Y-88098194D01*
X134858266Y-88137116D01*
X134871895Y-88159357D01*
X134963541Y-88308909D01*
X134974987Y-88327588D01*
X135121250Y-88496438D01*
X135293126Y-88639132D01*
X135331249Y-88661409D01*
X135366445Y-88681976D01*
X135415169Y-88733614D01*
X135428240Y-88803397D01*
X135401509Y-88869169D01*
X135361055Y-88902527D01*
X135348607Y-88909007D01*
X135344474Y-88912110D01*
X135344471Y-88912112D01*
X135174100Y-89040030D01*
X135169965Y-89043135D01*
X135166393Y-89046873D01*
X135019319Y-89200777D01*
X135015629Y-89204638D01*
X134889743Y-89389180D01*
X134795688Y-89591805D01*
X134735989Y-89807070D01*
X134712251Y-90029195D01*
X134712548Y-90034348D01*
X134712548Y-90034351D01*
X134724339Y-90238836D01*
X134725110Y-90252215D01*
X134726247Y-90257261D01*
X134726248Y-90257267D01*
X134746119Y-90345439D01*
X134774222Y-90470139D01*
X134812127Y-90563489D01*
X134843134Y-90639849D01*
X134858266Y-90677116D01*
X134871895Y-90699357D01*
X134967075Y-90854676D01*
X134974987Y-90867588D01*
X135121250Y-91036438D01*
X135293126Y-91179132D01*
X135304070Y-91185527D01*
X135366445Y-91221976D01*
X135415169Y-91273614D01*
X135428240Y-91343397D01*
X135401509Y-91409169D01*
X135361055Y-91442527D01*
X135348607Y-91449007D01*
X135344474Y-91452110D01*
X135344471Y-91452112D01*
X135174100Y-91580030D01*
X135169965Y-91583135D01*
X135166393Y-91586873D01*
X135019319Y-91740777D01*
X135015629Y-91744638D01*
X134889743Y-91929180D01*
X134874003Y-91963090D01*
X134805522Y-92110620D01*
X134795688Y-92131805D01*
X134735989Y-92347070D01*
X134712251Y-92569195D01*
X134712548Y-92574348D01*
X134712548Y-92574351D01*
X134723770Y-92768973D01*
X134725110Y-92792215D01*
X134726247Y-92797261D01*
X134726248Y-92797267D01*
X134746119Y-92885439D01*
X134774222Y-93010139D01*
X134812127Y-93103489D01*
X134847873Y-93191520D01*
X134858266Y-93217116D01*
X134871895Y-93239357D01*
X134963541Y-93388909D01*
X134974987Y-93407588D01*
X135121250Y-93576438D01*
X135293126Y-93719132D01*
X135362803Y-93759848D01*
X135366955Y-93762274D01*
X135415679Y-93813912D01*
X135428750Y-93883695D01*
X135402019Y-93949467D01*
X135361562Y-93982827D01*
X135353457Y-93987046D01*
X135344738Y-93992536D01*
X135174433Y-94120405D01*
X135166726Y-94127248D01*
X135019590Y-94281217D01*
X135013104Y-94289227D01*
X134893098Y-94465149D01*
X134888000Y-94474123D01*
X134798338Y-94667283D01*
X134794775Y-94676970D01*
X134739389Y-94876683D01*
X134740912Y-94885107D01*
X134753292Y-94888500D01*
X137393344Y-94888500D01*
X137406875Y-94884527D01*
X137408180Y-94875447D01*
X137366214Y-94708375D01*
X137362894Y-94698624D01*
X137277972Y-94503314D01*
X137273105Y-94494239D01*
X137157426Y-94315426D01*
X137151136Y-94307257D01*
X137007806Y-94149740D01*
X137000273Y-94142715D01*
X136833139Y-94010722D01*
X136824556Y-94005020D01*
X136787602Y-93984620D01*
X136737631Y-93934187D01*
X136722859Y-93864745D01*
X136747975Y-93798339D01*
X136775327Y-93771732D01*
X136830645Y-93732274D01*
X136954860Y-93643673D01*
X136968430Y-93630151D01*
X137105642Y-93493417D01*
X137113096Y-93485989D01*
X137172594Y-93403189D01*
X137240435Y-93308777D01*
X137243453Y-93304577D01*
X137256619Y-93277939D01*
X137340136Y-93108953D01*
X137340137Y-93108951D01*
X137342430Y-93104311D01*
X137407370Y-92890569D01*
X137436529Y-92669090D01*
X137438156Y-92602500D01*
X137419852Y-92379861D01*
X137365431Y-92163202D01*
X137276354Y-91958340D01*
X137164681Y-91785720D01*
X137157822Y-91775117D01*
X137157820Y-91775114D01*
X137155014Y-91770777D01*
X137004670Y-91605551D01*
X137000619Y-91602352D01*
X137000615Y-91602348D01*
X136833414Y-91470300D01*
X136833410Y-91470298D01*
X136829359Y-91467098D01*
X136788053Y-91444296D01*
X136738084Y-91393864D01*
X136723312Y-91324421D01*
X136748428Y-91258016D01*
X136775780Y-91231409D01*
X136840104Y-91185527D01*
X136954860Y-91103673D01*
X136968430Y-91090151D01*
X137100038Y-90959001D01*
X137113096Y-90945989D01*
X137172594Y-90863189D01*
X137240435Y-90768777D01*
X137243453Y-90764577D01*
X137264905Y-90721173D01*
X137340136Y-90568953D01*
X137340137Y-90568951D01*
X137342430Y-90564311D01*
X137407370Y-90350569D01*
X137436529Y-90129090D01*
X137436656Y-90123912D01*
X137438074Y-90065865D01*
X137438074Y-90065861D01*
X137438156Y-90062500D01*
X137419852Y-89839861D01*
X137365431Y-89623202D01*
X137276354Y-89418340D01*
X137164681Y-89245720D01*
X137157822Y-89235117D01*
X137157820Y-89235114D01*
X137155014Y-89230777D01*
X137004670Y-89065551D01*
X137000619Y-89062352D01*
X137000615Y-89062348D01*
X136833414Y-88930300D01*
X136833410Y-88930298D01*
X136829359Y-88927098D01*
X136788053Y-88904296D01*
X136738084Y-88853864D01*
X136723312Y-88784421D01*
X136748428Y-88718016D01*
X136775780Y-88691409D01*
X136819603Y-88660150D01*
X136954860Y-88563673D01*
X136968430Y-88550151D01*
X137100038Y-88419001D01*
X137113096Y-88405989D01*
X137172594Y-88323189D01*
X137240435Y-88228777D01*
X137243453Y-88224577D01*
X137264905Y-88181173D01*
X137340136Y-88028953D01*
X137340137Y-88028951D01*
X137342430Y-88024311D01*
X137407370Y-87810569D01*
X137436529Y-87589090D01*
X137438156Y-87522500D01*
X137419852Y-87299861D01*
X137365431Y-87083202D01*
X137276354Y-86878340D01*
X137162978Y-86703087D01*
X137157822Y-86695117D01*
X137157820Y-86695114D01*
X137155014Y-86690777D01*
X137004670Y-86525551D01*
X137000619Y-86522352D01*
X137000615Y-86522348D01*
X136833414Y-86390300D01*
X136833410Y-86390298D01*
X136829359Y-86387098D01*
X136788053Y-86364296D01*
X136738084Y-86313864D01*
X136723312Y-86244421D01*
X136748428Y-86178016D01*
X136775780Y-86151409D01*
X136831387Y-86111745D01*
X136954860Y-86023673D01*
X136966431Y-86012143D01*
X137079006Y-85899960D01*
X137113096Y-85865989D01*
X137118575Y-85858365D01*
X137240435Y-85688777D01*
X137243453Y-85684577D01*
X137291331Y-85587704D01*
X137340136Y-85488953D01*
X137340137Y-85488951D01*
X137342430Y-85484311D01*
X137407370Y-85270569D01*
X137436529Y-85049090D01*
X137437262Y-85019090D01*
X137438074Y-84985865D01*
X137438074Y-84985861D01*
X137438156Y-84982500D01*
X137419852Y-84759861D01*
X137365431Y-84543202D01*
X137276354Y-84338340D01*
X137228681Y-84264649D01*
X137157822Y-84155117D01*
X137157820Y-84155114D01*
X137155014Y-84150777D01*
X137004670Y-83985551D01*
X136937978Y-83932881D01*
X136896917Y-83874964D01*
X136893685Y-83804041D01*
X136929311Y-83742630D01*
X136992482Y-83710228D01*
X137016072Y-83708000D01*
X147892482Y-83708000D01*
X147960603Y-83728002D01*
X148007096Y-83781658D01*
X148017200Y-83851932D01*
X147987706Y-83916512D01*
X147976135Y-83928224D01*
X147974103Y-83930028D01*
X147969965Y-83933135D01*
X147966392Y-83936874D01*
X147819386Y-84090707D01*
X147815629Y-84094638D01*
X147812715Y-84098910D01*
X147812714Y-84098911D01*
X147776484Y-84152023D01*
X147689743Y-84279180D01*
X147669713Y-84322331D01*
X147603195Y-84465633D01*
X147595688Y-84481805D01*
X147535989Y-84697070D01*
X147512251Y-84919195D01*
X147512548Y-84924348D01*
X147512548Y-84924351D01*
X147520613Y-85064225D01*
X147525110Y-85142215D01*
X147526247Y-85147261D01*
X147526248Y-85147267D01*
X147532877Y-85176681D01*
X147555153Y-85275523D01*
X147558453Y-85290168D01*
X147553917Y-85361020D01*
X147524631Y-85406964D01*
X137822747Y-95108848D01*
X137814461Y-95116388D01*
X137807982Y-95120500D01*
X137802557Y-95126277D01*
X137761357Y-95170151D01*
X137758602Y-95172993D01*
X137738865Y-95192730D01*
X137736385Y-95195927D01*
X137728682Y-95204947D01*
X137698414Y-95237179D01*
X137694595Y-95244125D01*
X137694593Y-95244128D01*
X137688652Y-95254934D01*
X137677801Y-95271453D01*
X137665386Y-95287459D01*
X137662241Y-95294728D01*
X137662238Y-95294732D01*
X137647826Y-95328037D01*
X137642609Y-95338687D01*
X137621305Y-95377440D01*
X137621305Y-95377441D01*
X137620022Y-95376736D01*
X137581687Y-95425865D01*
X137514683Y-95449340D01*
X137445625Y-95432863D01*
X137413974Y-95407145D01*
X137408258Y-95400704D01*
X137393617Y-95396500D01*
X134758225Y-95396500D01*
X134744694Y-95400473D01*
X134743257Y-95410466D01*
X134773565Y-95544946D01*
X134776645Y-95554775D01*
X134856770Y-95752103D01*
X134861413Y-95761294D01*
X134972694Y-95942888D01*
X134978777Y-95951199D01*
X135118213Y-96112167D01*
X135125577Y-96119379D01*
X135130522Y-96123485D01*
X135170156Y-96182389D01*
X135171653Y-96253370D01*
X135134537Y-96313892D01*
X135094264Y-96338410D01*
X134986705Y-96378732D01*
X134986704Y-96378733D01*
X134978295Y-96381885D01*
X134861739Y-96469239D01*
X134774385Y-96585795D01*
X134723255Y-96722184D01*
X134716500Y-96784366D01*
X134716500Y-97965980D01*
X134696498Y-98034101D01*
X134642842Y-98080594D01*
X134590500Y-98091980D01*
X133991907Y-98091980D01*
X133923786Y-98071978D01*
X133877293Y-98018322D01*
X133867189Y-97948048D01*
X133877712Y-97912730D01*
X133917953Y-97826434D01*
X133944978Y-97768477D01*
X133946961Y-97764225D01*
X133946961Y-97764224D01*
X133949284Y-97759243D01*
X133951689Y-97750270D01*
X134007119Y-97543402D01*
X134007119Y-97543400D01*
X134008543Y-97538087D01*
X134028498Y-97310000D01*
X134008543Y-97081913D01*
X134007119Y-97076598D01*
X133950707Y-96866067D01*
X133950706Y-96866065D01*
X133949284Y-96860757D01*
X133913663Y-96784366D01*
X133854849Y-96658238D01*
X133854846Y-96658233D01*
X133852523Y-96653251D01*
X133728704Y-96476419D01*
X133724357Y-96470211D01*
X133724355Y-96470208D01*
X133721198Y-96465700D01*
X133559300Y-96303802D01*
X133554792Y-96300645D01*
X133554789Y-96300643D01*
X133451135Y-96228064D01*
X133371749Y-96172477D01*
X133366767Y-96170154D01*
X133366762Y-96170151D01*
X133332543Y-96154195D01*
X133279258Y-96107278D01*
X133259797Y-96039001D01*
X133280339Y-95971041D01*
X133332543Y-95925805D01*
X133366762Y-95909849D01*
X133366767Y-95909846D01*
X133371749Y-95907523D01*
X133523632Y-95801173D01*
X133554789Y-95779357D01*
X133554792Y-95779355D01*
X133559300Y-95776198D01*
X133721198Y-95614300D01*
X133736503Y-95592443D01*
X133831034Y-95457438D01*
X133852523Y-95426749D01*
X133854846Y-95421767D01*
X133854849Y-95421762D01*
X133946961Y-95224225D01*
X133946961Y-95224224D01*
X133949284Y-95219243D01*
X133974195Y-95126277D01*
X134007119Y-95003402D01*
X134007119Y-95003400D01*
X134008543Y-94998087D01*
X134028498Y-94770000D01*
X134008543Y-94541913D01*
X134007119Y-94536598D01*
X133950707Y-94326067D01*
X133950706Y-94326065D01*
X133949284Y-94320757D01*
X133942989Y-94307257D01*
X133854849Y-94118238D01*
X133854846Y-94118233D01*
X133852523Y-94113251D01*
X133743147Y-93957046D01*
X133724357Y-93930211D01*
X133724355Y-93930208D01*
X133721198Y-93925700D01*
X133559300Y-93763802D01*
X133554792Y-93760645D01*
X133554789Y-93760643D01*
X133405009Y-93655766D01*
X133371749Y-93632477D01*
X133366767Y-93630154D01*
X133366762Y-93630151D01*
X133332543Y-93614195D01*
X133279258Y-93567278D01*
X133259797Y-93499001D01*
X133280339Y-93431041D01*
X133332543Y-93385805D01*
X133366762Y-93369849D01*
X133366767Y-93369846D01*
X133371749Y-93367523D01*
X133523632Y-93261173D01*
X133554789Y-93239357D01*
X133554792Y-93239355D01*
X133559300Y-93236198D01*
X133721198Y-93074300D01*
X133852523Y-92886749D01*
X133854846Y-92881767D01*
X133854849Y-92881762D01*
X133946961Y-92684225D01*
X133946961Y-92684224D01*
X133949284Y-92679243D01*
X133951116Y-92672408D01*
X134007119Y-92463402D01*
X134007119Y-92463400D01*
X134008543Y-92458087D01*
X134028498Y-92230000D01*
X134008543Y-92001913D01*
X134007119Y-91996598D01*
X133950707Y-91786067D01*
X133950706Y-91786065D01*
X133949284Y-91780757D01*
X133928860Y-91736957D01*
X133854849Y-91578238D01*
X133854846Y-91578233D01*
X133852523Y-91573251D01*
X133760989Y-91442527D01*
X133724357Y-91390211D01*
X133724355Y-91390208D01*
X133721198Y-91385700D01*
X133559300Y-91223802D01*
X133554792Y-91220645D01*
X133554789Y-91220643D01*
X133382534Y-91100029D01*
X133371749Y-91092477D01*
X133366767Y-91090154D01*
X133366762Y-91090151D01*
X133332543Y-91074195D01*
X133279258Y-91027278D01*
X133259797Y-90959001D01*
X133280339Y-90891041D01*
X133332543Y-90845805D01*
X133366762Y-90829849D01*
X133366767Y-90829846D01*
X133371749Y-90827523D01*
X133504489Y-90734577D01*
X133554789Y-90699357D01*
X133554792Y-90699355D01*
X133559300Y-90696198D01*
X133721198Y-90534300D01*
X133852523Y-90346749D01*
X133854846Y-90341767D01*
X133854849Y-90341762D01*
X133946961Y-90144225D01*
X133946961Y-90144224D01*
X133949284Y-90139243D01*
X133951116Y-90132408D01*
X134007119Y-89923402D01*
X134007119Y-89923400D01*
X134008543Y-89918087D01*
X134028498Y-89690000D01*
X134008543Y-89461913D01*
X134007119Y-89456598D01*
X133950707Y-89246067D01*
X133950706Y-89246065D01*
X133949284Y-89240757D01*
X133906437Y-89148871D01*
X133854849Y-89038238D01*
X133854846Y-89038233D01*
X133852523Y-89033251D01*
X133760989Y-88902527D01*
X133724357Y-88850211D01*
X133724355Y-88850208D01*
X133721198Y-88845700D01*
X133559300Y-88683802D01*
X133554792Y-88680645D01*
X133554789Y-88680643D01*
X133382534Y-88560029D01*
X133371749Y-88552477D01*
X133366767Y-88550154D01*
X133366762Y-88550151D01*
X133332543Y-88534195D01*
X133279258Y-88487278D01*
X133259797Y-88419001D01*
X133280339Y-88351041D01*
X133332543Y-88305805D01*
X133366762Y-88289849D01*
X133366767Y-88289846D01*
X133371749Y-88287523D01*
X133504489Y-88194577D01*
X133554789Y-88159357D01*
X133554792Y-88159355D01*
X133559300Y-88156198D01*
X133721198Y-87994300D01*
X133852523Y-87806749D01*
X133854846Y-87801767D01*
X133854849Y-87801762D01*
X133946961Y-87604225D01*
X133946961Y-87604224D01*
X133949284Y-87599243D01*
X133951116Y-87592408D01*
X134007119Y-87383402D01*
X134007119Y-87383400D01*
X134008543Y-87378087D01*
X134028498Y-87150000D01*
X134008543Y-86921913D01*
X134007119Y-86916598D01*
X133950707Y-86706067D01*
X133950706Y-86706065D01*
X133949284Y-86700757D01*
X133928860Y-86656957D01*
X133854849Y-86498238D01*
X133854846Y-86498233D01*
X133852523Y-86493251D01*
X133775366Y-86383059D01*
X133724357Y-86310211D01*
X133724355Y-86310208D01*
X133721198Y-86305700D01*
X133559300Y-86143802D01*
X133554792Y-86140645D01*
X133554789Y-86140643D01*
X133382534Y-86020029D01*
X133371749Y-86012477D01*
X133366767Y-86010154D01*
X133366762Y-86010151D01*
X133332543Y-85994195D01*
X133279258Y-85947278D01*
X133259797Y-85879001D01*
X133280339Y-85811041D01*
X133332543Y-85765805D01*
X133366762Y-85749849D01*
X133366767Y-85749846D01*
X133371749Y-85747523D01*
X133498491Y-85658777D01*
X133554789Y-85619357D01*
X133554792Y-85619355D01*
X133559300Y-85616198D01*
X133721198Y-85454300D01*
X133852523Y-85266749D01*
X133854846Y-85261767D01*
X133854849Y-85261762D01*
X133946961Y-85064225D01*
X133946961Y-85064224D01*
X133949284Y-85059243D01*
X133951116Y-85052408D01*
X134007119Y-84843402D01*
X134007119Y-84843400D01*
X134008543Y-84838087D01*
X134028498Y-84610000D01*
X134008543Y-84381913D01*
X133992565Y-84322283D01*
X133950707Y-84166067D01*
X133950706Y-84166065D01*
X133949284Y-84160757D01*
X133942849Y-84146957D01*
X133854849Y-83958238D01*
X133854846Y-83958233D01*
X133852523Y-83953251D01*
X133819627Y-83906271D01*
X133796939Y-83838997D01*
X133814224Y-83770137D01*
X133865993Y-83721552D01*
X133922840Y-83708000D01*
X135132104Y-83708000D01*
X135200225Y-83728002D01*
G37*
G04 #@! TD.AperFunction*
M02*
